{
copyright = "Copyright 2015 Mohamed Gaber (gaber@gaberism.net)Copyright 2015 Mohamed Gaber (gaber@gaberism.net)";
customParameters = (
{
name = licenseURL;
value = "http://scripts.sil.org/OFL";
},
{
name = description;
value = "Copyright (c) 2011 by Jovanny Lemonad. All rights reserved.";
},
{
name = trademark;
value = "Philosopher is a trademark of Jovanny Lemonad.";
},
{
name = license;
value = "Copyright (c) June 5, 2011, Jovanny Lemonad (lemonad@jovanny.ru), with Reserved Font Name Nixie.\012\012\012This Font Software is licensed under the SIL Open Font License, Version 1.1. This license is copied below, and is also available with a FAQ at: http://scripts.sil.org/OFL";
},
{
name = openTypeOS2VendorID;
value = MONO;
},
{
name = glyphOrder;
value = (
    ".null",
    CR,
    space,
    exclam,
    quotedbl,
    numbersign,
    dollar,
    percent,
    ampersand,
    quotesingle,
    parenleft,
    parenright,
    asterisk,
    plus,
    comma,
    hyphen,
    period,
    slash,
    zero,
    one,
    two,
    three,
    four,
    five,
    six,
    seven,
    eight,
    nine,
    colon,
    semicolon,
    less,
    equal,
    greater,
    question,
    at,
    A,
    B,
    C,
    D,
    E,
    F,
    G,
    H,
    I,
    J,
    K,
    L,
    M,
    N,
    O,
    P,
    Q,
    R,
    S,
    T,
    U,
    V,
    W,
    X,
    Y,
    Z,
    bracketleft,
    backslash,
    bracketright,
    asciicircum,
    underscore,
    grave,
    a,
    b,
    c,
    d,
    e,
    f,
    g,
    h,
    i,
    j,
    k,
    l,
    m,
    n,
    o,
    p,
    q,
    r,
    s,
    t,
    u,
    v,
    w,
    x,
    y,
    z,
    braceleft,
    bar,
    braceright,
    asciitilde,
    uni00A0,
    exclamdown,
    cent,
    sterling,
    currency,
    yen,
    brokenbar,
    section,
    dieresis,
    copyright,
    ordfeminine,
    guillemotleft,
    logicalnot,
    uni00AD,
    registered,
    macron,
    degree,
    plusminus,
    twosuperior,
    threesuperior,
    acute,

glyphs = (
{
glyphname = exclam;
lastChange = "2015-07-19 18:37:38 +0000";
layers = (
{
layerId = UUID0;
name = Regular;
paths = (
{
closed = 1;
nodes = (
"146 155 LINE",
"88 155 LINE",
"70 660 LINE",
"164 660 LINE"
);
},
{
closed = 1;
nodes = (
"146 94 OFFCURVE",
"171 70 OFFCURVE",
"171 41 CURVE SMOOTH",
"171 10 OFFCURVE",
"146 -14 OFFCURVE",
"117 -14 CURVE SMOOTH",
"88 -14 OFFCURVE",
"63 10 OFFCURVE",
"63 41 CURVE SMOOTH",
"63 70 OFFCURVE",
"88 94 OFFCURVE",
"117 94 CURVE SMOOTH"
);
}
);
width = 234;
}
);
unicode = 0021;
},
{
glyphname = quotedbl;
lastChange = "2015-07-19 18:37:38 +0000";
layers = (
{
layerId = UUID0;
name = Regular;
paths = (
{
closed = 1;
nodes = (
"243 390 LINE",
"213 660 LINE",
"313 660 LINE",
"283 390 LINE"
);
},
{
closed = 1;
nodes = (
"83 390 LINE",
"53 660 LINE",
"153 660 LINE",
"123 390 LINE"
);
}
);
width = 366;
}
);
leftKerningGroup = quotedbl;
rightKerningGroup = quotedbl;
unicode = 0022;
},
{
glyphname = numbersign;
lastChange = "2015-07-19 18:37:38 +0000";
layers = (
{
layerId = UUID0;
name = Regular;
paths = (
{
closed = 1;
nodes = (
"126 0 LINE",
"161 175 LINE",
"31 175 LINE",
"31 235 LINE",
"175 235 LINE",
"211 415 LINE",
"91 415 LINE",
"91 475 LINE",
"224 475 LINE",
"266 675 LINE",
"331 675 LINE",
"289 475 LINE",
"434 475 LINE",
"476 675 LINE",
"541 675 LINE",
"499 475 LINE",
"636 475 LINE",
"636 415 LINE",
"486 415 LINE",
"449 235 LINE",
"576 235 LINE",
"576 175 LINE",
"436 175 LINE",
"401 0 LINE",
"336 0 LINE",
"371 175 LINE",
"226 175 LINE",
"191 0 LINE"
);
},
{
closed = 1;
nodes = (
"239 235 LINE",
"385 235 LINE",
"421 415 LINE",
"276 415 LINE"
);
}
);
width = 668;
}
);
unicode = 0023;
},
{
glyphname = dollar;
lastChange = "2015-07-19 18:37:38 +0000";
layers = (
{
layerId = UUID0;
name = Regular;
paths = (
{
closed = 1;
nodes = (
"236 -80 LINE",
"236 -15 LINE",
"140 -4 OFFCURVE",
"49 38 OFFCURVE",
"49 105 CURVE SMOOTH",
"49 212 LINE",
"67 212 LINE",
"87 91 OFFCURVE",
"143 35 OFFCURVE",
"236 24 CURVE",
"236 294 LINE",
"166 336 LINE SMOOTH",
"81 387 OFFCURVE",
"49 433 OFFCURVE",
"49 508 CURVE SMOOTH",
"49 609 OFFCURVE",
"124 675 OFFCURVE",
"236 678 CURVE",
"236 735 LINE",
"276 735 LINE",
"276 676 LINE",
"366 668 OFFCURVE",
"459 625 OFFCURVE",
"459 558 CURVE SMOOTH",
"459 451 LINE",
"441 451 LINE",
"421 572 OFFCURVE",
"368 625 OFFCURVE",
"276 636 CURVE",
"276 383 LINE",
"361 333 LINE SMOOTH",
"446 282 OFFCURVE",
"485 243 OFFCURVE",
"485 168 CURVE SMOOTH",
"485 55 OFFCURVE",
"407 -17 OFFCURVE",
"276 -17 CURVE",
"276 -80 LINE"
);
},
{
closed = 1;
nodes = (
"276 270 LINE",
"276 23 LINE",
"341 26 OFFCURVE",
"399 61 OFFCURVE",
"399 125 CURVE SMOOTH",
"399 184 OFFCURVE",
"362 220 OFFCURVE",
"289 263 CURVE SMOOTH"
);
},
{
closed = 1;
nodes = (
"127 478 OFFCURVE",
"164 450 OFFCURVE",
"236 407 CURVE",
"236 638 LINE",
"179 635 OFFCURVE",
"127 596 OFFCURVE",
"127 537 CURVE SMOOTH"
);
}
);
width = 526;
}
);
unicode = 0024;
},
{
glyphname = percent;
lastChange = "2015-07-19 18:37:38 +0000";
layers = (
{
layerId = UUID0;
name = Regular;
paths = (
{
closed = 1;
nodes = (
"72 0 LINE",
"527 660 LINE",
"602 660 LINE",
"147 0 LINE"
);
},
{
closed = 1;
nodes = (
"582 197 OFFCURVE",
"554 230 OFFCURVE",
"497 230 CURVE SMOOTH",
"440 230 OFFCURVE",
"412 197 OFFCURVE",
"412 130 CURVE SMOOTH",
"412 63 OFFCURVE",
"440 30 OFFCURVE",
"497 30 CURVE SMOOTH",
"554 30 OFFCURVE",
"582 63 OFFCURVE",
"582 130 CURVE SMOOTH"
);
},
{
closed = 1;
nodes = (
"642 45 OFFCURVE",
"588 -5 OFFCURVE",
"497 -5 CURVE SMOOTH",
"406 -5 OFFCURVE",
"352 45 OFFCURVE",
"352 130 CURVE SMOOTH",
"352 215 OFFCURVE",
"406 265 OFFCURVE",
"497 265 CURVE SMOOTH",
"588 265 OFFCURVE",
"642 215 OFFCURVE",
"642 130 CURVE SMOOTH"
);
},
{
closed = 1;
nodes = (
"262 597 OFFCURVE",
"234 630 OFFCURVE",
"177 630 CURVE SMOOTH",
"120 630 OFFCURVE",
"92 597 OFFCURVE",
"92 530 CURVE SMOOTH",
"92 463 OFFCURVE",
"120 430 OFFCURVE",
"177 430 CURVE SMOOTH",
"234 430 OFFCURVE",
"262 463 OFFCURVE",
"262 530 CURVE SMOOTH"
);
},
{
closed = 1;
nodes = (
"322 445 OFFCURVE",
"268 395 OFFCURVE",
"177 395 CURVE SMOOTH",
"86 395 OFFCURVE",
"32 445 OFFCURVE",
"32 530 CURVE SMOOTH",
"32 615 OFFCURVE",
"86 665 OFFCURVE",
"177 665 CURVE SMOOTH",
"268 665 OFFCURVE",
"322 615 OFFCURVE",
"322 530 CURVE SMOOTH"
);
}
);
width = 674;
}
);
unicode = 0025;
},
{
glyphname = ampersand;
lastChange = "2015-07-19 18:37:38 +0000";
layers = (
{
layerId = UUID0;
name = Regular;
paths = (
{
closed = 1;
nodes = (
"42 224 OFFCURVE",
"112 272 OFFCURVE",
"185 326 CURVE",
"166 343 OFFCURVE",
"148 361 OFFCURVE",
"133 382 CURVE SMOOTH",
"106 417 OFFCURVE",
"82 467 OFFCURVE",
"82 524 CURVE SMOOTH",
"82 620 OFFCURVE",
"151 680 OFFCURVE",
"262 680 CURVE SMOOTH",
"367 680 OFFCURVE",
"427 620 OFFCURVE",
"427 540 CURVE SMOOTH",
"427 447 OFFCURVE",
"359 394 OFFCURVE",
"281 340 CURVE",
"482 120 LINE",
"510 151 OFFCURVE",
"532 181 OFFCURVE",
"548 205 CURVE SMOOTH",
"557 219 OFFCURVE",
"565 232 OFFCURVE",
"572 245 CURVE",
"592 230 LINE",
"586 217 OFFCURVE",
"579 203 OFFCURVE",
"570 188 CURVE SMOOTH",
"555 163 OFFCURVE",
"532 129 OFFCURVE",
"503 97 CURVE",
"592 0 LINE",
"482 0 LINE",
"442 43 LINE",
"394 7 OFFCURVE",
"332 -20 OFFCURVE",
"252 -20 CURVE SMOOTH",
"112 -20 OFFCURVE",
"42 50 OFFCURVE",
"42 140 CURVE SMOOTH"
);
},
{
closed = 1;
nodes = (
"332 15 OFFCURVE",
"381 35 OFFCURVE",
"421 66 CURVE",
"215 291 LINE",
"170 252 OFFCURVE",
"137 210 OFFCURVE",
"137 150 CURVE SMOOTH",
"137 60 OFFCURVE",
"182 15 OFFCURVE",
"271 15 CURVE SMOOTH"
);
},
{
closed = 1;
nodes = (
"177 445 OFFCURVE",
"243 380 OFFCURVE",
"250 375 CURVE",
"301 418 OFFCURVE",
"342 463 OFFCURVE",
"342 530 CURVE SMOOTH",
"342 615 OFFCURVE",
"297 645 OFFCURVE",
"262 645 CURVE SMOOTH",
"222 645 OFFCURVE",
"177 615 OFFCURVE",
"177 524 CURVE SMOOTH"
);
}
);
width = 616;
}
);
unicode = 0026;
},
{
glyphname = quotesingle;
lastChange = "2015-07-19 18:37:38 +0000";
layers = (
{
layerId = UUID0;
name = Regular;
paths = (
{
closed = 1;
nodes = (
"83 390 LINE",
"53 660 LINE",
"153 660 LINE",
"123 390 LINE"
);
}
);
width = 206;
}
);
leftKerningGroup = quotedbl;
rightKerningGroup = quotedbl;
unicode = 0027;
},
{
glyphname = parenleft;
lastChange = "2015-07-19 18:37:38 +0000";
layers = (
{
layerId = UUID0;
name = Regular;
paths = (
{
closed = 1;
nodes = (
"34 440 OFFCURVE",
"124 570 OFFCURVE",
"284 690 CURVE",
"294 675 LINE",
"164 561 OFFCURVE",
"124 400 OFFCURVE",
"124 240 CURVE SMOOTH",
"124 80 OFFCURVE",
"164 -81 OFFCURVE",
"294 -195 CURVE",
"284 -210 LINE",
"124 -90 OFFCURVE",
"34 40 OFFCURVE",
"34 240 CURVE SMOOTH"
);
}
);
width = 309;
}
);
unicode = 0028;
},
{
glyphname = parenright;
lastChange = "2015-07-19 18:37:38 +0000";
layers = (
{
layerId = UUID0;
name = Regular;
paths = (
{
closed = 1;
nodes = (
"275 40 OFFCURVE",
"185 -90 OFFCURVE",
"25 -210 CURVE",
"15 -195 LINE",
"145 -81 OFFCURVE",
"185 80 OFFCURVE",
"185 240 CURVE SMOOTH",
"185 400 OFFCURVE",
"145 561 OFFCURVE",
"15 675 CURVE",
"25 690 LINE",
"185 570 OFFCURVE",
"275 440 OFFCURVE",
"275 240 CURVE SMOOTH"
);
}
);
width = 309;
}
);
unicode = 0029;
},
{
glyphname = asterisk;
lastChange = "2015-07-19 18:37:38 +0000";
layers = (
{
layerId = UUID0;
name = Regular;
paths = (
{
closed = 1;
nodes = (
"172 660 LINE",
"252 660 LINE",
"222 510 LINE",
"337 615 LINE",
"377 545 LINE",
"232 495 LINE",
"377 445 LINE",
"337 375 LINE",
"222 480 LINE",
"252 330 LINE",
"172 330 LINE",
"202 480 LINE",
"87 375 LINE",
"47 445 LINE",
"192 495 LINE",
"47 545 LINE",
"87 615 LINE",
"202 510 LINE"
);
}
);
width = 424;
}
);
unicode = 002A;
},
{
glyphname = plus;
lastChange = "2015-07-19 18:37:38 +0000";
layers = (
{
layerId = UUID0;
name = Regular;
paths = (
{
closed = 1;
nodes = (
"235 300 LINE",
"35 300 LINE",
"35 360 LINE",
"235 360 LINE",
"235 560 LINE",
"295 560 LINE",
"295 360 LINE",
"495 360 LINE",
"495 300 LINE",
"295 300 LINE",
"295 100 LINE",
"235 100 LINE"
);
}
);
width = 530;
}
);
unicode = 002B;
},
{
glyphname = comma;
lastChange = "2015-07-19 18:37:38 +0000";
layers = (
{
layerId = UUID0;
name = Regular;
paths = (
{
closed = 1;
nodes = (
"61 -140 LINE",
"112 -105 OFFCURVE",
"141 -65 OFFCURVE",
"141 -5 CURVE",
"111 -15 LINE",
"80 -15 OFFCURVE",
"56 9 OFFCURVE",
"56 40 CURVE SMOOTH",
"56 75 OFFCURVE",
"81 100 OFFCURVE",
"116 100 CURVE SMOOTH",
"156 100 OFFCURVE",
"181 75 OFFCURVE",
"181 30 CURVE SMOOTH",
"181 -55 OFFCURVE",
"142 -115 OFFCURVE",
"71 -155 CURVE"
);
}
);
width = 237;
}
);
leftKerningGroup = quotedblbase;
rightKerningGroup = quotedblbase;
unicode = 002C;
},
{
glyphname = hyphen;
lastChange = "2015-07-19 18:37:38 +0000";
layers = (
{
layerId = UUID0;
name = Regular;
paths = (
{
closed = 1;
nodes = (
"66 300 LINE",
"321 300 LINE",
"321 230 LINE",
"66 230 LINE"
);
}
);
width = 387;
}
);
leftKerningGroup = emdash;
rightKerningGroup = emdash;
unicode = 002D;
},
{
glyphname = period;
lastChange = "2015-07-19 18:37:38 +0000";
layers = (
{
layerId = UUID0;
name = Regular;
paths = (
{
closed = 1;
nodes = (
"141 95 OFFCURVE",
"164 70 OFFCURVE",
"164 41 CURVE SMOOTH",
"164 10 OFFCURVE",
"139 -14 OFFCURVE",
"110 -14 CURVE SMOOTH",
"81 -14 OFFCURVE",
"56 10 OFFCURVE",
"56 41 CURVE SMOOTH",
"56 70 OFFCURVE",
"81 95 OFFCURVE",
"110 95 CURVE SMOOTH"
);
}
);
width = 220;
}
);
leftKerningGroup = quotedblbase;
rightKerningGroup = quotedblbase;
unicode = 002E;
},
{
glyphname = slash;
lastChange = "2015-07-19 18:37:38 +0000";
layers = (
{
layerId = UUID0;
name = Regular;
paths = (
{
closed = 1;
nodes = (
"23 0 LINE",
"344 660 LINE",
"417 660 LINE",
"96 0 LINE"
);
}
);
width = 440;
}
);
unicode = 002F;
},
{
glyphname = zero;
lastChange = "2015-07-19 18:37:38 +0000";
layers = (
{
layerId = UUID0;
name = Regular;
paths = (
{
closed = 1;
nodes = (
"183 640 OFFCURVE",
"152 540 OFFCURVE",
"152 330 CURVE SMOOTH",
"152 120 OFFCURVE",
"183 20 OFFCURVE",
"292 20 CURVE SMOOTH",
"401 20 OFFCURVE",
"432 120 OFFCURVE",
"432 330 CURVE SMOOTH",
"432 540 OFFCURVE",
"401 640 OFFCURVE",
"292 640 CURVE SMOOTH"
);
},
{
closed = 1;
nodes = (
"467 680 OFFCURVE",
"532 541 OFFCURVE",
"532 330 CURVE SMOOTH",
"532 119 OFFCURVE",
"467 -20 OFFCURVE",
"292 -20 CURVE SMOOTH",
"117 -20 OFFCURVE",
"52 119 OFFCURVE",
"52 330 CURVE SMOOTH",
"52 541 OFFCURVE",
"117 680 OFFCURVE",
"292 680 CURVE SMOOTH"
);
}
);
width = 584;
}
);
unicode = 0030;
},
{
glyphname = one;
lastChange = "2015-07-19 18:37:38 +0000";
layers = (
{
layerId = UUID0;
name = Regular;
paths = (
{
closed = 1;
nodes = (
"219 0 LINE",
"129 0 LINE",
"129 560 LINE",
"32 497 LINE",
"14 520 LINE",
"169 660 LINE",
"219 660 LINE"
);
}
);
width = 305;
}
);
unicode = 0031;
},
{
glyphname = two;
lastChange = "2015-07-19 18:37:38 +0000";
layers = (
{
layerId = UUID0;
name = Regular;
paths = (
{
closed = 1;
nodes = (
"336 40 LINE SMOOTH",
"416 40 OFFCURVE",
"461 74 OFFCURVE",
"461 145 CURVE",
"481 145 LINE",
"481 80 LINE SMOOTH",
"481 40 OFFCURVE",
"465 0 OFFCURVE",
"396 0 CURVE SMOOTH",
"41 0 LINE",
"41 50 LINE",
"251 254 OFFCURVE",
"366 340 OFFCURVE",
"366 490 CURVE SMOOTH",
"366 590 OFFCURVE",
"305 640 OFFCURVE",
"236 640 CURVE SMOOTH",
"156 640 OFFCURVE",
"91 581 OFFCURVE",
"71 470 CURVE",
"51 470 LINE",
"51 521 OFFCURVE",
"51 569 OFFCURVE",
"75 600 CURVE SMOOTH",
"111 644 OFFCURVE",
"186 680 OFFCURVE",
"266 680 CURVE SMOOTH",
"346 680 OFFCURVE",
"466 650 OFFCURVE",
"466 490 CURVE SMOOTH",
"466 319 OFFCURVE",
"296 217 OFFCURVE",
"111 40 CURVE"
);
}
);
width = 530;
}
);
unicode = 0032;
},
{
glyphname = three;
lastChange = "2015-07-19 18:37:38 +0000";
layers = (
{
layerId = UUID0;
name = Regular;
paths = (
{
closed = 1;
nodes = (
"191 370 LINE",
"226 379 OFFCURVE",
"269 380 OFFCURVE",
"281 380 CURVE SMOOTH",
"340 380 OFFCURVE",
"491 349 OFFCURVE",
"491 185 CURVE SMOOTH",
"491 10 OFFCURVE",
"341 -20 OFFCURVE",
"266 -20 CURVE SMOOTH",
"166 -20 OFFCURVE",
"96 22 OFFCURVE",
"40 87 CURVE",
"56 105 LINE",
"107 49 OFFCURVE",
"165 20 OFFCURVE",
"241 20 CURVE SMOOTH",
"321 20 OFFCURVE",
"391 70 OFFCURVE",
"391 185 CURVE SMOOTH",
"391 290 OFFCURVE",
"321 340 OFFCURVE",
"261 340 CURVE SMOOTH",
"201 340 OFFCURVE",
"186 336 OFFCURVE",
"141 325 CURVE",
"115 367 LINE",
"386 620 LINE",
"201 620 LINE SMOOTH",
"121 620 OFFCURVE",
"76 586 OFFCURVE",
"76 515 CURVE",
"56 515 LINE",
"56 580 LINE SMOOTH",
"56 620 OFFCURVE",
"72 660 OFFCURVE",
"141 660 CURVE SMOOTH",
"459 660 LINE",
"459 620 LINE"
);
}
);
width = 530;
}
);
unicode = 0033;
},
{
glyphname = four;
lastChange = "2015-07-19 18:37:38 +0000";
layers = (
{
layerId = UUID0;
name = Regular;
paths = (
{
closed = 1;
nodes = (
"428 210 LINE",
"518 210 LINE",
"518 170 LINE",
"428 170 LINE",
"428 0 LINE",
"338 0 LINE",
"338 170 LINE",
"18 170 LINE",
"18 210 LINE",
"348 660 LINE",
"428 660 LINE"
);
},
{
closed = 1;
nodes = (
"338 210 LINE",
"338 564 LINE",
"78 210 LINE"
);
}
);
width = 546;
}
);
unicode = 0034;
},
{
glyphname = five;
lastChange = "2015-07-19 18:37:38 +0000";
layers = (
{
layerId = UUID0;
name = Regular;
paths = (
{
closed = 1;
nodes = (
"352 380 OFFCURVE",
"492 345 OFFCURVE",
"492 185 CURVE SMOOTH",
"492 14 OFFCURVE",
"341 -20 OFFCURVE",
"257 -20 CURVE SMOOTH",
"157 -20 OFFCURVE",
"97 20 OFFCURVE",
"42 85 CURVE",
"61 102 LINE",
"112 46 OFFCURVE",
"169 20 OFFCURVE",
"242 20 CURVE SMOOTH",
"322 20 OFFCURVE",
"392 70 OFFCURVE",
"392 185 CURVE SMOOTH",
"392 290 OFFCURVE",
"332 340 OFFCURVE",
"232 340 CURVE SMOOTH",
"201 340 OFFCURVE",
"171 338 OFFCURVE",
"147 335 CURVE SMOOTH",
"107 330 LINE",
"67 370 LINE",
"77 660 LINE",
"452 660 LINE",
"452 620 LINE",
"159 620 LINE",
"150 375 LINE",
"182 377 LINE SMOOTH",
"201 378 OFFCURVE",
"227 380 OFFCURVE",
"252 380 CURVE SMOOTH"
);
}
);
width = 530;
}
);
unicode = 0035;
},
{
glyphname = six;
lastChange = "2015-07-19 18:37:38 +0000";
layers = (
{
layerId = UUID0;
name = Regular;
paths = (
{
closed = 1;
nodes = (
"147 110 OFFCURVE",
"202 20 OFFCURVE",
"282 20 CURVE SMOOTH",
"358 20 OFFCURVE",
"402 110 OFFCURVE",
"402 205 CURVE SMOOTH",
"402 320 OFFCURVE",
"362 390 OFFCURVE",
"267 390 CURVE SMOOTH",
"216 390 OFFCURVE",
"182 371 OFFCURVE",
"147 340 CURVE"
);
},
{
closed = 1;
nodes = (
"52 562 OFFCURVE",
"131 680 OFFCURVE",
"302 680 CURVE SMOOTH",
"367 680 OFFCURVE",
"417 665 OFFCURVE",
"457 650 CURVE",
"452 630 LINE",
"421 635 OFFCURVE",
"373 640 OFFCURVE",
"322 640 CURVE SMOOTH",
"202 640 OFFCURVE",
"147 540 OFFCURVE",
"147 385 CURVE",
"182 410 OFFCURVE",
"226 430 OFFCURVE",
"297 430 CURVE SMOOTH",
"437 430 OFFCURVE",
"497 341 OFFCURVE",
"497 205 CURVE SMOOTH",
"497 90 OFFCURVE",
"427 -20 OFFCURVE",
"282 -20 CURVE SMOOTH",
"122 -20 OFFCURVE",
"52 99 OFFCURVE",
"52 330 CURVE SMOOTH"
);
}
);
width = 537;
}
);
unicode = 0036;
},
{
glyphname = seven;
lastChange = "2015-07-19 18:37:38 +0000";
layers = (
{
layerId = UUID0;
name = Regular;
paths = (
{
closed = 1;
nodes = (
"211 0 LINE",
"121 0 LINE",
"371 620 LINE",
"171 620 LINE SMOOTH",
"91 620 OFFCURVE",
"46 586 OFFCURVE",
"46 515 CURVE",
"26 515 LINE",
"26 580 LINE SMOOTH",
"26 620 OFFCURVE",
"42 660 OFFCURVE",
"111 660 CURVE SMOOTH",
"461 660 LINE",
"461 620 LINE"
);
}
);
width = 474;
}
);
unicode = 0037;
},
{
glyphname = eight;
lastChange = "2015-07-19 18:37:38 +0000";
layers = (
{
layerId = UUID0;
name = Regular;
paths = (
{
closed = 1;
nodes = (
"482 440 OFFCURVE",
"421 387 OFFCURVE",
"357 355 CURVE",
"432 310 OFFCURVE",
"507 262 OFFCURVE",
"507 160 CURVE SMOOTH",
"507 30 OFFCURVE",
"401 -20 OFFCURVE",
"277 -20 CURVE SMOOTH",
"153 -20 OFFCURVE",
"47 30 OFFCURVE",
"47 150 CURVE SMOOTH",
"47 250 OFFCURVE",
"126 300 OFFCURVE",
"207 335 CURVE",
"137 376 OFFCURVE",
"72 421 OFFCURVE",
"72 510 CURVE SMOOTH",
"72 640 OFFCURVE",
"167 680 OFFCURVE",
"277 680 CURVE SMOOTH",
"387 680 OFFCURVE",
"482 640 OFFCURVE",
"482 520 CURVE SMOOTH"
);
},
{
closed = 1;
nodes = (
"412 226 OFFCURVE",
"337 270 OFFCURVE",
"252 315 CURVE",
"193 286 OFFCURVE",
"142 246 OFFCURVE",
"142 150 CURVE SMOOTH",
"142 59 OFFCURVE",
"207 20 OFFCURVE",
"277 20 CURVE SMOOTH",
"346 20 OFFCURVE",
"412 60 OFFCURVE",
"412 140 CURVE SMOOTH"
);
},
{
closed = 1;
nodes = (
"167 465 OFFCURVE",
"237 415 OFFCURVE",
"312 380 CURVE",
"352 409 OFFCURVE",
"387 445 OFFCURVE",
"387 520 CURVE SMOOTH",
"387 615 OFFCURVE",
"328 640 OFFCURVE",
"277 640 CURVE SMOOTH",
"226 640 OFFCURVE",
"167 615 OFFCURVE",
"167 530 CURVE SMOOTH"
);
}
);
width = 554;
}
);
unicode = 0038;
},
{
glyphname = nine;
lastChange = "2015-07-19 18:37:38 +0000";
layers = (
{
layerId = UUID0;
name = Regular;
paths = (
{
closed = 1;
nodes = (
"389 550 OFFCURVE",
"334 640 OFFCURVE",
"254 640 CURVE SMOOTH",
"178 640 OFFCURVE",
"134 550 OFFCURVE",
"134 455 CURVE SMOOTH",
"134 340 OFFCURVE",
"174 270 OFFCURVE",
"269 270 CURVE SMOOTH",
"320 270 OFFCURVE",
"354 289 OFFCURVE",
"389 320 CURVE"
);
},
{
closed = 1;
nodes = (
"484 98 OFFCURVE",
"405 -20 OFFCURVE",
"234 -20 CURVE SMOOTH",
"169 -20 OFFCURVE",
"119 -5 OFFCURVE",
"79 10 CURVE",
"84 30 LINE",
"115 25 OFFCURVE",
"163 20 OFFCURVE",
"214 20 CURVE SMOOTH",
"334 20 OFFCURVE",
"389 120 OFFCURVE",
"389 275 CURVE",
"354 250 OFFCURVE",
"310 230 OFFCURVE",
"239 230 CURVE SMOOTH",
"99 230 OFFCURVE",
"39 319 OFFCURVE",
"39 455 CURVE SMOOTH",
"39 570 OFFCURVE",
"109 680 OFFCURVE",
"254 680 CURVE SMOOTH",
"414 680 OFFCURVE",
"484 559 OFFCURVE",
"484 330 CURVE SMOOTH"
);
}
);
width = 536;
}
);
unicode = 0039;
},
{
glyphname = colon;
lastChange = "2015-07-19 18:37:38 +0000";
layers = (
{
layerId = UUID0;
name = Regular;
paths = (
{
closed = 1;
nodes = (
"152 461 OFFCURVE",
"175 436 OFFCURVE",
"175 407 CURVE SMOOTH",
"175 376 OFFCURVE",
"152 353 OFFCURVE",
"121 353 CURVE SMOOTH",
"92 353 OFFCURVE",
"67 376 OFFCURVE",
"67 407 CURVE SMOOTH",
"67 436 OFFCURVE",
"92 461 OFFCURVE",
"121 461 CURVE SMOOTH"
);
},
{
closed = 1;
nodes = (
"151 95 OFFCURVE",
"175 70 OFFCURVE",
"175 41 CURVE SMOOTH",
"175 10 OFFCURVE",
"151 -14 OFFCURVE",
"120 -14 CURVE SMOOTH",
"91 -14 OFFCURVE",
"66 10 OFFCURVE",
"66 41 CURVE SMOOTH",
"66 70 OFFCURVE",
"91 95 OFFCURVE",
"120 95 CURVE SMOOTH"
);
}
);
width = 241;
}
);
unicode = 003A;
},
{
glyphname = semicolon;
lastChange = "2015-07-19 18:37:38 +0000";
layers = (
{
layerId = UUID0;
name = Regular;
paths = (
{
closed = 1;
nodes = (
"160 461 OFFCURVE",
"185 437 OFFCURVE",
"185 408 CURVE SMOOTH",
"185 377 OFFCURVE",
"160 354 OFFCURVE",
"131 354 CURVE SMOOTH",
"100 354 OFFCURVE",
"76 377 OFFCURVE",
"76 408 CURVE SMOOTH",
"76 437 OFFCURVE",
"100 461 OFFCURVE",
"131 461 CURVE SMOOTH"
);
},
{
closed = 1;
nodes = (
"70 -140 LINE",
"121 -100 OFFCURVE",
"151 -65 OFFCURVE",
"151 0 CURVE",
"146 -5 OFFCURVE",
"136 -15 OFFCURVE",
"116 -15 CURVE SMOOTH",
"85 -15 OFFCURVE",
"66 9 OFFCURVE",
"66 40 CURVE SMOOTH",
"66 69 OFFCURVE",
"91 100 OFFCURVE",
"131 100 CURVE SMOOTH",
"166 100 OFFCURVE",
"191 71 OFFCURVE",
"191 20 CURVE SMOOTH",
"191 -51 OFFCURVE",
"161 -99 OFFCURVE",
"81 -154 CURVE"
);
}
);
width = 258;
}
);
unicode = 003B;
},
{
glyphname = less;
lastChange = "2015-07-19 18:37:38 +0000";
layers = (
{
layerId = UUID0;
name = Regular;
paths = (
{
closed = 1;
nodes = (
"133 335 LINE",
"550 155 LINE",
"550 95 LINE",
"30 320 LINE",
"30 350 LINE",
"550 575 LINE",
"550 515 LINE"
);
}
);
width = 618;
}
);
unicode = 003C;
},
{
glyphname = equal;
lastChange = "2015-07-19 18:37:38 +0000";
layers = (
{
layerId = UUID0;
name = Regular;
paths = (
{
closed = 1;
nodes = (
"66 450 LINE",
"591 450 LINE",
"591 390 LINE",
"66 390 LINE"
);
},
{
closed = 1;
nodes = (
"66 270 LINE",
"591 270 LINE",
"591 210 LINE",
"66 210 LINE"
);
}
);
width = 657;
}
);
unicode = 003D;
},
{
glyphname = greater;
lastChange = "2015-07-19 18:37:38 +0000";
layers = (
{
layerId = UUID0;
name = Regular;
paths = (
{
closed = 1;
nodes = (
"68 515 LINE",
"68 575 LINE",
"588 350 LINE",
"588 320 LINE",
"68 95 LINE",
"68 155 LINE",
"485 335 LINE"
);
}
);
width = 618;
}
);
unicode = 003E;
},
{
glyphname = question;
lastChange = "2015-07-19 18:37:38 +0000";
layers = (
{
layerId = UUID0;
name = Regular;
paths = (
{
closed = 1;
nodes = (
"257 96 OFFCURVE",
"281 72 OFFCURVE",
"281 41 CURVE SMOOTH",
"281 12 OFFCURVE",
"255 -13 OFFCURVE",
"226 -13 CURVE SMOOTH",
"195 -13 OFFCURVE",
"172 12 OFFCURVE",
"172 41 CURVE SMOOTH",
"172 72 OFFCURVE",
"195 96 OFFCURVE",
"226 96 CURVE SMOOTH"
);
},
{
closed = 1;
nodes = (
"206 156 LINE",
"210 321 OFFCURVE",
"346 340 OFFCURVE",
"346 490 CURVE SMOOTH",
"346 590 OFFCURVE",
"285 640 OFFCURVE",
"216 640 CURVE SMOOTH",
"136 640 OFFCURVE",
"70 581 OFFCURVE",
"50 470 CURVE",
"30 470 LINE",
"30 521 OFFCURVE",
"30 569 OFFCURVE",
"55 600 CURVE SMOOTH",
"91 644 OFFCURVE",
"166 680 OFFCURVE",
"246 680 CURVE SMOOTH",
"326 680 OFFCURVE",
"446 650 OFFCURVE",
"446 490 CURVE SMOOTH",
"446 322 OFFCURVE",
"250 288 OFFCURVE",
"246 156 CURVE"
);
}
);
width = 478;
}
);
unicode = 003F;
},
{
glyphname = at;
lastChange = "2015-07-19 18:37:38 +0000";
layers = (
{
layerId = UUID0;
name = Regular;
paths = (
{
closed = 1;
nodes = (
"515 245 LINE",
"485 245 LINE SMOOTH",
"385 245 OFFCURVE",
"325 205 OFFCURVE",
"325 145 CURVE SMOOTH",
"325 80 OFFCURVE",
"370 50 OFFCURVE",
"420 50 CURVE SMOOTH",
"469 50 OFFCURVE",
"495 79 OFFCURVE",
"515 110 CURVE"
);
},
{
closed = 1;
nodes = (
"200 -180 OFFCURVE",
"40 -30 OFFCURVE",
"40 250 CURVE SMOOTH",
"40 530 OFFCURVE",
"200 680 OFFCURVE",
"430 680 CURVE SMOOTH",
"660 680 OFFCURVE",
"820 530 OFFCURVE",
"820 270 CURVE SMOOTH",
"820 110 OFFCURVE",
"760 5 OFFCURVE",
"625 5 CURVE SMOOTH",
"569 5 OFFCURVE",
"535 25 OFFCURVE",
"520 60 CURVE",
"515 60 LINE",
"495 35 OFFCURVE",
"451 5 OFFCURVE",
"375 5 CURVE SMOOTH",
"320 5 OFFCURVE",
"230 36 OFFCURVE",
"230 145 CURVE SMOOTH",
"230 254 OFFCURVE",
"350 285 OFFCURVE",
"485 285 CURVE SMOOTH",
"515 285 LINE",
"515 425 OFFCURVE",
"470 455 OFFCURVE",
"410 455 CURVE SMOOTH",
"354 455 OFFCURVE",
"315 435 OFFCURVE",
"300 370 CURVE",
"255 370 LINE",
"255 405 OFFCURVE",
"255 435 OFFCURVE",
"280 460 CURVE SMOOTH",
"305 485 OFFCURVE",
"370 495 OFFCURVE",
"430 495 CURVE SMOOTH",
"521 495 OFFCURVE",
"605 465 OFFCURVE",
"605 285 CURVE SMOOTH",
"605 105 LINE SMOOTH",
"605 74 OFFCURVE",
"620 45 OFFCURVE",
"655 45 CURVE SMOOTH",
"720 45 OFFCURVE",
"780 130 OFFCURVE",
"780 270 CURVE SMOOTH",
"780 510 OFFCURVE",
"641 640 OFFCURVE",
"430 640 CURVE SMOOTH",
"219 640 OFFCURVE",
"80 510 OFFCURVE",
"80 250 CURVE SMOOTH",
"80 -10 OFFCURVE",
"219 -140 OFFCURVE",
"430 -140 CURVE SMOOTH",
"561 -140 OFFCURVE",
"660 -111 OFFCURVE",
"740 -55 CURVE",
"760 -85 LINE",
"680 -141 OFFCURVE",
"575 -180 OFFCURVE",
"430 -180 CURVE SMOOTH"
);
}
);
width = 856;
}
);
unicode = 0040;
},
{
glyphname = A;
lastChange = "2015-07-19 18:37:38 +0000";
layers = (
{
layerId = UUID0;
name = Regular;
paths = (
{
closed = 1;
nodes = (
"662 0 LINE",
"651 -3 OFFCURVE",
"637 -5 OFFCURVE",
"622 -5 CURVE SMOOTH",
"577 -5 OFFCURVE",
"495 9 OFFCURVE",
"452 125 CURVE SMOOTH",
"427 190 LINE",
"147 190 LINE",
"67 0 LINE",
"22 0 LINE",
"302 660 LINE",
"332 660 LINE",
"552 125 LINE",
"584 50 OFFCURVE",
"606 25 OFFCURVE",
"662 20 CURVE"
);
},
{
closed = 1;
nodes = (
"162 230 LINE",
"407 230 LINE",
"287 520 LINE"
);
}
);
width = 635;
}
);
leftKerningGroup = A;
rightKerningGroup = A;
unicode = 0041;
},
{
glyphname = B;
lastChange = "2015-07-19 18:37:38 +0000";
layers = (
{
layerId = UUID0;
name = Regular;
paths = (
{
closed = 1;
nodes = (
"196 315 LINE",
"196 49 LINE",
"227 40 OFFCURVE",
"260 35 OFFCURVE",
"291 35 CURVE SMOOTH",
"412 35 OFFCURVE",
"481 84 OFFCURVE",
"481 175 CURVE SMOOTH",
"481 266 OFFCURVE",
"416 315 OFFCURVE",
"291 315 CURVE SMOOTH"
);
},
{
closed = 1;
nodes = (
"291 355 LINE SMOOTH",
"370 355 OFFCURVE",
"451 400 OFFCURVE",
"451 490 CURVE SMOOTH",
"451 586 OFFCURVE",
"351 625 OFFCURVE",
"271 625 CURVE SMOOTH",
"246 625 OFFCURVE",
"216 620 OFFCURVE",
"196 615 CURVE",
"196 355 LINE"
);
},
{
closed = 1;
nodes = (
"276 660 LINE SMOOTH",
"381 660 OFFCURVE",
"546 640 OFFCURVE",
"546 485 CURVE SMOOTH",
"546 425 OFFCURVE",
"507 371 OFFCURVE",
"416 340 CURVE",
"546 319 OFFCURVE",
"581 261 OFFCURVE",
"581 180 CURVE SMOOTH",
"581 30 OFFCURVE",
"431 0 OFFCURVE",
"306 0 CURVE SMOOTH",
"106 0 LINE",
"106 540 LINE SMOOTH",
"106 600 OFFCURVE",
"96 640 OFFCURVE",
"36 640 CURVE SMOOTH",
"16 640 LINE",
"16 660 LINE"
);
}
);
width = 622;
}
);
leftKerningGroup = B;
unicode = 0042;
},
{
glyphname = C;
lastChange = "2015-07-19 18:37:38 +0000";
layers = (
{
layerId = UUID0;
name = Regular;
paths = (
{
closed = 1;
nodes = (
"589 450 LINE",
"564 581 OFFCURVE",
"495 640 OFFCURVE",
"384 640 CURVE SMOOTH",
"253 640 OFFCURVE",
"144 559 OFFCURVE",
"144 320 CURVE SMOOTH",
"144 171 OFFCURVE",
"213 20 OFFCURVE",
"384 20 CURVE SMOOTH",
"484 20 OFFCURVE",
"553 69 OFFCURVE",
"609 160 CURVE",
"629 145 LINE",
"565 20 OFFCURVE",
"473 -20 OFFCURVE",
"354 -20 CURVE SMOOTH",
"164 -20 OFFCURVE",
"44 131 OFFCURVE",
"44 320 CURVE SMOOTH",
"44 520 OFFCURVE",
"183 680 OFFCURVE",
"354 680 CURVE SMOOTH",
"465 680 OFFCURVE",
"548 644 OFFCURVE",
"584 600 CURVE SMOOTH",
"609 569 OFFCURVE",
"609 510 OFFCURVE",
"609 450 CURVE"
);
}
);
width = 665;
}
);
leftKerningGroup = C;
rightKerningGroup = C;
unicode = 0043;
},
{
glyphname = D;
lastChange = "2015-07-19 18:37:38 +0000";
layers = (
{
layerId = UUID0;
name = Regular;
paths = (
{
closed = 1;
nodes = (
"199 48 LINE",
"238 39 OFFCURVE",
"272 35 OFFCURVE",
"301 35 CURVE SMOOTH",
"449 35 OFFCURVE",
"562 149 OFFCURVE",
"562 330 CURVE SMOOTH",
"562 507 OFFCURVE",
"452 625 OFFCURVE",
"299 625 CURVE SMOOTH",
"270 625 OFFCURVE",
"235 620 OFFCURVE",
"199 609 CURVE"
);
},
{
closed = 1;
nodes = (
"278 660 LINE SMOOTH",
"542 660 OFFCURVE",
"671 534 OFFCURVE",
"671 334 CURVE SMOOTH",
"671 139 OFFCURVE",
"546 0 OFFCURVE",
"304 0 CURVE SMOOTH",
"106 0 LINE",
"106 540 LINE SMOOTH",
"106 600 OFFCURVE",
"96 640 OFFCURVE",
"36 640 CURVE SMOOTH",
"16 640 LINE",
"16 660 LINE"
);
}
);
width = 715;
}
);
leftKerningGroup = B;
rightKerningGroup = D;
unicode = 0044;
},
{
glyphname = E;
lastChange = "2015-07-19 18:37:38 +0000";
layers = (
{
layerId = UUID0;
name = Regular;
paths = (
{
closed = 1;
nodes = (
"442 660 LINE SMOOTH",
"511 660 OFFCURVE",
"527 620 OFFCURVE",
"527 580 CURVE SMOOTH",
"527 505 LINE",
"507 505 LINE",
"507 585 OFFCURVE",
"462 620 OFFCURVE",
"382 620 CURVE SMOOTH",
"196 620 LINE",
"196 360 LINE",
"466 360 LINE",
"466 320 LINE",
"196 320 LINE",
"196 40 LINE",
"371 40 LINE SMOOTH",
"462 40 OFFCURVE",
"510 70 OFFCURVE",
"541 150 CURVE",
"561 145 LINE",
"526 50 LINE SMOOTH",
"515 19 OFFCURVE",
"491 0 OFFCURVE",
"451 0 CURVE SMOOTH",
"106 0 LINE",
"106 540 LINE SMOOTH",
"106 600 OFFCURVE",
"96 640 OFFCURVE",
"36 640 CURVE SMOOTH",
"16 640 LINE",
"16 660 LINE"
);
}
);
width = 590;
}
);
leftKerningGroup = B;
rightKerningGroup = E;
unicode = 0045;
},
{
glyphname = F;
lastChange = "2015-07-19 18:37:38 +0000";
layers = (
{
layerId = UUID0;
name = Regular;
paths = (
{
closed = 1;
nodes = (
"415 660 LINE SMOOTH",
"484 660 OFFCURVE",
"500 620 OFFCURVE",
"500 580 CURVE SMOOTH",
"500 505 LINE",
"480 505 LINE",
"480 585 OFFCURVE",
"435 620 OFFCURVE",
"355 620 CURVE SMOOTH",
"196 620 LINE",
"196 355 LINE",
"422 355 LINE",
"422 315 LINE",
"196 315 LINE",
"196 0 LINE",
"106 0 LINE",
"106 540 LINE SMOOTH",
"106 600 OFFCURVE",
"96 640 OFFCURVE",
"36 640 CURVE SMOOTH",
"16 640 LINE",
"16 660 LINE"
);
}
);
width = 527;
}
);
leftKerningGroup = B;
unicode = 0046;
},
{
glyphname = G;
lastChange = "2015-07-19 18:37:38 +0000";
layers = (
{
layerId = UUID0;
name = Regular;
paths = (
{
closed = 1;
nodes = (
"213 640 OFFCURVE",
"144 489 OFFCURVE",
"144 340 CURVE SMOOTH",
"144 99 OFFCURVE",
"253 20 OFFCURVE",
"384 20 CURVE SMOOTH",
"456 20 OFFCURVE",
"500 34 OFFCURVE",
"539 55 CURVE",
"539 229 LINE SMOOTH",
"539 284 OFFCURVE",
"554 346 OFFCURVE",
"704 346 CURVE",
"704 326 LINE",
"639 326 OFFCURVE",
"629 290 OFFCURVE",
"629 231 CURVE SMOOTH",
"629 43 LINE",
"557 -1 OFFCURVE",
"481 -20 OFFCURVE",
"384 -20 CURVE SMOOTH",
"184 -20 OFFCURVE",
"44 140 OFFCURVE",
"44 340 CURVE SMOOTH",
"44 529 OFFCURVE",
"164 680 OFFCURVE",
"354 680 CURVE SMOOTH",
"475 680 OFFCURVE",
"558 644 OFFCURVE",
"594 600 CURVE SMOOTH",
"619 569 OFFCURVE",
"619 510 OFFCURVE",
"619 465 CURVE",
"599 465 LINE",
"574 581 OFFCURVE",
"505 640 OFFCURVE",
"384 640 CURVE SMOOTH"
);
}
);
width = 720;
}
);
leftKerningGroup = C;
rightKerningGroup = G;
unicode = 0047;
},
{
glyphname = H;
lastChange = "2015-07-19 18:37:38 +0000";
layers = (
{
layerId = UUID0;
name = Regular;
paths = (
{
closed = 1;
nodes = (
"586 120 LINE SMOOTH",
"586 60 OFFCURVE",
"596 20 OFFCURVE",
"656 20 CURVE SMOOTH",
"676 20 LINE",
"676 0 LINE",
"586 0 LINE SMOOTH",
"516 0 OFFCURVE",
"496 20 OFFCURVE",
"496 120 CURVE SMOOTH",
"496 320 LINE",
"196 320 LINE",
"196 0 LINE",
"106 0 LINE",
"106 540 LINE SMOOTH",
"106 600 OFFCURVE",
"96 640 OFFCURVE",
"36 640 CURVE SMOOTH",
"16 640 LINE",
"16 660 LINE",
"106 660 LINE SMOOTH",
"176 660 OFFCURVE",
"196 640 OFFCURVE",
"196 540 CURVE SMOOTH",
"196 360 LINE",
"496 360 LINE",
"496 660 LINE",
"586 660 LINE"
);
}
);
width = 693;
}
);
leftKerningGroup = B;
rightKerningGroup = H;
unicode = 0048;
},
{
glyphname = I;
lastChange = "2015-07-19 18:37:38 +0000";
layers = (
{
layerId = UUID0;
name = Regular;
paths = (
{
closed = 1;
nodes = (
"89 660 LINE",
"179 660 LINE",
"179 120 LINE SMOOTH",
"179 60 OFFCURVE",
"189 20 OFFCURVE",
"249 20 CURVE SMOOTH",
"269 20 LINE",
"269 0 LINE",
"179 0 LINE SMOOTH",
"109 0 OFFCURVE",
"89 20 OFFCURVE",
"89 120 CURVE SMOOTH"
);
}
);
width = 285;
}
);
leftKerningGroup = I;
rightKerningGroup = H;
unicode = 0049;
},
{
glyphname = J;
lastChange = "2015-07-19 18:37:38 +0000";
layers = (
{
layerId = UUID0;
name = Regular;
paths = (
{
closed = 1;
nodes = (
"-9 -117 LINE",
"56 -117 OFFCURVE",
"86 -43 OFFCURVE",
"86 78 CURVE SMOOTH",
"86 660 LINE",
"176 660 LINE",
"176 78 LINE SMOOTH",
"176 -72 OFFCURVE",
"136 -137 OFFCURVE",
"-9 -137 CURVE"
);
}
);
width = 261;
}
);
unicode = 004A;
},
{
glyphname = K;
lastChange = "2015-07-19 18:37:38 +0000";
layers = (
{
layerId = UUID0;
name = Regular;
paths = (
{
closed = 1;
nodes = (
"106 660 LINE SMOOTH",
"176 660 OFFCURVE",
"196 640 OFFCURVE",
"196 540 CURVE SMOOTH",
"196 345 LINE",
"406 555 LINE SMOOTH",
"456 605 OFFCURVE",
"496 660 OFFCURVE",
"576 660 CURVE SMOOTH",
"626 660 LINE",
"626 635 LINE",
"571 635 OFFCURVE",
"536 620 OFFCURVE",
"481 565 CURVE SMOOTH",
"286 370 LINE",
"516 130 LINE SMOOTH",
"571 73 OFFCURVE",
"635 26 OFFCURVE",
"686 19 CURVE",
"686 0 LINE",
"671 -5 OFFCURVE",
"652 -10 OFFCURVE",
"621 -10 CURVE SMOOTH",
"566 -10 OFFCURVE",
"501 10 OFFCURVE",
"406 110 CURVE SMOOTH",
"196 330 LINE",
"196 0 LINE",
"106 0 LINE",
"106 540 LINE SMOOTH",
"106 600 OFFCURVE",
"96 640 OFFCURVE",
"36 640 CURVE SMOOTH",
"16 640 LINE",
"16 660 LINE"
);
}
);
width = 677;
}
);
leftKerningGroup = B;
unicode = 004B;
},
{
glyphname = L;
lastChange = "2015-07-19 18:37:38 +0000";
layers = (
{
layerId = UUID0;
name = Regular;
paths = (
{
closed = 1;
nodes = (
"196 40 LINE",
"551 40 LINE",
"551 0 LINE",
"106 0 LINE",
"106 540 LINE SMOOTH",
"106 600 OFFCURVE",
"96 640 OFFCURVE",
"36 640 CURVE SMOOTH",
"16 640 LINE",
"16 660 LINE",
"106 660 LINE SMOOTH",
"176 660 OFFCURVE",
"196 640 OFFCURVE",
"196 540 CURVE SMOOTH"
);
}
);
width = 558;
}
);
leftKerningGroup = B;
unicode = 004C;
},
{
glyphname = M;
lastChange = "2015-07-19 18:37:38 +0000";
layers = (
{
layerId = UUID0;
name = Regular;
paths = (
{
closed = 1;
nodes = (
"841 -45 LINE",
"696 -45 OFFCURVE",
"656 20 OFFCURVE",
"656 170 CURVE SMOOTH",
"656 555 LINE",
"406 0 LINE",
"386 0 LINE",
"126 565 LINE",
"126 0 LINE",
"86 0 LINE",
"86 660 LINE",
"181 660 LINE",
"421 140 LINE",
"656 660 LINE",
"746 660 LINE",
"746 170 LINE SMOOTH",
"746 49 OFFCURVE",
"776 -25 OFFCURVE",
"841 -25 CURVE"
);
}
);
width = 855;
}
);
unicode = 004D;
},
{
glyphname = N;
lastChange = "2015-07-19 18:37:38 +0000";
layers = (
{
layerId = UUID0;
name = Regular;
paths = (
{
closed = 1;
nodes = (
"110 540 LINE SMOOTH",
"110 600 OFFCURVE",
"89 640 OFFCURVE",
"20 640 CURVE SMOOTH",
"10 640 LINE",
"10 660 LINE",
"75 660 LINE SMOOTH",
"140 660 OFFCURVE",
"179 637 OFFCURVE",
"210 600 CURVE",
"560 165 LINE",
"560 660 LINE",
"600 660 LINE",
"600 -10 LINE",
"580 -10 LINE",
"150 525 LINE",
"150 0 LINE",
"110 0 LINE"
);
}
);
width = 685;
}
);
leftKerningGroup = B;
rightKerningGroup = N;
unicode = 004E;
},
{
glyphname = O;
lastChange = "2015-07-19 18:37:38 +0000";
layers = (
{
layerId = UUID0;
name = Regular;
paths = (
{
closed = 1;
nodes = (
"566 520 OFFCURVE",
"487 640 OFFCURVE",
"356 640 CURVE SMOOTH",
"225 640 OFFCURVE",
"146 520 OFFCURVE",
"146 330 CURVE SMOOTH",
"146 140 OFFCURVE",
"225 20 OFFCURVE",
"356 20 CURVE SMOOTH",
"487 20 OFFCURVE",
"566 140 OFFCURVE",
"566 330 CURVE SMOOTH"
);
},
{
closed = 1;
nodes = (
"46 526 OFFCURVE",
"166 680 OFFCURVE",
"356 680 CURVE SMOOTH",
"546 680 OFFCURVE",
"666 526 OFFCURVE",
"666 330 CURVE SMOOTH",
"666 134 OFFCURVE",
"546 -20 OFFCURVE",
"356 -20 CURVE SMOOTH",
"166 -20 OFFCURVE",
"46 134 OFFCURVE",
"46 330 CURVE SMOOTH"
);
}
);
width = 712;
}
);
leftKerningGroup = C;
rightKerningGroup = O;
unicode = 004F;
},
{
glyphname = P;
lastChange = "2015-07-19 18:37:38 +0000";
layers = (
{
layerId = UUID0;
name = Regular;
paths = (
{
closed = 1;
nodes = (
"326 305 OFFCURVE",
"426 345 OFFCURVE",
"426 465 CURVE SMOOTH",
"426 585 OFFCURVE",
"326 625 OFFCURVE",
"271 625 CURVE SMOOTH",
"246 625 OFFCURVE",
"216 620 OFFCURVE",
"196 615 CURVE",
"196 315 LINE",
"216 310 OFFCURVE",
"246 305 OFFCURVE",
"271 305 CURVE SMOOTH"
);
},
{
closed = 1;
nodes = (
"196 0 LINE",
"106 0 LINE",
"106 540 LINE SMOOTH",
"106 600 OFFCURVE",
"96 640 OFFCURVE",
"36 640 CURVE SMOOTH",
"16 640 LINE",
"16 660 LINE",
"276 660 LINE SMOOTH",
"361 660 OFFCURVE",
"526 640 OFFCURVE",
"526 460 CURVE SMOOTH",
"526 289 OFFCURVE",
"361 270 OFFCURVE",
"306 270 CURVE SMOOTH",
"196 270 LINE"
);
}
);
width = 552;
}
);
leftKerningGroup = B;
unicode = 0050;
},
{
glyphname = Q;
lastChange = "2015-07-19 18:37:38 +0000";
layers = (
{
layerId = UUID0;
name = Regular;
paths = (
{
closed = 1;
nodes = (
"47 526 OFFCURVE",
"167 680 OFFCURVE",
"357 680 CURVE SMOOTH",
"547 680 OFFCURVE",
"667 526 OFFCURVE",
"667 330 CURVE SMOOTH",
"667 164 OFFCURVE",
"581 29 OFFCURVE",
"439 -9 CURVE",
"471 -109 OFFCURVE",
"591 -185 OFFCURVE",
"677 -185 CURVE",
"677 -205 LINE",
"531 -205 OFFCURVE",
"390 -160 OFFCURVE",
"267 -7 CURVE",
"130 33 OFFCURVE",
"47 167 OFFCURVE",
"47 330 CURVE SMOOTH"
);
},
{
closed = 1;
nodes = (
"567 520 OFFCURVE",
"488 640 OFFCURVE",
"357 640 CURVE SMOOTH",
"226 640 OFFCURVE",
"147 520 OFFCURVE",
"147 330 CURVE SMOOTH",
"147 140 OFFCURVE",
"226 20 OFFCURVE",
"357 20 CURVE SMOOTH",
"488 20 OFFCURVE",
"567 140 OFFCURVE",
"567 330 CURVE SMOOTH"
);
}
);
width = 714;
}
);
leftKerningGroup = C;
rightKerningGroup = O;
unicode = 0051;
},
{
glyphname = R;
lastChange = "2015-07-19 18:37:38 +0000";
layers = (
{
layerId = UUID0;
name = Regular;
paths = (
{
closed = 1;
nodes = (
"326 340 OFFCURVE",
"426 380 OFFCURVE",
"426 480 CURVE SMOOTH",
"426 585 OFFCURVE",
"326 625 OFFCURVE",
"271 625 CURVE SMOOTH",
"246 625 OFFCURVE",
"216 620 OFFCURVE",
"196 615 CURVE",
"196 350 LINE",
"216 345 OFFCURVE",
"246 340 OFFCURVE",
"271 340 CURVE SMOOTH"
);
},
{
closed = 1;
nodes = (
"266 305 LINE",
"196 305 LINE",
"196 0 LINE",
"106 0 LINE",
"106 540 LINE SMOOTH",
"106 600 OFFCURVE",
"96 640 OFFCURVE",
"36 640 CURVE SMOOTH",
"16 640 LINE",
"16 660 LINE",
"276 660 LINE SMOOTH",
"361 660 OFFCURVE",
"526 640 OFFCURVE",
"526 480 CURVE SMOOTH",
"526 364 OFFCURVE",
"436 326 OFFCURVE",
"366 310 CURVE",
"471 135 LINE SMOOTH",
"522 50 OFFCURVE",
"556 25 OFFCURVE",
"606 20 CURVE",
"606 0 LINE",
"595 -5 OFFCURVE",
"571 -10 OFFCURVE",
"546 -10 CURVE SMOOTH",
"476 -10 OFFCURVE",
"431 25 OFFCURVE",
"366 135 CURVE SMOOTH"
);
}
);
width = 595;
}
);
leftKerningGroup = B;
unicode = 0052;
},
{
glyphname = S;
lastChange = "2015-07-19 18:37:38 +0000";
layers = (
{
layerId = UUID0;
name = Regular;
paths = (
{
closed = 1;
nodes = (
"490 56 OFFCURVE",
"410 -17 OFFCURVE",
"282 -17 CURVE SMOOTH",
"174 -17 OFFCURVE",
"54 30 OFFCURVE",
"54 105 CURVE SMOOTH",
"54 212 LINE",
"72 212 LINE",
"95 77 OFFCURVE",
"160 23 OFFCURVE",
"273 23 CURVE SMOOTH",
"341 23 OFFCURVE",
"404 58 OFFCURVE",
"404 125 CURVE SMOOTH",
"404 184 OFFCURVE",
"367 220 OFFCURVE",
"294 263 CURVE SMOOTH",
"171 336 LINE SMOOTH",
"86 387 OFFCURVE",
"54 433 OFFCURVE",
"54 508 CURVE SMOOTH",
"54 611 OFFCURVE",
"132 678 OFFCURVE",
"248 678 CURVE SMOOTH",
"347 678 OFFCURVE",
"464 634 OFFCURVE",
"464 558 CURVE SMOOTH",
"464 451 LINE",
"446 451 LINE",
"423 586 OFFCURVE",
"361 638 OFFCURVE",
"248 638 CURVE SMOOTH",
"189 638 OFFCURVE",
"132 599 OFFCURVE",
"132 537 CURVE SMOOTH",
"132 479 OFFCURVE",
"170 449 OFFCURVE",
"243 406 CURVE SMOOTH",
"366 333 LINE SMOOTH",
"451 282 OFFCURVE",
"490 243 OFFCURVE",
"490 168 CURVE SMOOTH"
);
}
);
width = 533;
}
);
leftKerningGroup = S;
rightKerningGroup = S;
unicode = 0053;
},
{
glyphname = T;
lastChange = "2015-07-19 18:37:38 +0000";
layers = (
{
layerId = UUID0;
name = Regular;
paths = (
{
closed = 1;
nodes = (
"571 660 LINE",
"571 620 LINE",
"346 620 LINE",
"346 0 LINE",
"256 0 LINE",
"256 620 LINE",
"166 620 LINE SMOOTH",
"86 620 OFFCURVE",
"41 585 OFFCURVE",
"41 505 CURVE",
"21 505 LINE",
"21 580 LINE SMOOTH",
"21 620 OFFCURVE",
"37 660 OFFCURVE",
"106 660 CURVE SMOOTH"
);
}
);
width = 583;
}
);
unicode = 0054;
},
{
glyphname = U;
lastChange = "2015-07-19 18:37:38 +0000";
layers = (
{
layerId = UUID0;
name = Regular;
paths = (
{
closed = 1;
nodes = (
"99 540 LINE SMOOTH",
"99 600 OFFCURVE",
"89 640 OFFCURVE",
"29 640 CURVE SMOOTH",
"9 640 LINE",
"9 660 LINE",
"99 660 LINE SMOOTH",
"169 660 OFFCURVE",
"189 640 OFFCURVE",
"189 540 CURVE SMOOTH",
"189 255 LINE SMOOTH",
"189 115 OFFCURVE",
"234 30 OFFCURVE",
"366 30 CURVE SMOOTH",
"519 30 OFFCURVE",
"569 109 OFFCURVE",
"569 285 CURVE SMOOTH",
"569 660 LINE",
"609 660 LINE",
"609 285 LINE SMOOTH",
"609 89 OFFCURVE",
"559 -10 OFFCURVE",
"354 -10 CURVE SMOOTH",
"159 -10 OFFCURVE",
"99 89 OFFCURVE",
"99 285 CURVE SMOOTH"
);
}
);
width = 687;
}
);
leftKerningGroup = U;
rightKerningGroup = U;
unicode = 0055;
},
{
glyphname = V;
lastChange = "2015-07-19 18:37:38 +0000";
layers = (
{
layerId = UUID0;
name = Regular;
paths = (
{
closed = 1;
nodes = (
"350 140 LINE",
"483 448 OFFCURVE",
"411 278 OFFCURVE",
"570 660 CURVE",
"618 660 LINE",
"331 -10 LINE",
"313 -10 LINE",
"81 543 LINE SMOOTH",
"49 618 OFFCURVE",
"27 643 OFFCURVE",
"-29 648 CURVE",
"-29 668 LINE",
"-24 668 OFFCURVE",
"-4 670 OFFCURVE",
"5 670 CURVE SMOOTH",
"54 670 OFFCURVE",
"131 657 OFFCURVE",
"179 543 CURVE SMOOTH"
);
}
);
width = 640;
}
);
unicode = 0056;
},
{
glyphname = W;
lastChange = "2015-07-19 18:37:38 +0000";
layers = (
{
layerId = UUID0;
name = Regular;
paths = (
{
closed = 1;
nodes = (
"78 543 LINE SMOOTH",
"51 619 OFFCURVE",
"28 643 OFFCURVE",
"-32 648 CURVE",
"-32 668 LINE",
"-27 668 OFFCURVE",
"-7 670 OFFCURVE",
"2 670 CURVE SMOOTH",
"57 670 OFFCURVE",
"133 659 OFFCURVE",
"173 543 CURVE SMOOTH",
"307 157 LINE",
"414 474 LINE",
"390 543 LINE SMOOTH",
"363 619 OFFCURVE",
"340 643 OFFCURVE",
"280 648 CURVE",
"280 668 LINE",
"285 668 OFFCURVE",
"305 670 OFFCURVE",
"314 670 CURVE SMOOTH",
"369 670 OFFCURVE",
"445 659 OFFCURVE",
"485 543 CURVE SMOOTH",
"619 157 LINE",
"790 660 LINE",
"833 660 LINE",
"604 -10 LINE",
"584 -10 LINE",
"436 411 LINE",
"292 -10 LINE",
"272 -10 LINE"
);
}
);
width = 866;
}
);
unicode = 0057;
},
{
glyphname = X;
lastChange = "2015-07-19 18:37:38 +0000";
layers = (
{
layerId = UUID0;
name = Regular;
paths = (
{
closed = 1;
nodes = (
"91 0 LINE",
"41 0 LINE",
"291 325 LINE",
"151 530 LINE SMOOTH",
"117 580 OFFCURVE",
"81 635 OFFCURVE",
"-9 640 CURVE",
"-9 660 LINE",
"111 660 LINE SMOOTH",
"177 660 OFFCURVE",
"217 600 OFFCURVE",
"251 550 CURVE SMOOTH",
"351 400 LINE",
"551 660 LINE",
"601 660 LINE",
"376 365 LINE",
"536 130 LINE SMOOTH",
"570 80 OFFCURVE",
"617 25 OFFCURVE",
"681 20 CURVE",
"681 0 LINE",
"576 0 LINE SMOOTH",
"512 0 OFFCURVE",
"468 59 OFFCURVE",
"436 110 CURVE",
"316 290 LINE"
);
}
);
width = 667;
}
);
unicode = 0058;
},
{
glyphname = Y;
lastChange = "2015-07-19 18:37:38 +0000";
layers = (
{
layerId = UUID0;
name = Regular;
paths = (
{
closed = 1;
nodes = (
"360 325 LINE",
"569 660 LINE",
"614 660 LINE",
"380 280 LINE",
"380 0 LINE",
"290 0 LINE",
"290 273 LINE",
"120 530 LINE",
"79 589 OFFCURVE",
"46 635 OFFCURVE",
"-25 640 CURVE",
"-25 660 LINE",
"65 660 LINE SMOOTH",
"139 660 OFFCURVE",
"181 605 OFFCURVE",
"215 550 CURVE"
);
}
);
width = 628;
}
);
leftKerningGroup = Y;
rightKerningGroup = Y;
unicode = 0059;
},
{
glyphname = Z;
lastChange = "2015-07-19 18:37:38 +0000";
layers = (
{
layerId = UUID0;
name = Regular;
paths = (
{
closed = 1;
nodes = (
"574 660 LINE",
"149 40 LINE",
"559 40 LINE",
"559 0 LINE",
"24 0 LINE",
"24 20 LINE",
"439 620 LINE",
"199 620 LINE SMOOTH",
"119 620 OFFCURVE",
"74 585 OFFCURVE",
"74 505 CURVE",
"54 505 LINE",
"54 580 LINE SMOOTH",
"54 620 OFFCURVE",
"70 660 OFFCURVE",
"139 660 CURVE SMOOTH"
);
}
);
width = 591;
}
);
leftKerningGroup = Z;
rightKerningGroup = Z;
unicode = 005A;
},
{
glyphname = bracketleft;
lastChange = "2015-07-19 18:37:38 +0000";
layers = (
{
layerId = UUID0;
name = Regular;
paths = (
{
closed = 1;
nodes = (
"290 -200 LINE",
"75 -200 LINE",
"75 680 LINE",
"290 680 LINE",
"290 640 LINE",
"155 640 LINE",
"155 -160 LINE",
"290 -160 LINE"
);
}
);
width = 316;
}
);
unicode = 005B;
},
{
glyphname = backslash;
lastChange = "2015-07-19 18:37:38 +0000";
layers = (
{
layerId = UUID0;
name = Regular;
paths = (
{
closed = 1;
nodes = (
"344 0 LINE",
"23 660 LINE",
"96 660 LINE",
"417 0 LINE"
);
}
);
width = 440;
}
);
unicode = 005C;
},
{
glyphname = bracketright;
lastChange = "2015-07-19 18:37:38 +0000";
layers = (
{
layerId = UUID0;
name = Regular;
paths = (
{
closed = 1;
nodes = (
"26 -160 LINE",
"161 -160 LINE",
"161 640 LINE",
"26 640 LINE",
"26 680 LINE",
"241 680 LINE",
"241 -200 LINE",
"26 -200 LINE"
);
}
);
width = 316;
}
);
unicode = 005D;
},
{
glyphname = asciicircum;
lastChange = "2015-07-19 18:37:38 +0000";
layers = (
{
layerId = UUID0;
name = Regular;
paths = (
{
closed = 1;
nodes = (
"235 680 LINE",
"255 680 LINE",
"470 330 LINE",
"403 330 LINE",
"245 587 LINE",
"87 330 LINE",
"20 330 LINE"
);
}
);
width = 490;
}
);
unicode = 005E;
},
{
glyphname = underscore;
lastChange = "2015-07-19 18:37:38 +0000";
layers = (
{
layerId = UUID0;
name = Regular;
paths = (
{
closed = 1;
nodes = (
"416 -60 LINE",
"16 -60 LINE",
"16 0 LINE",
"416 0 LINE"
);
}
);
width = 432;
}
);
unicode = 005F;
},
{
glyphname = grave;
lastChange = "2015-07-19 18:37:38 +0000";
layers = (
{
layerId = UUID0;
name = Regular;
paths = (
{
closed = 1;
nodes = (
"20 680 LINE",
"120 680 LINE",
"180 480 LINE",
"130 480 LINE"
);
}
);
width = 200;
}
);
unicode = 0060;
},
{
glyphname = a;
lastChange = "2015-07-19 18:37:38 +0000";
layers = (
{
layerId = UUID0;
name = Regular;
paths = (
{
closed = 1;
nodes = (
"324 230 LINE",
"294 230 LINE SMOOTH",
"194 230 OFFCURVE",
"134 190 OFFCURVE",
"134 130 CURVE SMOOTH",
"134 65 OFFCURVE",
"179 35 OFFCURVE",
"229 35 CURVE SMOOTH",
"278 35 OFFCURVE",
"304 64 OFFCURVE",
"324 95 CURVE"
);
},
{
closed = 1;
nodes = (
"364 0 LINE",
"329 45 LINE",
"324 45 LINE",
"304 20 OFFCURVE",
"260 -10 OFFCURVE",
"184 -10 CURVE SMOOTH",
"129 -10 OFFCURVE",
"39 21 OFFCURVE",
"39 130 CURVE SMOOTH",
"39 239 OFFCURVE",
"159 270 OFFCURVE",
"294 270 CURVE SMOOTH",
"324 270 LINE",
"324 410 OFFCURVE",
"279 440 OFFCURVE",
"219 440 CURVE SMOOTH",
"163 440 OFFCURVE",
"124 420 OFFCURVE",
"109 355 CURVE",
"64 355 LINE",
"64 390 OFFCURVE",
"64 420 OFFCURVE",
"89 445 CURVE SMOOTH",
"114 470 OFFCURVE",
"179 480 OFFCURVE",
"239 480 CURVE SMOOTH",
"330 480 OFFCURVE",
"414 450 OFFCURVE",
"414 270 CURVE SMOOTH",
"414 0 LINE"
);
}
);
width = 481;
}
);
leftKerningGroup = a;
rightKerningGroup = a;
unicode = 0061;
},
{
glyphname = b;
lastChange = "2015-07-19 18:37:38 +0000";
layers = (
{
layerId = UUID0;
name = Regular;
paths = (
{
closed = 1;
nodes = (
"162 90 LINE",
"182 59 OFFCURVE",
"212 30 OFFCURVE",
"267 30 CURVE SMOOTH",
"347 30 OFFCURVE",
"382 120 OFFCURVE",
"382 235 CURVE SMOOTH",
"382 350 OFFCURVE",
"347 440 OFFCURVE",
"257 440 CURVE SMOOTH",
"226 440 OFFCURVE",
"193 425 OFFCURVE",
"162 410 CURVE"
);
},
{
closed = 1;
nodes = (
"72 540 LINE SMOOTH",
"72 600 OFFCURVE",
"62 640 OFFCURVE",
"2 640 CURVE SMOOTH",
"-18 640 LINE",
"-18 660 LINE",
"72 660 LINE SMOOTH",
"142 660 OFFCURVE",
"162 640 OFFCURVE",
"162 540 CURVE SMOOTH",
"162 450 LINE",
"193 465 OFFCURVE",
"231 480 OFFCURVE",
"287 480 CURVE SMOOTH",
"417 480 OFFCURVE",
"477 370 OFFCURVE",
"477 235 CURVE SMOOTH",
"477 100 OFFCURVE",
"416 -10 OFFCURVE",
"297 -10 CURVE SMOOTH",
"222 -10 OFFCURVE",
"182 20 OFFCURVE",
"162 45 CURVE",
"157 45 LINE",
"122 0 LINE",
"72 0 LINE"
);
}
);
width = 523;
}
);
leftKerningGroup = b;
rightKerningGroup = b;
unicode = 0062;
},
{
glyphname = c;
lastChange = "2015-07-19 18:37:38 +0000";
layers = (
{
layerId = UUID0;
name = Regular;
paths = (
{
closed = 1;
nodes = (
"336 480 OFFCURVE",
"385 470 OFFCURVE",
"410 445 CURVE SMOOTH",
"435 420 OFFCURVE",
"435 390 OFFCURVE",
"435 315 CURVE",
"415 315 LINE",
"410 400 OFFCURVE",
"356 440 OFFCURVE",
"285 440 CURVE SMOOTH",
"185 440 OFFCURVE",
"140 350 OFFCURVE",
"140 235 CURVE SMOOTH",
"140 120 OFFCURVE",
"185 30 OFFCURVE",
"285 30 CURVE SMOOTH",
"356 30 OFFCURVE",
"395 59 OFFCURVE",
"430 110 CURVE",
"450 95 LINE",
"405 19 OFFCURVE",
"345 -10 OFFCURVE",
"265 -10 CURVE SMOOTH",
"116 -10 OFFCURVE",
"45 100 OFFCURVE",
"45 235 CURVE SMOOTH",
"45 370 OFFCURVE",
"116 480 OFFCURVE",
"265 480 CURVE SMOOTH"
);
}
);
width = 483;
}
);
leftKerningGroup = c;
rightKerningGroup = c;
unicode = 0063;
},
{
glyphname = d;
lastChange = "2015-07-19 18:37:38 +0000";
layers = (
{
layerId = UUID0;
name = Regular;
paths = (
{
closed = 1;
nodes = (
"362 410 LINE",
"331 425 OFFCURVE",
"298 440 OFFCURVE",
"267 440 CURVE SMOOTH",
"177 440 OFFCURVE",
"142 350 OFFCURVE",
"142 235 CURVE SMOOTH",
"142 120 OFFCURVE",
"177 30 OFFCURVE",
"257 30 CURVE SMOOTH",
"318 30 OFFCURVE",
"340 60 OFFCURVE",
"362 90 CURVE"
);
},
{
closed = 1;
nodes = (
"452 0 LINE",
"402 0 LINE",
"367 45 LINE",
"362 45 LINE",
"340 20 OFFCURVE",
"308 -10 OFFCURVE",
"227 -10 CURVE SMOOTH",
"106 -10 OFFCURVE",
"47 100 OFFCURVE",
"47 235 CURVE SMOOTH",
"47 370 OFFCURVE",
"107 480 OFFCURVE",
"237 480 CURVE SMOOTH",
"293 480 OFFCURVE",
"331 465 OFFCURVE",
"362 450 CURVE",
"362 540 LINE SMOOTH",
"362 600 OFFCURVE",
"352 640 OFFCURVE",
"292 640 CURVE SMOOTH",
"272 640 LINE",
"272 660 LINE",
"362 660 LINE SMOOTH",
"432 660 OFFCURVE",
"452 640 OFFCURVE",
"452 540 CURVE SMOOTH"
);
}
);
width = 524;
}
);
leftKerningGroup = c;
unicode = 0064;
},
{
glyphname = e;
lastChange = "2015-07-19 18:37:38 +0000";
layers = (
{
layerId = UUID0;
name = Regular;
paths = (
{
closed = 1;
nodes = (
"443 220 LINE",
"140 220 LINE",
"140 110 OFFCURVE",
"190 30 OFFCURVE",
"275 30 CURVE SMOOTH",
"340 30 OFFCURVE",
"380 59 OFFCURVE",
"415 110 CURVE",
"435 95 LINE",
"390 19 OFFCURVE",
"331 -10 OFFCURVE",
"255 -10 CURVE SMOOTH",
"115 -10 OFFCURVE",
"45 100 OFFCURVE",
"45 235 CURVE SMOOTH",
"45 370 OFFCURVE",
"120 480 OFFCURVE",
"245 480 CURVE SMOOTH",
"381 480 OFFCURVE",
"445 401 OFFCURVE",
"445 260 CURVE"
);
},
{
closed = 1;
nodes = (
"350 260 LINE",
"350 376 OFFCURVE",
"316 440 OFFCURVE",
"245 440 CURVE SMOOTH",
"185 440 OFFCURVE",
"140 364 OFFCURVE",
"140 260 CURVE"
);
}
);
width = 488;
}
);
leftKerningGroup = c;
rightKerningGroup = e;
unicode = 0065;
},
{
glyphname = f;
lastChange = "2015-07-19 18:37:38 +0000";
layers = (
{
layerId = UUID0;
name = Regular;
paths = (
{
closed = 1;
nodes = (
"216 630 OFFCURVE",
"181 599 OFFCURVE",
"181 500 CURVE SMOOTH",
"181 470 LINE",
"321 470 LINE",
"321 430 LINE",
"181 430 LINE",
"181 0 LINE",
"91 0 LINE",
"91 430 LINE",
"21 430 LINE",
"21 470 LINE",
"91 470 LINE",
"91 500 LINE SMOOTH",
"91 640 OFFCURVE",
"181 670 OFFCURVE",
"266 670 CURVE SMOOTH",
"307 670 OFFCURVE",
"336 665 OFFCURVE",
"351 655 CURVE SMOOTH",
"366 644 OFFCURVE",
"375 630 OFFCURVE",
"386 610 CURVE",
"356 585 LINE",
"336 615 OFFCURVE",
"304 630 OFFCURVE",
"261 630 CURVE SMOOTH"
);
}
);
width = 337;
}
);
unicode = 0066;
},
{
glyphname = g;
lastChange = "2015-07-19 18:37:38 +0000";
layers = (
{
layerId = UUID0;
name = Regular;
paths = (
{
closed = 1;
nodes = (
"56 445 OFFCURVE",
"141 480 OFFCURVE",
"246 480 CURVE SMOOTH",
"431 480 LINE",
"431 455 LINE",
"366 445 LINE",
"366 440 LINE",
"406 420 OFFCURVE",
"436 381 OFFCURVE",
"436 330 CURVE SMOOTH",
"436 215 OFFCURVE",
"351 180 OFFCURVE",
"246 180 CURVE SMOOTH",
"176 180 OFFCURVE",
"141 168 OFFCURVE",
"141 145 CURVE SMOOTH",
"141 122 OFFCURVE",
"176 110 OFFCURVE",
"246 110 CURVE SMOOTH",
"366 110 OFFCURVE",
"466 64 OFFCURVE",
"466 -45 CURVE SMOOTH",
"466 -160 OFFCURVE",
"370 -200 OFFCURVE",
"246 -200 CURVE SMOOTH",
"122 -200 OFFCURVE",
"26 -160 OFFCURVE",
"26 -45 CURVE SMOOTH",
"26 20 OFFCURVE",
"76 65 OFFCURVE",
"136 85 CURVE",
"116 96 OFFCURVE",
"96 114 OFFCURVE",
"96 145 CURVE SMOOTH",
"96 176 OFFCURVE",
"116 189 OFFCURVE",
"131 200 CURVE",
"91 220 OFFCURVE",
"56 265 OFFCURVE",
"56 330 CURVE SMOOTH"
);
},
{
closed = 1;
nodes = (
"201 75 LINE",
"150 55 OFFCURVE",
"116 20 OFFCURVE",
"116 -45 CURVE SMOOTH",
"116 -125 OFFCURVE",
"170 -160 OFFCURVE",
"246 -160 CURVE SMOOTH",
"322 -160 OFFCURVE",
"376 -125 OFFCURVE",
"376 -45 CURVE SMOOTH",
"376 22 OFFCURVE",
"336 60 OFFCURVE",
"256 70 CURVE"
);
},
{
closed = 1;
nodes = (
"346 410 OFFCURVE",
"302 445 OFFCURVE",
"246 445 CURVE SMOOTH",
"191 445 OFFCURVE",
"146 415 OFFCURVE",
"146 330 CURVE SMOOTH",
"146 245 OFFCURVE",
"191 215 OFFCURVE",
"246 215 CURVE SMOOTH",
"301 215 OFFCURVE",
"346 245 OFFCURVE",
"346 330 CURVE SMOOTH"
);
}
);
width = 492;
}
);
leftKerningGroup = g;
rightKerningGroup = g;
unicode = 0067;
},
{
glyphname = h;
lastChange = "2015-07-19 19:00:20 +0000";
layers = (
{
layerId = UUID0;
name = Regular;
paths = (
{
closed = 1;
nodes = (
"162 430 LINE",
"187 455 OFFCURVE",
"232 480 OFFCURVE",
"292 480 CURVE SMOOTH",
"377 480 OFFCURVE",
"462 445 OFFCURVE",
"462 300 CURVE SMOOTH",
"462 0 LINE",
"372 0 LINE",
"372 300 LINE SMOOTH",
"372 400 OFFCURVE",
"317 435 OFFCURVE",
"262 435 CURVE SMOOTH",
"222 435 OFFCURVE",
"187 410 OFFCURVE",
"162 382 CURVE",
"162 0 LINE",
"72 0 LINE",
"72 540 LINE SMOOTH",
"72 600 OFFCURVE",
"62 640 OFFCURVE",
"2 640 CURVE SMOOTH",
"-18 640 LINE",
"-18 660 LINE",
"72 660 LINE SMOOTH",
"142 660 OFFCURVE",
"162 640 OFFCURVE",
"162 540 CURVE SMOOTH"
);
}
);
width = 529;
}
);
leftKerningGroup = b;
rightKerningGroup = h;
unicode = 0068;
},
{
glyphname = i;
lastChange = "2015-07-19 18:37:38 +0000";
layers = (
{
layerId = UUID0;
name = Regular;
paths = (
{
closed = 1;
nodes = (
"177 0 LINE",
"87 0 LINE",
"87 350 LINE SMOOTH",
"87 410 OFFCURVE",
"77 450 OFFCURVE",
"17 450 CURVE SMOOTH",
"-3 450 LINE",
"-3 470 LINE",
"87 470 LINE SMOOTH",
"157 470 OFFCURVE",
"177 450 OFFCURVE",
"177 350 CURVE SMOOTH"
);
},
{
closed = 1;
nodes = (
"171 547 OFFCURVE",
"153 530 OFFCURVE",
"125 530 CURVE SMOOTH",
"94 530 OFFCURVE",
"69 559 OFFCURVE",
"69 594 CURVE SMOOTH",
"69 622 OFFCURVE",
"87 639 OFFCURVE",
"115 639 CURVE SMOOTH",
"146 639 OFFCURVE",
"171 610 OFFCURVE",
"171 575 CURVE SMOOTH"
);
}
);
width = 246;
}
);
leftKerningGroup = i;
rightKerningGroup = i;
unicode = 0069;
},
{
glyphname = j;
lastChange = "2015-07-19 18:37:38 +0000";
layers = (
{
layerId = UUID0;
name = Regular;
paths = (
{
closed = 1;
nodes = (
"87 350 LINE SMOOTH",
"87 410 OFFCURVE",
"77 450 OFFCURVE",
"17 450 CURVE SMOOTH",
"-3 450 LINE",
"-3 470 LINE",
"87 470 LINE SMOOTH",
"157 470 OFFCURVE",
"177 450 OFFCURVE",
"177 350 CURVE SMOOTH",
"177 25 LINE SMOOTH",
"177 -125 OFFCURVE",
"137 -190 OFFCURVE",
"-8 -190 CURVE",
"-8 -170 LINE",
"57 -170 OFFCURVE",
"87 -96 OFFCURVE",
"87 25 CURVE SMOOTH"
);
},
{
closed = 1;
nodes = (
"171 547 OFFCURVE",
"153 530 OFFCURVE",
"125 530 CURVE SMOOTH",
"94 530 OFFCURVE",
"69 559 OFFCURVE",
"69 594 CURVE SMOOTH",
"69 622 OFFCURVE",
"87 639 OFFCURVE",
"115 639 CURVE SMOOTH",
"146 639 OFFCURVE",
"171 610 OFFCURVE",
"171 575 CURVE SMOOTH"
);
}
);
width = 246;
}
);
leftKerningGroup = i;
rightKerningGroup = i;
unicode = 006A;
},
{
glyphname = k;
lastChange = "2015-07-19 18:37:38 +0000";
layers = (
{
layerId = UUID0;
name = Regular;
paths = (
{
closed = 1;
nodes = (
"162 245 LINE",
"287 405 LINE SMOOTH",
"318 444 OFFCURVE",
"352 470 OFFCURVE",
"417 470 CURVE SMOOTH",
"447 470 LINE",
"447 445 LINE",
"412 445 OFFCURVE",
"377 431 OFFCURVE",
"352 400 CURVE SMOOTH",
"242 260 LINE",
"367 100 LINE SMOOTH",
"406 49 OFFCURVE",
"437 26 OFFCURVE",
"477 19 CURVE",
"477 0 LINE",
"466 -5 OFFCURVE",
"447 -10 OFFCURVE",
"427 -10 CURVE SMOOTH",
"376 -10 OFFCURVE",
"327 10 OFFCURVE",
"282 70 CURVE SMOOTH",
"162 230 LINE",
"162 0 LINE",
"72 0 LINE",
"72 540 LINE SMOOTH",
"72 600 OFFCURVE",
"62 640 OFFCURVE",
"2 640 CURVE SMOOTH",
"-18 640 LINE",
"-18 660 LINE",
"72 660 LINE SMOOTH",
"142 660 OFFCURVE",
"162 640 OFFCURVE",
"162 540 CURVE SMOOTH"
);
}
);
width = 485;
}
);
leftKerningGroup = b;
unicode = 006B;
},
{
glyphname = l;
lastChange = "2015-07-19 18:37:38 +0000";
layers = (
{
layerId = UUID0;
name = Regular;
paths = (
{
closed = 1;
nodes = (
"166 0 LINE",
"76 0 LINE",
"76 540 LINE SMOOTH",
"76 600 OFFCURVE",
"66 640 OFFCURVE",
"6 640 CURVE SMOOTH",
"-14 640 LINE",
"-14 660 LINE",
"76 660 LINE SMOOTH",
"146 660 OFFCURVE",
"166 640 OFFCURVE",
"166 540 CURVE SMOOTH"
);
}
);
width = 242;
}
);
unicode = 006C;
},
{
glyphname = m;
lastChange = "2015-07-19 18:37:38 +0000";
layers = (
{
layerId = UUID0;
name = Regular;
paths = (
{
closed = 1;
nodes = (
"177 430 LINE",
"202 455 OFFCURVE",
"247 480 OFFCURVE",
"307 480 CURVE SMOOTH",
"358 480 OFFCURVE",
"402 466 OFFCURVE",
"427 410 CURVE",
"462 455 OFFCURVE",
"521 480 OFFCURVE",
"577 480 CURVE SMOOTH",
"652 480 OFFCURVE",
"717 445 OFFCURVE",
"717 300 CURVE SMOOTH",
"717 0 LINE",
"627 0 LINE",
"627 300 LINE SMOOTH",
"627 400 OFFCURVE",
"598 435 OFFCURVE",
"547 435 CURVE SMOOTH",
"508 435 OFFCURVE",
"461 400 OFFCURVE",
"442 370 CURVE",
"447 355 OFFCURVE",
"447 320 OFFCURVE",
"447 300 CURVE SMOOTH",
"447 0 LINE",
"357 0 LINE",
"357 300 LINE SMOOTH",
"357 400 OFFCURVE",
"328 435 OFFCURVE",
"277 435 CURVE SMOOTH",
"237 435 OFFCURVE",
"202 410 OFFCURVE",
"177 382 CURVE",
"177 0 LINE",
"87 0 LINE",
"87 350 LINE SMOOTH",
"87 410 OFFCURVE",
"77 450 OFFCURVE",
"17 450 CURVE SMOOTH",
"-3 450 LINE",
"-3 470 LINE",
"87 470 LINE SMOOTH",
"138 470 OFFCURVE",
"161 455 OFFCURVE",
"172 430 CURVE"
);
}
);
width = 785;
}
);
leftKerningGroup = m;
rightKerningGroup = h;
unicode = 006D;
},
{
glyphname = n;
lastChange = "2015-07-19 18:37:38 +0000";
layers = (
{
layerId = UUID0;
name = Regular;
paths = (
{
closed = 1;
nodes = (
"87 350 LINE SMOOTH",
"87 410 OFFCURVE",
"77 450 OFFCURVE",
"17 450 CURVE SMOOTH",
"-3 450 LINE",
"-3 470 LINE",
"87 470 LINE SMOOTH",
"138 470 OFFCURVE",
"161 455 OFFCURVE",
"172 430 CURVE",
"177 430 LINE",
"202 455 OFFCURVE",
"247 480 OFFCURVE",
"307 480 CURVE SMOOTH",
"392 480 OFFCURVE",
"477 445 OFFCURVE",
"477 300 CURVE SMOOTH",
"477 0 LINE",
"387 0 LINE",
"387 300 LINE SMOOTH",
"387 400 OFFCURVE",
"332 435 OFFCURVE",
"277 435 CURVE SMOOTH",
"237 435 OFFCURVE",
"202 410 OFFCURVE",
"177 382 CURVE",
"177 0 LINE",
"87 0 LINE"
);
}
);
width = 544;
}
);
leftKerningGroup = m;
rightKerningGroup = h;
unicode = 006E;
},
{
glyphname = o;
lastChange = "2015-07-19 18:37:38 +0000";
layers = (
{
layerId = UUID0;
name = Regular;
paths = (
{
closed = 1;
nodes = (
"390 350 OFFCURVE",
"340 440 OFFCURVE",
"265 440 CURVE SMOOTH",
"190 440 OFFCURVE",
"140 350 OFFCURVE",
"140 235 CURVE SMOOTH",
"140 120 OFFCURVE",
"190 30 OFFCURVE",
"265 30 CURVE SMOOTH",
"340 30 OFFCURVE",
"390 120 OFFCURVE",
"390 235 CURVE SMOOTH"
);
},
{
closed = 1;
nodes = (
"45 370 OFFCURVE",
"125 480 OFFCURVE",
"265 480 CURVE SMOOTH",
"405 480 OFFCURVE",
"485 370 OFFCURVE",
"485 235 CURVE SMOOTH",
"485 100 OFFCURVE",
"405 -10 OFFCURVE",
"265 -10 CURVE SMOOTH",
"125 -10 OFFCURVE",
"45 100 OFFCURVE",
"45 235 CURVE SMOOTH"
);
}
);
width = 530;
}
);
leftKerningGroup = c;
rightKerningGroup = b;
unicode = 006F;
},
{
glyphname = p;
lastChange = "2015-07-19 18:37:38 +0000";
layers = (
{
layerId = UUID0;
name = Regular;
paths = (
{
closed = 1;
nodes = (
"177 60 LINE",
"208 45 OFFCURVE",
"241 30 OFFCURVE",
"272 30 CURVE SMOOTH",
"362 30 OFFCURVE",
"397 120 OFFCURVE",
"397 235 CURVE SMOOTH",
"397 350 OFFCURVE",
"362 440 OFFCURVE",
"282 440 CURVE SMOOTH",
"227 440 OFFCURVE",
"196 410 OFFCURVE",
"177 380 CURVE"
);
},
{
closed = 1;
nodes = (
"87 350 LINE SMOOTH",
"87 410 OFFCURVE",
"77 450 OFFCURVE",
"17 450 CURVE SMOOTH",
"-3 450 LINE",
"-3 470 LINE",
"87 470 LINE SMOOTH",
"138 470 OFFCURVE",
"161 456 OFFCURVE",
"172 425 CURVE",
"177 425 LINE",
"197 450 OFFCURVE",
"237 480 OFFCURVE",
"312 480 CURVE SMOOTH",
"431 480 OFFCURVE",
"492 370 OFFCURVE",
"492 235 CURVE SMOOTH",
"492 100 OFFCURVE",
"432 -10 OFFCURVE",
"302 -10 CURVE SMOOTH",
"246 -10 OFFCURVE",
"208 5 OFFCURVE",
"177 20 CURVE",
"177 -190 LINE",
"87 -190 LINE"
);
}
);
width = 538;
}
);
leftKerningGroup = m;
rightKerningGroup = b;
unicode = 0070;
},
{
glyphname = q;
lastChange = "2015-07-19 18:37:38 +0000";
layers = (
{
layerId = UUID0;
name = Regular;
paths = (
{
closed = 1;
nodes = (
"362 380 LINE",
"340 410 OFFCURVE",
"313 440 OFFCURVE",
"257 440 CURVE SMOOTH",
"177 440 OFFCURVE",
"142 350 OFFCURVE",
"142 235 CURVE SMOOTH",
"142 120 OFFCURVE",
"177 30 OFFCURVE",
"267 30 CURVE SMOOTH",
"298 30 OFFCURVE",
"331 45 OFFCURVE",
"362 60 CURVE"
);
},
{
closed = 1;
nodes = (
"362 20 LINE",
"331 5 OFFCURVE",
"293 -10 OFFCURVE",
"237 -10 CURVE SMOOTH",
"107 -10 OFFCURVE",
"47 100 OFFCURVE",
"47 235 CURVE SMOOTH",
"47 370 OFFCURVE",
"106 480 OFFCURVE",
"227 480 CURVE SMOOTH",
"302 480 OFFCURVE",
"342 450 OFFCURVE",
"362 425 CURVE",
"367 425 LINE",
"402 470 LINE",
"452 470 LINE",
"452 -190 LINE",
"362 -190 LINE"
);
}
);
width = 524;
}
);
leftKerningGroup = c;
rightKerningGroup = q;
unicode = 0071;
},
{
glyphname = r;
lastChange = "2015-07-19 18:37:38 +0000";
layers = (
{
layerId = UUID0;
name = Regular;
paths = (
{
closed = 1;
nodes = (
"80 350 LINE SMOOTH",
"80 410 OFFCURVE",
"70 450 OFFCURVE",
"10 450 CURVE SMOOTH",
"0 450 LINE",
"0 470 LINE",
"80 470 LINE SMOOTH",
"131 470 OFFCURVE",
"154 456 OFFCURVE",
"165 425 CURVE",
"170 425 LINE",
"190 450 OFFCURVE",
"230 480 OFFCURVE",
"290 480 CURVE SMOOTH",
"310 480 OFFCURVE",
"335 476 OFFCURVE",
"350 465 CURVE SMOOTH",
"365 454 OFFCURVE",
"374 440 OFFCURVE",
"385 420 CURVE",
"345 390 LINE",
"330 410 OFFCURVE",
"300 420 OFFCURVE",
"265 420 CURVE SMOOTH",
"225 420 OFFCURVE",
"190 401 OFFCURVE",
"170 370 CURVE",
"170 0 LINE",
"80 0 LINE"
);
}
);
width = 397;
}
);
leftKerningGroup = m;
unicode = 0072;
},
{
glyphname = s;
lastChange = "2015-07-19 18:37:38 +0000";
layers = (
{
layerId = UUID0;
name = Regular;
paths = (
{
closed = 1;
nodes = (
"404 36 OFFCURVE",
"329 -10 OFFCURVE",
"229 -10 CURVE SMOOTH",
"149 -10 OFFCURVE",
"99 5 OFFCURVE",
"74 30 CURVE SMOOTH",
"49 55 OFFCURVE",
"49 84 OFFCURVE",
"49 135 CURVE",
"69 135 LINE",
"80 70 OFFCURVE",
"124 30 OFFCURVE",
"209 30 CURVE SMOOTH",
"285 30 OFFCURVE",
"319 60 OFFCURVE",
"319 100 CURVE SMOOTH",
"319 140 OFFCURVE",
"289 165 OFFCURVE",
"229 190 CURVE SMOOTH",
"169 215 LINE SMOOTH",
"93 246 OFFCURVE",
"49 285 OFFCURVE",
"49 350 CURVE SMOOTH",
"49 434 OFFCURVE",
"119 480 OFFCURVE",
"214 480 CURVE SMOOTH",
"290 480 OFFCURVE",
"339 465 OFFCURVE",
"364 440 CURVE SMOOTH",
"389 415 OFFCURVE",
"389 386 OFFCURVE",
"389 335 CURVE",
"369 335 LINE",
"358 400 OFFCURVE",
"314 440 OFFCURVE",
"234 440 CURVE SMOOTH",
"169 440 OFFCURVE",
"134 410 OFFCURVE",
"134 370 CURVE SMOOTH",
"134 335 OFFCURVE",
"163 306 OFFCURVE",
"214 285 CURVE SMOOTH",
"274 260 LINE SMOOTH",
"359 225 OFFCURVE",
"404 189 OFFCURVE",
"404 120 CURVE SMOOTH"
);
}
);
width = 446;
}
);
leftKerningGroup = s;
rightKerningGroup = s;
unicode = 0073;
},
{
glyphname = t;
lastChange = "2015-07-19 18:37:38 +0000";
layers = (
{
layerId = UUID0;
name = Regular;
paths = (
{
closed = 1;
nodes = (
"91 430 LINE",
"21 430 LINE",
"21 470 LINE",
"91 470 LINE",
"91 560 LINE",
"141 620 LINE",
"181 620 LINE",
"181 470 LINE",
"301 470 LINE",
"301 430 LINE",
"181 430 LINE",
"181 120 LINE SMOOTH",
"181 60 OFFCURVE",
"204 30 OFFCURVE",
"251 30 CURVE SMOOTH",
"286 30 OFFCURVE",
"306 39 OFFCURVE",
"326 50 CURVE",
"336 30 LINE",
"315 14 OFFCURVE",
"281 -10 OFFCURVE",
"211 -10 CURVE SMOOTH",
"140 -10 OFFCURVE",
"91 29 OFFCURVE",
"91 120 CURVE SMOOTH"
);
}
);
width = 338;
}
);
unicode = 0074;
},
{
glyphname = u;
lastChange = "2015-07-19 18:37:38 +0000";
layers = (
{
layerId = UUID0;
name = Regular;
paths = (
{
closed = 1;
nodes = (
"463 0 LINE",
"413 0 LINE",
"378 40 LINE",
"373 40 LINE",
"348 15 OFFCURVE",
"303 -10 OFFCURVE",
"243 -10 CURVE SMOOTH",
"158 -10 OFFCURVE",
"73 25 OFFCURVE",
"73 170 CURVE SMOOTH",
"73 350 LINE SMOOTH",
"73 410 OFFCURVE",
"63 450 OFFCURVE",
"3 450 CURVE SMOOTH",
"-7 450 LINE",
"-7 470 LINE",
"73 470 LINE SMOOTH",
"143 470 OFFCURVE",
"163 450 OFFCURVE",
"163 350 CURVE SMOOTH",
"163 170 LINE SMOOTH",
"163 70 OFFCURVE",
"218 35 OFFCURVE",
"273 35 CURVE SMOOTH",
"313 35 OFFCURVE",
"348 60 OFFCURVE",
"373 88 CURVE",
"373 470 LINE",
"463 470 LINE"
);
}
);
width = 535;
}
);
leftKerningGroup = u;
rightKerningGroup = q;
unicode = 0075;
},
{
glyphname = v;
lastChange = "2015-07-19 18:37:38 +0000";
layers = (
{
layerId = UUID0;
name = Regular;
paths = (
{
closed = 1;
nodes = (
"289 140 LINE",
"429 470 LINE",
"479 470 LINE",
"274 -10 LINE",
"254 -10 LINE",
"99 355 LINE SMOOTH",
"67 429 OFFCURVE",
"43 455 OFFCURVE",
"-5 458 CURVE",
"-5 478 LINE",
"0 478 OFFCURVE",
"20 480 OFFCURVE",
"29 480 CURVE SMOOTH",
"90 480 OFFCURVE",
"154 459 OFFCURVE",
"199 355 CURVE"
);
}
);
width = 497;
}
);
unicode = 0076;
},
{
glyphname = w;
lastChange = "2015-07-19 18:37:38 +0000";
layers = (
{
layerId = UUID0;
name = Regular;
paths = (
{
closed = 1;
nodes = (
"550 145 LINE",
"680 470 LINE",
"730 470 LINE",
"535 -10 LINE",
"515 -10 LINE",
"390 300 LINE",
"265 -10 LINE",
"245 -10 LINE",
"100 355 LINE",
"69 430 OFFCURVE",
"44 455 OFFCURVE",
"-5 458 CURVE",
"-5 478 LINE",
"0 478 OFFCURVE",
"21 480 OFFCURVE",
"30 480 CURVE SMOOTH",
"95 480 OFFCURVE",
"155 455 OFFCURVE",
"195 355 CURVE SMOOTH",
"280 145 LINE",
"365 360 LINE",
"334 429 OFFCURVE",
"310 455 OFFCURVE",
"265 458 CURVE",
"265 478 LINE",
"270 478 OFFCURVE",
"291 480 OFFCURVE",
"300 480 CURVE SMOOTH",
"365 480 OFFCURVE",
"425 455 OFFCURVE",
"465 355 CURVE SMOOTH"
);
}
);
width = 749;
}
);
unicode = 0077;
},
{
glyphname = x;
lastChange = "2015-07-19 18:37:38 +0000";
layers = (
{
layerId = UUID0;
name = Regular;
paths = (
{
closed = 1;
nodes = (
"218 185 LINE",
"88 0 LINE",
"38 0 LINE",
"198 225 LINE",
"111 370 LINE SMOOTH",
"83 418 OFFCURVE",
"49 445 OFFCURVE",
"8 450 CURVE",
"8 470 LINE",
"93 470 LINE SMOOTH",
"138 470 OFFCURVE",
"177 439 OFFCURVE",
"206 390 CURVE SMOOTH",
"268 285 LINE",
"398 470 LINE",
"448 470 LINE",
"288 245 LINE",
"375 100 LINE",
"403 51 OFFCURVE",
"439 25 OFFCURVE",
"483 20 CURVE",
"483 0 LINE",
"393 0 LINE SMOOTH",
"348 0 OFFCURVE",
"309 31 OFFCURVE",
"280 80 CURVE SMOOTH"
);
}
);
width = 488;
}
);
unicode = 0078;
},
{
glyphname = y;
lastChange = "2015-07-19 18:37:38 +0000";
layers = (
{
layerId = UUID0;
name = Regular;
paths = (
{
closed = 1;
nodes = (
"260 -10 LINE",
"100 380 LINE",
"80 431 OFFCURVE",
"41 455 OFFCURVE",
"-10 460 CURVE",
"-10 480 LINE",
"75 480 LINE SMOOTH",
"135 480 OFFCURVE",
"174 451 OFFCURVE",
"195 400 CURVE SMOOTH",
"309 123 LINE",
"435 470 LINE",
"485 470 LINE",
"290 -65 LINE SMOOTH",
"250 -175 OFFCURVE",
"205 -200 OFFCURVE",
"135 -200 CURVE SMOOTH",
"105 -200 LINE",
"105 -170 LINE",
"166 -170 OFFCURVE",
"208 -150 OFFCURVE",
"240 -65 CURVE SMOOTH"
);
}
);
width = 514;
}
);
leftKerningGroup = y;
rightKerningGroup = y;
unicode = 0079;
},
{
glyphname = z;
lastChange = "2015-07-19 18:37:38 +0000";
layers = (
{
layerId = UUID0;
name = Regular;
paths = (
{
closed = 1;
nodes = (
"434 470 LINE",
"164 40 LINE",
"434 40 LINE",
"434 0 LINE",
"44 0 LINE",
"44 19 LINE",
"304 430 LINE",
"189 430 LINE SMOOTH",
"104 430 OFFCURVE",
"64 396 OFFCURVE",
"64 340 CURVE",
"44 340 LINE",
"44 390 LINE SMOOTH",
"44 430 OFFCURVE",
"60 470 OFFCURVE",
"129 470 CURVE SMOOTH"
);
}
);
width = 466;
}
);
leftKerningGroup = z;
rightKerningGroup = z;
unicode = 007A;
},
{
glyphname = braceleft;
lastChange = "2015-07-19 18:37:38 +0000";
layers = (
{
layerId = UUID0;
name = Regular;
paths = (
{
closed = 1;
nodes = (
"11 255 LINE",
"86 266 OFFCURVE",
"111 314 OFFCURVE",
"111 370 CURVE SMOOTH",
"111 510 LINE SMOOTH",
"111 599 OFFCURVE",
"156 659 OFFCURVE",
"276 690 CURVE",
"276 660 LINE",
"207 639 OFFCURVE",
"191 611 OFFCURVE",
"191 550 CURVE SMOOTH",
"191 380 LINE SMOOTH",
"191 300 OFFCURVE",
"157 260 OFFCURVE",
"86 240 CURVE",
"157 220 OFFCURVE",
"191 180 OFFCURVE",
"191 100 CURVE SMOOTH",
"191 -70 LINE SMOOTH",
"191 -129 OFFCURVE",
"207 -161 OFFCURVE",
"276 -180 CURVE",
"276 -210 LINE",
"156 -181 OFFCURVE",
"111 -121 OFFCURVE",
"111 -30 CURVE SMOOTH",
"111 110 LINE SMOOTH",
"111 166 OFFCURVE",
"86 214 OFFCURVE",
"11 225 CURVE"
);
}
);
width = 304;
}
);
unicode = 007B;
},
{
glyphname = bar;
lastChange = "2015-07-19 18:37:38 +0000";
layers = (
{
layerId = UUID0;
name = Regular;
paths = (
{
closed = 1;
nodes = (
"165 680 LINE",
"165 -190 LINE",
"75 -190 LINE",
"75 680 LINE"
);
}
);
width = 240;
}
);
unicode = 007C;
},
{
glyphname = braceright;
lastChange = "2015-07-19 18:37:38 +0000";
layers = (
{
layerId = UUID0;
name = Regular;
paths = (
{
closed = 1;
nodes = (
"293 225 LINE",
"218 214 OFFCURVE",
"193 166 OFFCURVE",
"193 110 CURVE SMOOTH",
"193 -30 LINE SMOOTH",
"193 -121 OFFCURVE",
"148 -181 OFFCURVE",
"28 -210 CURVE",
"28 -180 LINE",
"97 -161 OFFCURVE",
"113 -129 OFFCURVE",
"113 -70 CURVE SMOOTH",
"113 100 LINE SMOOTH",
"113 180 OFFCURVE",
"147 220 OFFCURVE",
"218 240 CURVE",
"147 260 OFFCURVE",
"113 300 OFFCURVE",
"113 380 CURVE SMOOTH",
"113 550 LINE SMOOTH",
"113 611 OFFCURVE",
"97 639 OFFCURVE",
"28 660 CURVE",
"28 690 LINE",
"148 659 OFFCURVE",
"193 599 OFFCURVE",
"193 510 CURVE SMOOTH",
"193 370 LINE SMOOTH",
"193 314 OFFCURVE",
"218 266 OFFCURVE",
"293 255 CURVE"
);
}
);
width = 304;
}
);
unicode = 007D;
},
{
glyphname = asciitilde;
lastChange = "2015-07-19 18:37:38 +0000";
layers = (
{
layerId = UUID0;
name = Regular;
paths = (
{
closed = 1;
nodes = (
"349 180 OFFCURVE",
"261 260 OFFCURVE",
"180 260 CURVE SMOOTH",
"129 260 OFFCURVE",
"100 230 OFFCURVE",
"100 190 CURVE",
"60 190 LINE",
"60 290 OFFCURVE",
"120 330 OFFCURVE",
"180 330 CURVE SMOOTH",
"280 330 OFFCURVE",
"370 250 OFFCURVE",
"450 250 CURVE SMOOTH",
"501 250 OFFCURVE",
"530 280 OFFCURVE",
"530 320 CURVE",
"570 320 LINE",
"570 220 OFFCURVE",
"510 180 OFFCURVE",
"450 180 CURVE SMOOTH"
);
}
);
width = 629;
}
);
unicode = 007E;
},
{
glyphname = exclamdown;
lastChange = "2015-07-19 18:37:38 +0000";
layers = (
{
layerId = UUID0;
name = Regular;
paths = (
{
closed = 1;
nodes = (
"157 -194 LINE",
"63 -194 LINE",
"81 311 LINE",
"139 311 LINE"
);
},
{
closed = 1;
nodes = (
"81 372 OFFCURVE",
"56 396 OFFCURVE",
"56 425 CURVE SMOOTH",
"56 456 OFFCURVE",
"81 480 OFFCURVE",
"110 480 CURVE SMOOTH",
"139 480 OFFCURVE",
"164 456 OFFCURVE",
"164 425 CURVE SMOOTH",
"164 396 OFFCURVE",
"139 372 OFFCURVE",
"110 372 CURVE SMOOTH"
);
}
);
width = 220;
}
);
unicode = 00A1;
},
{
glyphname = cent;
lastChange = "2015-07-19 18:37:38 +0000";
layers = (
{
layerId = UUID0;
name = Regular;
paths = (
{
closed = 1;
nodes = (
"280 520 LINE",
"280 480 LINE",
"336 480 OFFCURVE",
"382 468 OFFCURVE",
"405 445 CURVE SMOOTH",
"430 420 OFFCURVE",
"430 390 OFFCURVE",
"430 315 CURVE",
"410 315 LINE",
"405 400 OFFCURVE",
"351 440 OFFCURVE",
"280 440 CURVE",
"280 30 LINE",
"351 30 OFFCURVE",
"390 59 OFFCURVE",
"425 110 CURVE",
"445 95 LINE",
"404 26 OFFCURVE",
"351 -5 OFFCURVE",
"280 -10 CURVE",
"280 -50 LINE",
"240 -50 LINE",
"240 -10 LINE",
"105 1 OFFCURVE",
"40 106 OFFCURVE",
"40 235 CURVE SMOOTH",
"40 364 OFFCURVE",
"105 469 OFFCURVE",
"240 480 CURVE",
"240 520 LINE"
);
},
{
closed = 1;
nodes = (
"135 137 OFFCURVE",
"170 54 OFFCURVE",
"240 35 CURVE",
"240 435 LINE",
"170 413 OFFCURVE",
"135 335 OFFCURVE",
"135 235 CURVE SMOOTH"
);
}
);
width = 483;
}
);
unicode = 00A2;
},
{
glyphname = sterling;
lastChange = "2015-07-19 18:37:38 +0000";
layers = (
{
layerId = UUID0;
name = Regular;
paths = (
{
closed = 1;
nodes = (
"117 460 LINE SMOOTH",
"117 640 OFFCURVE",
"201 670 OFFCURVE",
"292 670 CURVE SMOOTH",
"352 670 OFFCURVE",
"417 660 OFFCURVE",
"442 635 CURVE SMOOTH",
"467 610 OFFCURVE",
"467 580 OFFCURVE",
"467 545 CURVE",
"422 545 LINE",
"407 610 OFFCURVE",
"368 630 OFFCURVE",
"312 630 CURVE SMOOTH",
"252 630 OFFCURVE",
"207 600 OFFCURVE",
"207 460 CURVE SMOOTH",
"207 360 LINE",
"347 360 LINE",
"347 320 LINE",
"207 320 LINE",
"207 220 LINE SMOOTH",
"207 124 OFFCURVE",
"187 71 OFFCURVE",
"152 40 CURVE",
"337 40 LINE SMOOTH",
"417 40 OFFCURVE",
"462 75 OFFCURVE",
"462 155 CURVE",
"482 155 LINE",
"482 80 LINE SMOOTH",
"482 40 OFFCURVE",
"466 0 OFFCURVE",
"397 0 CURVE SMOOTH",
"32 0 LINE",
"32 25 LINE",
"87 41 OFFCURVE",
"117 89 OFFCURVE",
"117 220 CURVE SMOOTH",
"117 320 LINE",
"47 320 LINE",
"47 360 LINE",
"117 360 LINE"
);
}
);
width = 528;
}
);
unicode = 00A3;
},
{
glyphname = currency;
lastChange = "2015-07-19 18:37:38 +0000";
layers = (
{
layerId = UUID0;
name = Regular;
paths = (
{
closed = 1;
nodes = (
"294 330 LINE",
"377 333 OFFCURVE",
"444 376 OFFCURVE",
"444 480 CURVE SMOOTH",
"444 580 OFFCURVE",
"373 625 OFFCURVE",
"289 625 CURVE SMOOTH",
"264 625 OFFCURVE",
"234 620 OFFCURVE",
"214 615 CURVE",
"214 330 LINE"
);
},
{
closed = 1;
nodes = (
"474 200 LINE",
"214 200 LINE",
"214 0 LINE",
"124 0 LINE",
"124 200 LINE",
"64 200 LINE",
"64 240 LINE",
"124 240 LINE",
"124 290 LINE",
"64 290 LINE",
"64 330 LINE",
"124 330 LINE",
"124 540 LINE SMOOTH",
"124 600 OFFCURVE",
"114 640 OFFCURVE",
"54 640 CURVE SMOOTH",
"34 640 LINE",
"34 660 LINE",
"294 660 LINE SMOOTH",
"424 660 OFFCURVE",
"544 616 OFFCURVE",
"544 480 CURVE SMOOTH",
"544 336 OFFCURVE",
"424 290 OFFCURVE",
"294 290 CURVE SMOOTH",
"214 290 LINE",
"214 240 LINE",
"474 240 LINE"
);
}
);
width = 576;
}
);
unicode = 00A4;
},
{
glyphname = yen;
lastChange = "2015-07-19 18:37:38 +0000";
layers = (
{
layerId = UUID0;
name = Regular;
paths = (
{
closed = 1;
nodes = (
"409 325 LINE",
"618 660 LINE",
"663 660 LINE",
"429 280 LINE",
"429 265 LINE",
"524 265 LINE",
"524 225 LINE",
"429 225 LINE",
"429 185 LINE",
"524 185 LINE",
"524 145 LINE",
"429 145 LINE",
"429 0 LINE",
"339 0 LINE",
"339 145 LINE",
"244 145 LINE",
"244 185 LINE",
"339 185 LINE",
"339 225 LINE",
"244 225 LINE",
"244 265 LINE",
"339 265 LINE",
"339 273 LINE",
"169 530 LINE",
"128 589 OFFCURVE",
"95 635 OFFCURVE",
"24 640 CURVE",
"24 660 LINE",
"114 660 LINE SMOOTH",
"188 660 OFFCURVE",
"230 605 OFFCURVE",
"264 550 CURVE"
);
}
);
width = 687;
}
);
unicode = 00A5;
},
{
glyphname = brokenbar;
lastChange = "2015-07-19 18:37:38 +0000";
layers = (
{
layerId = UUID0;
name = Regular;
paths = (
{
closed = 1;
nodes = (
"168 680 LINE",
"168 330 LINE",
"78 330 LINE",
"78 680 LINE"
);
},
{
closed = 1;
nodes = (
"168 160 LINE",
"168 -190 LINE",
"78 -190 LINE",
"78 160 LINE"
);
}
);
width = 246;
}
);
unicode = 00A6;
},
{
glyphname = section;
lastChange = "2015-07-19 18:37:38 +0000";
layers = (
{
layerId = UUID0;
name = Regular;
paths = (
{
closed = 1;
nodes = (
"151 401 OFFCURVE",
"381 399 OFFCURVE",
"381 245 CURVE SMOOTH",
"381 168 OFFCURVE",
"342 125 OFFCURVE",
"275 100 CURVE",
"326 65 OFFCURVE",
"366 19 OFFCURVE",
"366 -50 CURVE SMOOTH",
"366 -155 OFFCURVE",
"295 -200 OFFCURVE",
"211 -200 CURVE SMOOTH",
"155 -200 OFFCURVE",
"106 -185 OFFCURVE",
"81 -160 CURVE SMOOTH",
"56 -135 OFFCURVE",
"56 -106 OFFCURVE",
"56 -55 CURVE",
"76 -55 LINE",
"87 -120 OFFCURVE",
"125 -160 OFFCURVE",
"181 -160 CURVE SMOOTH",
"241 -160 OFFCURVE",
"281 -130 OFFCURVE",
"281 -70 CURVE SMOOTH",
"281 69 OFFCURVE",
"51 71 OFFCURVE",
"51 225 CURVE SMOOTH",
"51 301 OFFCURVE",
"91 345 OFFCURVE",
"156 370 CURVE",
"105 403 OFFCURVE",
"66 451 OFFCURVE",
"66 520 CURVE SMOOTH",
"66 625 OFFCURVE",
"137 670 OFFCURVE",
"221 670 CURVE SMOOTH",
"277 670 OFFCURVE",
"326 655 OFFCURVE",
"351 630 CURVE SMOOTH",
"376 605 OFFCURVE",
"376 576 OFFCURVE",
"376 525 CURVE",
"356 525 LINE",
"345 590 OFFCURVE",
"307 630 OFFCURVE",
"251 630 CURVE SMOOTH",
"191 630 OFFCURVE",
"151 600 OFFCURVE",
"151 540 CURVE SMOOTH"
);
},
{
closed = 1;
nodes = (
"156 335 OFFCURVE",
"126 311 OFFCURVE",
"126 255 CURVE SMOOTH",
"126 199 OFFCURVE",
"170 160 OFFCURVE",
"237 123 CURVE",
"276 135 OFFCURVE",
"306 159 OFFCURVE",
"306 215 CURVE SMOOTH",
"306 271 OFFCURVE",
"262 310 OFFCURVE",
"195 347 CURVE"
);
}
);
width = 432;
}
);
unicode = 00A7;
},
{
glyphname = dieresis;
lastChange = "2015-07-19 18:37:38 +0000";
layers = (
{
layerId = UUID0;
name = Regular;
paths = (
{
closed = 1;
nodes = (
"290 709 OFFCURVE",
"271 690 OFFCURVE",
"240 690 CURVE SMOOTH",
"209 690 OFFCURVE",
"190 709 OFFCURVE",
"190 740 CURVE SMOOTH",
"190 771 OFFCURVE",
"209 790 OFFCURVE",
"240 790 CURVE SMOOTH",
"271 790 OFFCURVE",
"290 771 OFFCURVE",
"290 740 CURVE SMOOTH"
);
},
{
closed = 1;
nodes = (
"120 709 OFFCURVE",
"101 690 OFFCURVE",
"70 690 CURVE SMOOTH",
"39 690 OFFCURVE",
"20 709 OFFCURVE",
"20 740 CURVE SMOOTH",
"20 771 OFFCURVE",
"39 790 OFFCURVE",
"70 790 CURVE SMOOTH",
"101 790 OFFCURVE",
"120 771 OFFCURVE",
"120 740 CURVE SMOOTH"
);
}
);
width = 310;
}
);
unicode = 00A8;
},
{
glyphname = copyright;
lastChange = "2015-07-19 18:37:38 +0000";
layers = (
{
layerId = UUID0;
name = Regular;
paths = (
{
closed = 1;
nodes = (
"600 685 OFFCURVE",
"750 535 OFFCURVE",
"750 330 CURVE SMOOTH",
"750 125 OFFCURVE",
"600 -25 OFFCURVE",
"395 -25 CURVE SMOOTH",
"190 -25 OFFCURVE",
"40 125 OFFCURVE",
"40 330 CURVE SMOOTH",
"40 535 OFFCURVE",
"190 685 OFFCURVE",
"395 685 CURVE SMOOTH"
);
},
{
closed = 1;
nodes = (
"580 15 OFFCURVE",
"710 145 OFFCURVE",
"710 330 CURVE SMOOTH",
"710 515 OFFCURVE",
"580 645 OFFCURVE",
"395 645 CURVE SMOOTH",
"210 645 OFFCURVE",
"80 515 OFFCURVE",
"80 330 CURVE SMOOTH",
"80 145 OFFCURVE",
"210 15 OFFCURVE",
"395 15 CURVE SMOOTH"
);
},
{
closed = 1;
nodes = (
"548 412 LINE",
"532 497 OFFCURVE",
"487 536 OFFCURVE",
"415 536 CURVE SMOOTH",
"331 536 OFFCURVE",
"259 484 OFFCURVE",
"259 327 CURVE SMOOTH",
"259 228 OFFCURVE",
"306 132 OFFCURVE",
"415 132 CURVE SMOOTH",
"480 132 OFFCURVE",
"525 163 OFFCURVE",
"561 223 CURVE",
"574 213 LINE",
"531 132 OFFCURVE",
"474 105 OFFCURVE",
"395 105 CURVE SMOOTH",
"272 105 OFFCURVE",
"195 202 OFFCURVE",
"195 327 CURVE SMOOTH",
"195 458 OFFCURVE",
"286 562 OFFCURVE",
"395 562 CURVE SMOOTH",
"467 562 OFFCURVE",
"521 538 OFFCURVE",
"544 510 CURVE SMOOTH",
"561 490 OFFCURVE",
"561 451 OFFCURVE",
"561 412 CURVE"
);
}
);
width = 790;
}
);
unicode = 00A9;
},
{
glyphname = ordfeminine;
lastChange = "2015-07-19 18:37:38 +0000";
layers = (
{
layerId = UUID0;
name = Regular;
paths = (
{
closed = 1;
nodes = (
"205 525 LINE",
"189 525 LINE SMOOTH",
"134 525 OFFCURVE",
"103 499 OFFCURVE",
"103 466 CURVE SMOOTH",
"103 431 OFFCURVE",
"122 418 OFFCURVE",
"149 418 CURVE SMOOTH",
"176 418 OFFCURVE",
"194 437 OFFCURVE",
"205 453 CURVE"
);
},
{
closed = 1;
nodes = (
"227 401 LINE",
"208 426 LINE",
"205 426 LINE",
"194 411 OFFCURVE",
"170 396 OFFCURVE",
"130 396 CURVE SMOOTH",
"100 396 OFFCURVE",
"51 406 OFFCURVE",
"51 466 CURVE SMOOTH",
"51 526 OFFCURVE",
"117 547 OFFCURVE",
"189 547 CURVE SMOOTH",
"205 547 LINE",
"205 623 OFFCURVE",
"180 638 OFFCURVE",
"149 638 CURVE SMOOTH",
"118 638 OFFCURVE",
"98 628 OFFCURVE",
"90 593 CURVE",
"65 593 LINE",
"65 612 OFFCURVE",
"64 626 OFFCURVE",
"79 641 CURVE",
"92 656 OFFCURVE",
"127 660 OFFCURVE",
"159 660 CURVE SMOOTH",
"208 660 OFFCURVE",
"257 644 OFFCURVE",
"257 547 CURVE SMOOTH",
"257 401 LINE"
);
}
);
width = 321;
}
);
unicode = 00AA;
},
{
glyphname = guillemotleft;
lastChange = "2015-07-19 18:37:38 +0000";
layers = (
{
layerId = UUID0;
name = Regular;
paths = (
{
closed = 1;
nodes = (
"275 370 LINE",
"315 370 LINE",
"255 225 LINE",
"315 80 LINE",
"275 80 LINE",
"175 225 LINE"
);
},
{
closed = 1;
nodes = (
"135 225 LINE",
"230 30 LINE",
"190 30 LINE",
"35 225 LINE",
"190 420 LINE",
"230 420 LINE"
);
}
);
width = 372;
}
);
leftKerningGroup = guilsinglleft;
unicode = 00AB;
},
{
glyphname = logicalnot;
lastChange = "2015-07-19 18:37:38 +0000";
layers = (
{
layerId = UUID0;
name = Regular;
paths = (
{
closed = 1;
nodes = (
"528 230 LINE",
"68 230 LINE",
"68 290 LINE",
"588 290 LINE",
"588 130 LINE",
"528 130 LINE"
);
}
);
width = 654;
}
);
unicode = 00AC;
},
{
glyphname = registered;
lastChange = "2015-07-19 18:37:38 +0000";
layers = (
{
layerId = UUID0;
name = Regular;
paths = (
{
closed = 1;
nodes = (
"600 685 OFFCURVE",
"750 535 OFFCURVE",
"750 330 CURVE SMOOTH",
"750 125 OFFCURVE",
"600 -25 OFFCURVE",
"395 -25 CURVE SMOOTH",
"190 -25 OFFCURVE",
"40 125 OFFCURVE",
"40 330 CURVE SMOOTH",
"40 535 OFFCURVE",
"190 685 OFFCURVE",
"395 685 CURVE SMOOTH"
);
},
{
closed = 1;
nodes = (
"580 15 OFFCURVE",
"710 145 OFFCURVE",
"710 330 CURVE SMOOTH",
"710 515 OFFCURVE",
"580 645 OFFCURVE",
"395 645 CURVE SMOOTH",
"210 645 OFFCURVE",
"80 515 OFFCURVE",
"80 330 CURVE SMOOTH",
"80 145 OFFCURVE",
"210 15 OFFCURVE",
"395 15 CURVE SMOOTH"
);
},
{
closed = 1;
nodes = (
"412 345 OFFCURVE",
"476 371 OFFCURVE",
"476 438 CURVE SMOOTH",
"476 505 OFFCURVE",
"412 530 OFFCURVE",
"376 530 CURVE SMOOTH",
"360 530 OFFCURVE",
"340 526 OFFCURVE",
"327 523 CURVE",
"327 352 LINE",
"340 349 OFFCURVE",
"360 345 OFFCURVE",
"376 345 CURVE SMOOTH"
);
},
{
closed = 1;
nodes = (
"375 323 LINE",
"327 323 LINE",
"327 125 LINE",
"269 125 LINE",
"269 474 LINE SMOOTH",
"269 513 OFFCURVE",
"263 539 OFFCURVE",
"224 539 CURVE SMOOTH",
"211 539 LINE",
"211 552 LINE",
"379 552 LINE SMOOTH",
"434 552 OFFCURVE",
"541 539 OFFCURVE",
"541 434 CURVE SMOOTH",
"541 362 OFFCURVE",
"484 335 OFFCURVE",
"438 327 CURVE",
"510 211 LINE SMOOTH",
"543 158 OFFCURVE",
"563 141 OFFCURVE",
"595 137 CURVE",
"595 125 LINE",
"588 120 OFFCURVE",
"574 118 OFFCURVE",
"553 118 CURVE SMOOTH",
"511 118 OFFCURVE",
"485 141 OFFCURVE",
"442 211 CURVE SMOOTH"
);
}
);
width = 790;
}
);
unicode = 00AE;
},
{
glyphname = degree;
lastChange = "2015-07-19 18:37:38 +0000";
layers = (
{
layerId = UUID0;
name = Regular;
paths = (
{
closed = 1;
nodes = (
"151 625 OFFCURVE",
"106 580 OFFCURVE",
"106 520 CURVE SMOOTH",
"106 460 OFFCURVE",
"151 415 OFFCURVE",
"206 415 CURVE SMOOTH",
"261 415 OFFCURVE",
"306 460 OFFCURVE",
"306 520 CURVE SMOOTH",
"306 580 OFFCURVE",
"261 625 OFFCURVE",
"206 625 CURVE SMOOTH"
);
},
{
closed = 1;
nodes = (
"296 680 OFFCURVE",
"366 610 OFFCURVE",
"366 520 CURVE SMOOTH",
"366 430 OFFCURVE",
"296 360 OFFCURVE",
"206 360 CURVE SMOOTH",
"116 360 OFFCURVE",
"46 430 OFFCURVE",
"46 520 CURVE SMOOTH",
"46 610 OFFCURVE",
"116 680 OFFCURVE",
"206 680 CURVE SMOOTH"
);
}
);
width = 412;
}
);
unicode = 00B0;
},
{
glyphname = plusminus;
lastChange = "2015-07-19 18:37:38 +0000";
layers = (
{
layerId = UUID0;
name = Regular;
paths = (
{
closed = 1;
nodes = (
"57 60 LINE",
"57 120 LINE",
"257 120 LINE",
"257 300 LINE",
"57 300 LINE",
"57 360 LINE",
"257 360 LINE",
"257 560 LINE",
"317 560 LINE",
"317 360 LINE",
"517 360 LINE",
"517 300 LINE",
"317 300 LINE",
"317 120 LINE",
"517 120 LINE",
"517 60 LINE"
);
}
);
width = 574;
}
);
unicode = 00B1;
},
{
glyphname = twosuperior;
lastChange = "2015-07-19 18:37:38 +0000";
layers = (
{
layerId = UUID0;
name = Regular;
paths = (
{
closed = 1;
nodes = (
"192 399 LINE SMOOTH",
"229 399 OFFCURVE",
"249 411 OFFCURVE",
"249 443 CURVE",
"261 443 LINE",
"261 413 LINE SMOOTH",
"261 394 OFFCURVE",
"254 377 OFFCURVE",
"222 377 CURVE SMOOTH",
"61 377 LINE",
"61 400 LINE",
"157 494 OFFCURVE",
"205 533 OFFCURVE",
"205 602 CURVE SMOOTH",
"205 649 OFFCURVE",
"181 667 OFFCURVE",
"150 667 CURVE SMOOTH",
"113 667 OFFCURVE",
"86 644 OFFCURVE",
"77 593 CURVE",
"65 593 LINE",
"65 616 OFFCURVE",
"65 638 OFFCURVE",
"76 653 CURVE",
"93 673 OFFCURVE",
"127 689 OFFCURVE",
"163 689 CURVE SMOOTH",
"200 689 OFFCURVE",
"257 677 OFFCURVE",
"257 602 CURVE SMOOTH",
"257 523 OFFCURVE",
"184 480 OFFCURVE",
"101 399 CURVE"
);
}
);
width = 321;
}
);
unicode = 00B2;
},
{
glyphname = threesuperior;
lastChange = "2015-07-19 18:37:38 +0000";
layers = (
{
layerId = UUID0;
name = Regular;
paths = (
{
closed = 1;
nodes = (
"121 547 LINE",
"137 551 OFFCURVE",
"155 551 OFFCURVE",
"162 551 CURVE SMOOTH",
"203 551 OFFCURVE",
"263 530 OFFCURVE",
"263 462 CURVE SMOOTH",
"263 381 OFFCURVE",
"189 367 OFFCURVE",
"151 367 CURVE SMOOTH",
"104 367 OFFCURVE",
"78 385 OFFCURVE",
"53 416 CURVE",
"63 425 LINE",
"85 401 OFFCURVE",
"113 389 OFFCURVE",
"147 389 CURVE SMOOTH",
"183 389 OFFCURVE",
"211 413 OFFCURVE",
"211 462 CURVE SMOOTH",
"211 510 OFFCURVE",
"180 529 OFFCURVE",
"153 529 CURVE SMOOTH",
"138 529 OFFCURVE",
"119 528 OFFCURVE",
"100 523 CURVE",
"86 547 LINE",
"209 658 LINE",
"125 658 LINE SMOOTH",
"89 658 OFFCURVE",
"68 646 OFFCURVE",
"68 613 CURVE",
"59 613 LINE",
"59 643 LINE SMOOTH",
"59 662 OFFCURVE",
"66 680 OFFCURVE",
"98 680 CURVE SMOOTH",
"249 680 LINE",
"249 662 LINE"
);
}
);
width = 311;
}
);
unicode = 00B3;
},
{
glyphname = acute;
lastChange = "2015-07-19 18:37:38 +0000";
layers = (
{
layerId = UUID0;
name = Regular;
paths = (
{
closed = 1;
nodes = (
"60 700 LINE",
"20 700 LINE",
"60 830 LINE",
"155 830 LINE"
);
}
);
width = 175;
}
);
unicode = 00B4;
},
{
glyphname = mu;
lastChange = "2015-07-19 18:37:38 +0000";
layers = (
{
layerId = UUID0;
name = Regular;
paths = (
{
closed = 1;
nodes = (
"74 -190 LINE",
"74 470 LINE",
"164 470 LINE",
"164 235 LINE SMOOTH",
"164 120 OFFCURVE",
"199 30 OFFCURVE",
"279 30 CURVE SMOOTH",
"334 30 OFFCURVE",
"364 59 OFFCURVE",
"384 90 CURVE",
"384 470 LINE",
"474 470 LINE",
"474 0 LINE",
"424 0 LINE",
"389 45 LINE",
"384 45 LINE",
"362 21 OFFCURVE",
"335 -10 OFFCURVE",
"269 -10 CURVE SMOOTH",
"229 -10 OFFCURVE",
"194 5 OFFCURVE",
"164 35 CURVE",
"164 -190 LINE"
);
}
);
width = 529;
}
);
unicode = 00B5;
},
{
glyphname = paragraph;
lastChange = "2015-07-19 18:37:38 +0000";
layers = (
{
layerId = UUID0;
name = Regular;
paths = (
{
closed = 1;
nodes = (
"258 290 LINE",
"127 290 OFFCURVE",
"28 359 OFFCURVE",
"28 475 CURVE SMOOTH",
"28 591 OFFCURVE",
"127 660 OFFCURVE",
"258 660 CURVE SMOOTH",
"558 660 LINE",
"558 620 LINE",
"503 620 LINE",
"503 -190 LINE",
"413 -190 LINE",
"413 620 LINE",
"348 620 LINE",
"348 -190 LINE",
"258 -190 LINE"
);
}
);
width = 601;
}
);
unicode = 00B6;
},
{
glyphname = periodcentered;
lastChange = "2015-07-19 18:37:38 +0000";
layers = (
{
layerId = UUID0;
name = Regular;
paths = (
{
closed = 1;
nodes = (
"146 385 OFFCURVE",
"169 360 OFFCURVE",
"169 331 CURVE SMOOTH",
"169 300 OFFCURVE",
"144 276 OFFCURVE",
"115 276 CURVE SMOOTH",
"86 276 OFFCURVE",
"61 300 OFFCURVE",
"61 331 CURVE SMOOTH",
"61 360 OFFCURVE",
"86 385 OFFCURVE",
"115 385 CURVE SMOOTH"
);
}
);
width = 230;
}
);
unicode = 00B7;
},
{
glyphname = cedilla;
lastChange = "2015-07-19 18:37:38 +0000";
layers = (
{
layerId = UUID0;
name = Regular;
paths = (
{
closed = 1;
nodes = (
"90 0 LINE",
"90 -50 LINE",
"100 -50 LINE SMOOTH",
"145 -50 OFFCURVE",
"180 -75 OFFCURVE",
"180 -123 CURVE SMOOTH",
"180 -170 OFFCURVE",
"145 -196 OFFCURVE",
"100 -196 CURVE SMOOTH",
"40 -196 LINE",
"40 -155 LINE",
"90 -155 LINE SMOOTH",
"117 -155 OFFCURVE",
"130 -144 OFFCURVE",
"130 -123 CURVE SMOOTH",
"130 -101 OFFCURVE",
"117 -90 OFFCURVE",
"90 -90 CURVE SMOOTH",
"45 -90 LINE",
"45 0 LINE"
);
}
);
width = 180;
}
);
unicode = 00B8;
},
{
glyphname = onesuperior;
lastChange = "2015-07-19 18:37:38 +0000";
layers = (
{
layerId = UUID0;
name = Regular;
paths = (
{
closed = 1;
nodes = (
"142 377 LINE",
"90 377 LINE",
"90 624 LINE",
"49 600 LINE",
"38 616 LINE",
"103 680 LINE",
"142 680 LINE"
);
}
);
width = 212;
}
);
unicode = 00B9;
},
{
glyphname = ordmasculine;
lastChange = "2015-07-19 18:37:38 +0000";
layers = (
{
layerId = UUID0;
name = Regular;
paths = (
{
closed = 1;
nodes = (
"127 667 OFFCURVE",
"104 625 OFFCURVE",
"104 528 CURVE SMOOTH",
"104 432 OFFCURVE",
"127 389 OFFCURVE",
"167 389 CURVE SMOOTH",
"210 389 OFFCURVE",
"231 432 OFFCURVE",
"231 528 CURVE SMOOTH",
"231 625 OFFCURVE",
"208 667 OFFCURVE",
"167 667 CURVE SMOOTH"
);
},
{
closed = 1;
nodes = (
"247 689 OFFCURVE",
"283 625 OFFCURVE",
"283 528 CURVE SMOOTH",
"283 432 OFFCURVE",
"247 367 OFFCURVE",
"167 367 CURVE SMOOTH",
"87 367 OFFCURVE",
"52 432 OFFCURVE",
"52 528 CURVE SMOOTH",
"52 625 OFFCURVE",
"87 689 OFFCURVE",
"167 689 CURVE SMOOTH"
);
}
);
width = 335;
}
);
unicode = 00BA;
},
{
glyphname = guillemotright;
lastChange = "2015-07-19 18:37:38 +0000";
layers = (
{
layerId = UUID0;
name = Regular;
paths = (
{
closed = 1;
nodes = (
"197 225 LINE",
"97 80 LINE",
"57 80 LINE",
"117 225 LINE",
"57 370 LINE",
"97 370 LINE"
);
},
{
closed = 1;
nodes = (
"142 420 LINE",
"182 420 LINE",
"337 225 LINE",
"182 30 LINE",
"142 30 LINE",
"237 225 LINE"
);
}
);
width = 372;
}
);
leftKerningGroup = guilsinglright;
rightKerningGroup = guilsinglright;
unicode = 00BB;
},
{
glyphname = onequarter;
lastChange = "2015-07-19 18:37:38 +0000";
layers = (
{
layerId = UUID0;
name = Regular;
paths = (
{
closed = 1;
nodes = (
"29 0 LINE",
"484 660 LINE",
"549 660 LINE",
"94 0 LINE"
);
},
{
closed = 1;
nodes = (
"158 377 LINE",
"106 377 LINE",
"106 624 LINE",
"65 600 LINE",
"54 616 LINE",
"119 680 LINE",
"158 680 LINE"
);
},
{
closed = 1;
nodes = (
"512 100 LINE",
"553 100 LINE",
"553 78 LINE",
"512 78 LINE",
"512 0 LINE",
"460 0 LINE",
"460 78 LINE",
"308 78 LINE",
"308 97 LINE",
"465 304 LINE",
"512 304 LINE"
);
},
{
closed = 1;
nodes = (
"460 100 LINE",
"460 255 LINE",
"342 100 LINE"
);
}
);
width = 596;
}
);
unicode = 00BC;
},
{
glyphname = onehalf;
lastChange = "2015-07-19 18:37:38 +0000";
layers = (
{
layerId = UUID0;
name = Regular;
paths = (
{
closed = 1;
nodes = (
"29 0 LINE",
"484 660 LINE",
"549 660 LINE",
"94 0 LINE"
);
},
{
closed = 1;
nodes = (
"158 377 LINE",
"106 377 LINE",
"106 624 LINE",
"65 600 LINE",
"54 616 LINE",
"119 680 LINE",
"158 680 LINE"
);
},
{
closed = 1;
nodes = (
"494 22 LINE SMOOTH",
"531 22 OFFCURVE",
"551 34 OFFCURVE",
"551 66 CURVE",
"563 66 LINE",
"563 36 LINE SMOOTH",
"563 17 OFFCURVE",
"556 0 OFFCURVE",
"524 0 CURVE SMOOTH",
"363 0 LINE",
"363 23 LINE",
"459 117 OFFCURVE",
"507 156 OFFCURVE",
"507 225 CURVE SMOOTH",
"507 272 OFFCURVE",
"483 290 OFFCURVE",
"452 290 CURVE SMOOTH",
"415 290 OFFCURVE",
"388 267 OFFCURVE",
"379 216 CURVE",
"367 216 LINE",
"367 239 OFFCURVE",
"367 261 OFFCURVE",
"378 276 CURVE",
"395 296 OFFCURVE",
"429 312 OFFCURVE",
"465 312 CURVE SMOOTH",
"502 312 OFFCURVE",
"559 300 OFFCURVE",
"559 225 CURVE SMOOTH",
"559 146 OFFCURVE",
"486 103 OFFCURVE",
"403 22 CURVE"
);
}
);
width = 613;
}
);
unicode = 00BD;
},
{
glyphname = threequarters;
lastChange = "2015-07-19 18:37:38 +0000";
layers = (
{
layerId = UUID0;
name = Regular;
paths = (
{
closed = 1;
nodes = (
"58 0 LINE",
"513 660 LINE",
"578 660 LINE",
"123 0 LINE"
);
},
{
closed = 1;
nodes = (
"530 100 LINE",
"571 100 LINE",
"571 78 LINE",
"530 78 LINE",
"530 0 LINE",
"478 0 LINE",
"478 78 LINE",
"326 78 LINE",
"326 97 LINE",
"483 304 LINE",
"530 304 LINE"
);
},
{
closed = 1;
nodes = (
"478 100 LINE",
"478 255 LINE",
"360 100 LINE"
);
},
{
closed = 1;
nodes = (
"110 547 LINE",
"126 551 OFFCURVE",
"144 551 OFFCURVE",
"151 551 CURVE SMOOTH",
"192 551 OFFCURVE",
"252 530 OFFCURVE",
"252 462 CURVE SMOOTH",
"252 381 OFFCURVE",
"178 367 OFFCURVE",
"140 367 CURVE SMOOTH",
"93 367 OFFCURVE",
"67 385 OFFCURVE",
"42 416 CURVE",
"52 425 LINE",
"74 401 OFFCURVE",
"102 389 OFFCURVE",
"136 389 CURVE SMOOTH",
"172 389 OFFCURVE",
"200 413 OFFCURVE",
"200 462 CURVE SMOOTH",
"200 510 OFFCURVE",
"169 529 OFFCURVE",
"142 529 CURVE SMOOTH",
"127 529 OFFCURVE",
"108 528 OFFCURVE",
"89 523 CURVE",
"75 547 LINE",
"198 658 LINE",
"114 658 LINE SMOOTH",
"78 658 OFFCURVE",
"57 646 OFFCURVE",
"57 613 CURVE",
"48 613 LINE",
"48 643 LINE SMOOTH",
"48 662 OFFCURVE",
"55 680 OFFCURVE",
"87 680 CURVE SMOOTH",
"238 680 LINE",
"238 662 LINE"
);
}
);
width = 614;
}
);
unicode = 00BE;
},
{
glyphname = questiondown;
lastChange = "2015-07-19 18:37:38 +0000";
layers = (
{
layerId = UUID0;
name = Regular;
paths = (
{
closed = 1;
nodes = (
"228 372 OFFCURVE",
"204 396 OFFCURVE",
"204 427 CURVE SMOOTH",
"204 456 OFFCURVE",
"230 481 OFFCURVE",
"259 481 CURVE SMOOTH",
"290 481 OFFCURVE",
"313 456 OFFCURVE",
"313 427 CURVE SMOOTH",
"313 396 OFFCURVE",
"290 372 OFFCURVE",
"259 372 CURVE SMOOTH"
);
},
{
closed = 1;
nodes = (
"279 312 LINE",
"275 148 OFFCURVE",
"129 127 OFFCURVE",
"129 -22 CURVE SMOOTH",
"129 -122 OFFCURVE",
"190 -172 OFFCURVE",
"259 -172 CURVE SMOOTH",
"339 -172 OFFCURVE",
"405 -113 OFFCURVE",
"425 -2 CURVE",
"445 -2 LINE",
"445 -53 OFFCURVE",
"445 -101 OFFCURVE",
"420 -132 CURVE SMOOTH",
"384 -176 OFFCURVE",
"309 -212 OFFCURVE",
"229 -212 CURVE SMOOTH",
"149 -212 OFFCURVE",
"29 -182 OFFCURVE",
"29 -22 CURVE SMOOTH",
"29 147 OFFCURVE",
"235 179 OFFCURVE",
"239 312 CURVE"
);
}
);
width = 473;
}
);
unicode = 00BF;
},
{
glyphname = Aring;
lastChange = "2015-07-19 18:37:38 +0000";
layers = (
{
layerId = UUID0;
name = Regular;
paths = (
{
closed = 1;
nodes = (
"232 750 OFFCURVE",
"272 790 OFFCURVE",
"317 790 CURVE SMOOTH",
"362 790 OFFCURVE",
"402 750 OFFCURVE",
"402 705 CURVE SMOOTH",
"402 660 OFFCURVE",
"372 636 OFFCURVE",
"347 625 CURVE",
"552 125 LINE",
"584 50 OFFCURVE",
"606 25 OFFCURVE",
"662 20 CURVE",
"662 0 LINE",
"651 -3 OFFCURVE",
"637 -5 OFFCURVE",
"622 -5 CURVE SMOOTH",
"577 -5 OFFCURVE",
"495 9 OFFCURVE",
"452 125 CURVE SMOOTH",
"427 190 LINE",
"147 190 LINE",
"67 0 LINE",
"22 0 LINE",
"287 625 LINE",
"262 636 OFFCURVE",
"232 660 OFFCURVE",
"232 705 CURVE SMOOTH"
);
},
{
closed = 1;
nodes = (
"162 230 LINE",
"407 230 LINE",
"287 520 LINE"
);
},
{
closed = 1;
nodes = (
"272 685 OFFCURVE",
"282 671 OFFCURVE",
"297 660 CURVE",
"337 660 LINE",
"352 671 OFFCURVE",
"362 685 OFFCURVE",
"362 705 CURVE SMOOTH",
"362 736 OFFCURVE",
"342 755 OFFCURVE",
"317 755 CURVE SMOOTH",
"292 755 OFFCURVE",
"272 736 OFFCURVE",
"272 705 CURVE SMOOTH"
);
}
);
width = 636;
}
);
leftKerningGroup = A;
rightKerningGroup = A;
unicode = 00C5;
},
{
glyphname = AE;
lastChange = "2015-07-19 18:37:38 +0000";
layers = (
{
layerId = UUID0;
name = Regular;
paths = (
{
closed = 1;
nodes = (
"717 660 LINE SMOOTH",
"786 660 OFFCURVE",
"802 620 OFFCURVE",
"802 580 CURVE SMOOTH",
"802 505 LINE",
"782 505 LINE",
"782 585 OFFCURVE",
"737 620 OFFCURVE",
"657 620 CURVE SMOOTH",
"471 620 LINE",
"471 360 LINE",
"741 360 LINE",
"741 320 LINE",
"471 320 LINE",
"471 40 LINE",
"646 40 LINE SMOOTH",
"737 40 OFFCURVE",
"785 70 OFFCURVE",
"816 150 CURVE",
"836 145 LINE",
"801 50 LINE SMOOTH",
"790 19 OFFCURVE",
"766 0 OFFCURVE",
"726 0 CURVE SMOOTH",
"381 0 LINE",
"381 190 LINE",
"141 190 LINE",
"36 0 LINE",
"-14 0 LINE",
"356 660 LINE"
);
},
{
closed = 1;
nodes = (
"166 230 LINE",
"381 230 LINE",
"381 615 LINE"
);
}
);
width = 865;
}
);
rightKerningGroup = E;
unicode = 00C6;
},
{
glyphname = Ccedilla;
lastChange = "2015-07-19 18:37:38 +0000";
layers = (
{
layerId = UUID0;
name = Regular;
paths = (
{
closed = 1;
nodes = (
"324 -196 LINE",
"324 -155 LINE",
"374 -155 LINE SMOOTH",
"401 -155 OFFCURVE",
"414 -144 OFFCURVE",
"414 -123 CURVE SMOOTH",
"414 -101 OFFCURVE",
"401 -90 OFFCURVE",
"374 -90 CURVE SMOOTH",
"329 -90 LINE",
"329 -20 LINE",
"154 -9 OFFCURVE",
"44 136 OFFCURVE",
"44 320 CURVE SMOOTH",
"44 520 OFFCURVE",
"183 680 OFFCURVE",
"354 680 CURVE SMOOTH",
"465 680 OFFCURVE",
"548 644 OFFCURVE",
"584 600 CURVE SMOOTH",
"609 569 OFFCURVE",
"609 510 OFFCURVE",
"609 450 CURVE",
"589 450 LINE",
"564 581 OFFCURVE",
"495 640 OFFCURVE",
"384 640 CURVE SMOOTH",
"253 640 OFFCURVE",
"144 559 OFFCURVE",
"144 320 CURVE SMOOTH",
"144 171 OFFCURVE",
"213 20 OFFCURVE",
"384 20 CURVE SMOOTH",
"484 20 OFFCURVE",
"553 69 OFFCURVE",
"609 160 CURVE",
"629 145 LINE",
"568 28 OFFCURVE",
"484 -15 OFFCURVE",
"374 -20 CURVE",
"374 -50 LINE",
"384 -50 LINE SMOOTH",
"429 -50 OFFCURVE",
"464 -75 OFFCURVE",
"464 -123 CURVE SMOOTH",
"464 -170 OFFCURVE",
"429 -196 OFFCURVE",
"384 -196 CURVE SMOOTH"
);
}
);
width = 665;
}
);
leftKerningGroup = C;
rightKerningGroup = C;
unicode = 00C7;
},
{
glyphname = Idieresis;
lastChange = "2015-07-19 18:37:38 +0000";
layers = (
{
layerId = UUID0;
name = Regular;
paths = (
{
closed = 1;
nodes = (
"89 660 LINE",
"179 660 LINE",
"179 120 LINE SMOOTH",
"179 60 OFFCURVE",
"189 20 OFFCURVE",
"249 20 CURVE SMOOTH",
"269 20 LINE",
"269 0 LINE",
"179 0 LINE SMOOTH",
"109 0 OFFCURVE",
"89 20 OFFCURVE",
"89 120 CURVE SMOOTH"
);
},
{
closed = 1;
nodes = (
"261 734 OFFCURVE",
"242 715 OFFCURVE",
"211 715 CURVE SMOOTH",
"180 715 OFFCURVE",
"161 734 OFFCURVE",
"161 765 CURVE SMOOTH",
"161 796 OFFCURVE",
"180 815 OFFCURVE",
"211 815 CURVE SMOOTH",
"242 815 OFFCURVE",
"261 796 OFFCURVE",
"261 765 CURVE SMOOTH"
);
},
{
closed = 1;
nodes = (
"107 734 OFFCURVE",
"88 715 OFFCURVE",
"57 715 CURVE SMOOTH",
"26 715 OFFCURVE",
"7 734 OFFCURVE",
"7 765 CURVE SMOOTH",
"7 796 OFFCURVE",
"26 815 OFFCURVE",
"57 815 CURVE SMOOTH",
"88 815 OFFCURVE",
"107 796 OFFCURVE",
"107 765 CURVE SMOOTH"
);
}
);
width = 285;
}
);
leftKerningGroup = I;
rightKerningGroup = H;
unicode = 00CF;
},
{
glyphname = Eth;
lastChange = "2015-07-19 18:37:38 +0000";
layers = (
{
layerId = UUID0;
name = Regular;
paths = (
{
closed = 1;
nodes = (
"31 350 LINE",
"106 350 LINE",
"106 540 LINE SMOOTH",
"106 600 OFFCURVE",
"96 640 OFFCURVE",
"36 640 CURVE SMOOTH",
"16 640 LINE",
"16 660 LINE",
"278 660 LINE SMOOTH",
"542 660 OFFCURVE",
"671 534 OFFCURVE",
"671 334 CURVE SMOOTH",
"671 139 OFFCURVE",
"546 0 OFFCURVE",
"304 0 CURVE SMOOTH",
"106 0 LINE",
"106 310 LINE",
"31 310 LINE"
);
},
{
closed = 1;
nodes = (
"199 350 LINE",
"286 350 LINE",
"286 310 LINE",
"199 310 LINE",
"199 48 LINE",
"238 39 OFFCURVE",
"272 35 OFFCURVE",
"301 35 CURVE SMOOTH",
"449 35 OFFCURVE",
"562 149 OFFCURVE",
"562 330 CURVE SMOOTH",
"562 507 OFFCURVE",
"452 625 OFFCURVE",
"299 625 CURVE SMOOTH",
"270 625 OFFCURVE",
"235 620 OFFCURVE",
"199 609 CURVE"
);
}
);
width = 715;
}
);
leftKerningGroup = B;
rightKerningGroup = D;
unicode = 00D0;
},
{
glyphname = multiply;
lastChange = "2015-07-19 18:37:38 +0000";
layers = (
{
layerId = UUID0;
name = Regular;
paths = (
{
closed = 1;
nodes = (
"234 291 LINE",
"93 149 LINE",
"51 192 LINE",
"192 333 LINE",
"51 475 LINE",
"93 517 LINE",
"235 375 LINE",
"376 517 LINE",
"418 474 LINE",
"277 333 LINE",
"418 191 LINE",
"376 149 LINE"
);
}
);
width = 469;
}
);
unicode = 00D7;
},
{
glyphname = Oslash;
lastChange = "2015-07-19 18:37:38 +0000";
layers = (
{
layerId = UUID0;
name = Regular;
paths = (
{
closed = 1;
nodes = (
"126 -20 LINE",
"163 48 LINE",
"88 112 OFFCURVE",
"46 213 OFFCURVE",
"46 330 CURVE SMOOTH",
"46 526 OFFCURVE",
"166 680 OFFCURVE",
"356 680 CURVE SMOOTH",
"407 680 OFFCURVE",
"451 669 OFFCURVE",
"490 650 CURVE",
"507 680 LINE",
"580 680 LINE",
"544 615 LINE",
"621 551 OFFCURVE",
"666 450 OFFCURVE",
"666 330 CURVE SMOOTH",
"666 134 OFFCURVE",
"546 -20 OFFCURVE",
"356 -20 CURVE SMOOTH",
"304 -20 OFFCURVE",
"257 -9 OFFCURVE",
"216 12 CURVE",
"199 -20 LINE"
);
},
{
closed = 1;
nodes = (
"566 423 OFFCURVE",
"546 499 OFFCURVE",
"511 554 CURVE",
"242 59 LINE",
"275 33 OFFCURVE",
"313 20 OFFCURVE",
"356 20 CURVE SMOOTH",
"487 20 OFFCURVE",
"566 140 OFFCURVE",
"566 330 CURVE SMOOTH"
);
},
{
closed = 1;
nodes = (
"146 238 OFFCURVE",
"164 164 OFFCURVE",
"197 111 CURVE",
"465 604 LINE",
"434 628 OFFCURVE",
"397 640 OFFCURVE",
"356 640 CURVE SMOOTH",
"225 640 OFFCURVE",
"146 520 OFFCURVE",
"146 330 CURVE SMOOTH"
);
}
);
width = 712;
}
);
leftKerningGroup = C;
rightKerningGroup = O;
unicode = 00D8;
},
{
glyphname = Thorn;
lastChange = "2015-07-19 18:37:38 +0000";
layers = (
{
layerId = UUID0;
name = Regular;
paths = (
{
closed = 1;
nodes = (
"409 430 OFFCURVE",
"349 510 OFFCURVE",
"199 510 CURVE",
"199 120 LINE",
"349 120 OFFCURVE",
"409 200 OFFCURVE",
"409 315 CURVE SMOOTH"
);
},
{
closed = 1;
nodes = (
"199 550 LINE",
"400 550 OFFCURVE",
"509 471 OFFCURVE",
"509 315 CURVE SMOOTH",
"509 159 OFFCURVE",
"400 80 OFFCURVE",
"199 80 CURVE",
"199 -30 LINE",
"109 -30 LINE",
"109 600 LINE SMOOTH",
"109 651 OFFCURVE",
"90 670 OFFCURVE",
"39 670 CURVE SMOOTH",
"19 670 LINE",
"19 690 LINE",
"109 690 LINE SMOOTH",
"178 690 OFFCURVE",
"199 669 OFFCURVE",
"199 600 CURVE SMOOTH"
);
}
);
width = 535;
}
);
leftKerningGroup = B;
unicode = 00DE;
},
{
glyphname = germandbls;
lastChange = "2015-07-19 18:37:38 +0000";
layers = (
{
layerId = UUID0;
name = Regular;
paths = (
{
closed = 1;
nodes = (
"352 601 OFFCURVE",
"322 630 OFFCURVE",
"262 630 CURVE SMOOTH",
"197 630 OFFCURVE",
"162 600 OFFCURVE",
"162 500 CURVE SMOOTH",
"162 0 LINE",
"72 0 LINE",
"72 500 LINE SMOOTH",
"72 640 OFFCURVE",
"162 670 OFFCURVE",
"267 670 CURVE SMOOTH",
"378 670 OFFCURVE",
"437 630 OFFCURVE",
"437 570 CURVE SMOOTH",
"437 460 OFFCURVE",
"322 461 OFFCURVE",
"322 370 CURVE SMOOTH",
"322 260 OFFCURVE",
"527 255 OFFCURVE",
"527 120 CURVE SMOOTH",
"527 29 OFFCURVE",
"467 -10 OFFCURVE",
"382 -10 CURVE SMOOTH",
"331 -10 OFFCURVE",
"282 5 OFFCURVE",
"257 30 CURVE SMOOTH",
"232 55 OFFCURVE",
"232 85 OFFCURVE",
"232 110 CURVE",
"252 110 LINE",
"257 70 OFFCURVE",
"302 30 OFFCURVE",
"362 30 CURVE SMOOTH",
"413 30 OFFCURVE",
"442 60 OFFCURVE",
"442 100 CURVE SMOOTH",
"442 210 OFFCURVE",
"237 215 OFFCURVE",
"237 350 CURVE SMOOTH",
"237 460 OFFCURVE",
"352 459 OFFCURVE",
"352 550 CURVE SMOOTH"
);
}
);
width = 554;
}
);
unicode = 00DF;
},
{
glyphname = ae;
lastChange = "2015-07-19 18:37:38 +0000";
layers = (
{
layerId = UUID0;
name = Regular;
paths = (
{
closed = 1;
nodes = (
"712 220 LINE",
"414 220 LINE",
"414 110 OFFCURVE",
"464 30 OFFCURVE",
"549 30 CURVE SMOOTH",
"614 30 OFFCURVE",
"654 59 OFFCURVE",
"689 110 CURVE",
"709 95 LINE",
"664 19 OFFCURVE",
"605 -10 OFFCURVE",
"529 -10 CURVE SMOOTH",
"450 -10 OFFCURVE",
"394 19 OFFCURVE",
"359 75 CURVE",
"330 20 OFFCURVE",
"285 -10 OFFCURVE",
"199 -10 CURVE SMOOTH",
"129 -10 OFFCURVE",
"39 21 OFFCURVE",
"39 125 CURVE SMOOTH",
"39 229 OFFCURVE",
"159 260 OFFCURVE",
"294 260 CURVE SMOOTH",
"324 260 LINE",
"324 410 OFFCURVE",
"279 440 OFFCURVE",
"219 440 CURVE SMOOTH",
"163 440 OFFCURVE",
"124 420 OFFCURVE",
"109 355 CURVE",
"64 355 LINE",
"64 390 OFFCURVE",
"64 420 OFFCURVE",
"89 445 CURVE SMOOTH",
"114 470 OFFCURVE",
"179 480 OFFCURVE",
"239 480 CURVE SMOOTH",
"310 480 OFFCURVE",
"359 441 OFFCURVE",
"379 390 CURVE",
"399 441 OFFCURVE",
"449 480 OFFCURVE",
"514 480 CURVE SMOOTH",
"650 480 OFFCURVE",
"714 401 OFFCURVE",
"714 260 CURVE"
);
},
{
closed = 1;
nodes = (
"624 260 LINE",
"624 371 OFFCURVE",
"590 435 OFFCURVE",
"519 435 CURVE SMOOTH",
"459 435 OFFCURVE",
"414 360 OFFCURVE",
"414 260 CURVE"
);
},
{
closed = 1;
nodes = (
"324 220 LINE",
"294 220 LINE SMOOTH",
"194 220 OFFCURVE",
"134 181 OFFCURVE",
"134 125 CURVE SMOOTH",
"134 65 OFFCURVE",
"178 35 OFFCURVE",
"229 35 CURVE SMOOTH",
"278 35 OFFCURVE",
"304 64 OFFCURVE",
"324 95 CURVE"
);
}
);
width = 759;
}
);
leftKerningGroup = a;
rightKerningGroup = e;
unicode = 00E6;
},
{
glyphname = ccedilla;
lastChange = "2015-07-19 18:37:38 +0000";
layers = (
{
layerId = UUID0;
name = Regular;
paths = (
{
closed = 1;
nodes = (
"336 480 OFFCURVE",
"385 470 OFFCURVE",
"410 445 CURVE SMOOTH",
"435 420 OFFCURVE",
"435 390 OFFCURVE",
"435 315 CURVE",
"415 315 LINE",
"410 400 OFFCURVE",
"356 440 OFFCURVE",
"285 440 CURVE SMOOTH",
"185 440 OFFCURVE",
"140 350 OFFCURVE",
"140 235 CURVE SMOOTH",
"140 120 OFFCURVE",
"185 30 OFFCURVE",
"285 30 CURVE SMOOTH",
"356 30 OFFCURVE",
"395 59 OFFCURVE",
"430 110 CURVE",
"450 95 LINE",
"429 59 OFFCURVE",
"404 33 OFFCURVE",
"375 17 CURVE SMOOTH",
"348 2 OFFCURVE",
"316 -6 OFFCURVE",
"281 -9 CURVE",
"281 -50 LINE",
"291 -50 LINE SMOOTH",
"336 -50 OFFCURVE",
"371 -75 OFFCURVE",
"371 -123 CURVE SMOOTH",
"371 -170 OFFCURVE",
"336 -196 OFFCURVE",
"291 -196 CURVE SMOOTH",
"231 -196 LINE",
"231 -155 LINE",
"281 -155 LINE SMOOTH",
"308 -155 OFFCURVE",
"321 -144 OFFCURVE",
"321 -123 CURVE SMOOTH",
"321 -101 OFFCURVE",
"308 -90 OFFCURVE",
"281 -90 CURVE SMOOTH",
"236 -90 LINE",
"236 -10 LINE",
"105 6 OFFCURVE",
"45 109 OFFCURVE",
"45 235 CURVE SMOOTH",
"45 370 OFFCURVE",
"116 480 OFFCURVE",
"265 480 CURVE SMOOTH"
);
}
);
width = 483;
}
);
leftKerningGroup = c;
rightKerningGroup = c;
unicode = 00E7;
},
{
glyphname = idieresis;
lastChange = "2015-07-19 18:37:38 +0000";
layers = (
{
layerId = UUID0;
name = Regular;
paths = (
{
closed = 1;
nodes = (
"177 0 LINE",
"87 0 LINE",
"87 350 LINE SMOOTH",
"87 410 OFFCURVE",
"77 450 OFFCURVE",
"17 450 CURVE SMOOTH",
"-3 450 LINE",
"-3 470 LINE",
"87 470 LINE SMOOTH",
"157 470 OFFCURVE",
"177 450 OFFCURVE",
"177 350 CURVE SMOOTH"
);
},
{
closed = 1;
nodes = (
"98 557 OFFCURVE",
"80 540 OFFCURVE",
"52 540 CURVE SMOOTH",
"21 540 OFFCURVE",
"-4 569 OFFCURVE",
"-4 604 CURVE SMOOTH",
"-4 632 OFFCURVE",
"14 649 OFFCURVE",
"42 649 CURVE SMOOTH",
"73 649 OFFCURVE",
"98 620 OFFCURVE",
"98 585 CURVE SMOOTH"
);
},
{
closed = 1;
nodes = (
"252 557 OFFCURVE",
"234 540 OFFCURVE",
"206 540 CURVE SMOOTH",
"175 540 OFFCURVE",
"150 569 OFFCURVE",
"150 604 CURVE SMOOTH",
"150 632 OFFCURVE",
"168 649 OFFCURVE",
"196 649 CURVE SMOOTH",
"227 649 OFFCURVE",
"252 620 OFFCURVE",
"252 585 CURVE SMOOTH"
);
}
);
width = 246;
}
);
leftKerningGroup = i;
rightKerningGroup = i;
unicode = 00EF;
},
{
glyphname = eth;
lastChange = "2015-07-19 18:37:38 +0000";
layers = (
{
layerId = UUID0;
name = Regular;
paths = (
{
closed = 1;
nodes = (
"254 550 LINE",
"294 590 LINE",
"263 621 OFFCURVE",
"235 635 OFFCURVE",
"184 635 CURVE SMOOTH",
"168 635 OFFCURVE",
"148 632 OFFCURVE",
"140 629 CURVE",
"132 648 LINE",
"159 667 OFFCURVE",
"189 670 OFFCURVE",
"224 670 CURVE SMOOTH",
"264 670 OFFCURVE",
"304 655 OFFCURVE",
"339 630 CURVE",
"374 670 LINE",
"404 640 LINE",
"369 605 LINE",
"440 534 OFFCURVE",
"484 421 OFFCURVE",
"484 270 CURVE SMOOTH",
"484 100 OFFCURVE",
"404 -10 OFFCURVE",
"264 -10 CURVE SMOOTH",
"124 -10 OFFCURVE",
"44 100 OFFCURVE",
"44 235 CURVE SMOOTH",
"44 370 OFFCURVE",
"124 480 OFFCURVE",
"264 480 CURVE SMOOTH",
"320 480 OFFCURVE",
"369 451 OFFCURVE",
"394 400 CURVE",
"379 471 OFFCURVE",
"359 520 OFFCURVE",
"324 560 CURVE",
"284 520 LINE"
);
},
{
closed = 1;
nodes = (
"389 350 OFFCURVE",
"339 440 OFFCURVE",
"264 440 CURVE SMOOTH",
"189 440 OFFCURVE",
"139 350 OFFCURVE",
"139 235 CURVE SMOOTH",
"139 120 OFFCURVE",
"189 30 OFFCURVE",
"264 30 CURVE SMOOTH",
"339 30 OFFCURVE",
"389 120 OFFCURVE",
"389 235 CURVE SMOOTH"
);
}
);
width = 537;
}
);
leftKerningGroup = c;
unicode = 00F0;
},
{
glyphname = divide;
lastChange = "2015-07-19 18:37:38 +0000";
layers = (
{
layerId = UUID0;
name = Regular;
paths = (
{
closed = 1;
nodes = (
"62 300 LINE",
"62 360 LINE",
"502 360 LINE",
"502 300 LINE"
);
},
{
closed = 1;
nodes = (
"327 165 OFFCURVE",
"307 145 OFFCURVE",
"282 145 CURVE SMOOTH",
"257 145 OFFCURVE",
"237 165 OFFCURVE",
"237 190 CURVE SMOOTH",
"237 215 OFFCURVE",
"257 235 OFFCURVE",
"282 235 CURVE SMOOTH",
"307 235 OFFCURVE",
"327 215 OFFCURVE",
"327 190 CURVE SMOOTH"
);
},
{
closed = 1;
nodes = (
"327 445 OFFCURVE",
"307 425 OFFCURVE",
"282 425 CURVE SMOOTH",
"257 425 OFFCURVE",
"237 445 OFFCURVE",
"237 470 CURVE SMOOTH",
"237 495 OFFCURVE",
"257 515 OFFCURVE",
"282 515 CURVE SMOOTH",
"307 515 OFFCURVE",
"327 495 OFFCURVE",
"327 470 CURVE SMOOTH"
);
}
);
width = 564;
}
);
unicode = 00F7;
},
{
glyphname = oslash;
lastChange = "2015-07-19 18:37:38 +0000";
layers = (
{
layerId = UUID0;
name = Regular;
paths = (
{
closed = 1;
nodes = (
"65 0 LINE",
"105 58 LINE",
"66 103 OFFCURVE",
"45 164 OFFCURVE",
"45 235 CURVE SMOOTH",
"45 370 OFFCURVE",
"125 480 OFFCURVE",
"265 480 CURVE SMOOTH",
"309 480 OFFCURVE",
"347 469 OFFCURVE",
"378 450 CURVE",
"392 470 LINE",
"465 470 LINE",
"424 411 LINE",
"463 367 OFFCURVE",
"485 304 OFFCURVE",
"485 235 CURVE SMOOTH",
"485 100 OFFCURVE",
"405 -10 OFFCURVE",
"265 -10 CURVE SMOOTH",
"221 -10 OFFCURVE",
"183 1 OFFCURVE",
"151 20 CURVE",
"138 0 LINE"
);
},
{
closed = 1;
nodes = (
"390 274 OFFCURVE",
"385 308 OFFCURVE",
"374 339 CURVE",
"187 71 LINE",
"208 44 OFFCURVE",
"234 30 OFFCURVE",
"265 30 CURVE SMOOTH",
"340 30 OFFCURVE",
"390 120 OFFCURVE",
"390 235 CURVE SMOOTH"
);
},
{
closed = 1;
nodes = (
"140 196 OFFCURVE",
"145 162 OFFCURVE",
"156 131 CURVE",
"343 399 LINE",
"321 426 OFFCURVE",
"295 440 OFFCURVE",
"265 440 CURVE SMOOTH",
"190 440 OFFCURVE",
"140 350 OFFCURVE",
"140 235 CURVE SMOOTH"
);
}
);
width = 530;
}
);
leftKerningGroup = c;
rightKerningGroup = b;
unicode = 00F8;
},
{
glyphname = thorn;
lastChange = "2015-07-19 18:37:38 +0000";
layers = (
{
layerId = UUID0;
name = Regular;
paths = (
{
closed = 1;
nodes = (
"162 60 LINE",
"193 45 OFFCURVE",
"226 30 OFFCURVE",
"257 30 CURVE SMOOTH",
"347 30 OFFCURVE",
"382 120 OFFCURVE",
"382 235 CURVE SMOOTH",
"382 350 OFFCURVE",
"347 440 OFFCURVE",
"267 440 CURVE SMOOTH",
"212 440 OFFCURVE",
"181 410 OFFCURVE",
"162 380 CURVE"
);
},
{
closed = 1;
nodes = (
"162 425 LINE",
"182 450 OFFCURVE",
"222 480 OFFCURVE",
"297 480 CURVE SMOOTH",
"416 480 OFFCURVE",
"477 370 OFFCURVE",
"477 235 CURVE SMOOTH",
"477 100 OFFCURVE",
"417 -10 OFFCURVE",
"287 -10 CURVE SMOOTH",
"231 -10 OFFCURVE",
"193 5 OFFCURVE",
"162 20 CURVE",
"162 -190 LINE",
"72 -190 LINE",
"72 540 LINE SMOOTH",
"72 600 OFFCURVE",
"62 640 OFFCURVE",
"2 640 CURVE SMOOTH",
"-13 640 LINE",
"-13 660 LINE",
"72 660 LINE SMOOTH",
"142 660 OFFCURVE",
"162 640 OFFCURVE",
"162 540 CURVE SMOOTH",
"162 480 LINE"
);
}
);
width = 523;
}
);
leftKerningGroup = b;
rightKerningGroup = b;
unicode = 00FE;
},
{
glyphname = Idotaccent;
lastChange = "2015-07-19 18:37:38 +0000";
layers = (
{
layerId = UUID0;
name = Regular;
paths = (
{
closed = 1;
nodes = (
"89 660 LINE",
"179 660 LINE",
"179 120 LINE SMOOTH",
"179 60 OFFCURVE",
"189 20 OFFCURVE",
"249 20 CURVE SMOOTH",
"269 20 LINE",
"269 0 LINE",
"179 0 LINE SMOOTH",
"109 0 OFFCURVE",
"89 20 OFFCURVE",
"89 120 CURVE SMOOTH"
);
},
{
closed = 1;
nodes = (
"183 727 OFFCURVE",
"165 710 OFFCURVE",
"137 710 CURVE SMOOTH",
"106 710 OFFCURVE",
"81 739 OFFCURVE",
"81 774 CURVE SMOOTH",
"81 802 OFFCURVE",
"99 819 OFFCURVE",
"127 819 CURVE SMOOTH",
"158 819 OFFCURVE",
"183 790 OFFCURVE",
"183 755 CURVE SMOOTH"
);
}
);
width = 285;
}
);
leftKerningGroup = I;
rightKerningGroup = H;
unicode = 0130;
},
{
glyphname = dotlessi;
lastChange = "2015-07-19 18:37:38 +0000";
layers = (
{
layerId = UUID0;
name = Regular;
paths = (
{
closed = 1;
nodes = (
"177 0 LINE",
"87 0 LINE",
"87 350 LINE SMOOTH",
"87 410 OFFCURVE",
"77 450 OFFCURVE",
"17 450 CURVE SMOOTH",
"-3 450 LINE",
"-3 470 LINE",
"87 470 LINE SMOOTH",
"157 470 OFFCURVE",
"177 450 OFFCURVE",
"177 350 CURVE SMOOTH"
);
}
);
width = 246;
}
);
leftKerningGroup = i;
rightKerningGroup = i;
unicode = 0131;
},
{
glyphname = OE;
lastChange = "2015-07-19 18:37:38 +0000";
layers = (
{
layerId = UUID0;
name = Regular;
paths = (
{
closed = 1;
nodes = (
"46 526 OFFCURVE",
"166 680 OFFCURVE",
"356 680 CURVE SMOOTH",
"396 680 OFFCURVE",
"431 675 OFFCURVE",
"466 660 CURVE",
"797 660 LINE SMOOTH",
"866 660 OFFCURVE",
"882 620 OFFCURVE",
"882 580 CURVE SMOOTH",
"882 505 LINE",
"862 505 LINE",
"862 585 OFFCURVE",
"817 620 OFFCURVE",
"737 620 CURVE SMOOTH",
"551 620 LINE",
"551 360 LINE",
"821 360 LINE",
"821 320 LINE",
"551 320 LINE",
"551 40 LINE",
"726 40 LINE SMOOTH",
"817 40 OFFCURVE",
"865 70 OFFCURVE",
"896 150 CURVE",
"916 145 LINE",
"881 50 LINE SMOOTH",
"870 19 OFFCURVE",
"846 0 OFFCURVE",
"806 0 CURVE SMOOTH",
"466 0 LINE",
"431 -15 OFFCURVE",
"396 -20 OFFCURVE",
"356 -20 CURVE SMOOTH",
"166 -20 OFFCURVE",
"46 134 OFFCURVE",
"46 330 CURVE SMOOTH"
);
},
{
closed = 1;
nodes = (
"397 20 OFFCURVE",
"432 31 OFFCURVE",
"461 52 CURVE",
"461 610 LINE",
"431 630 OFFCURVE",
"396 640 OFFCURVE",
"356 640 CURVE SMOOTH",
"225 640 OFFCURVE",
"146 520 OFFCURVE",
"146 330 CURVE SMOOTH",
"146 140 OFFCURVE",
"225 20 OFFCURVE",
"356 20 CURVE SMOOTH"
);
}
);
width = 945;
}
);
leftKerningGroup = C;
rightKerningGroup = E;
unicode = 0152;
},
{
glyphname = oe;
lastChange = "2015-07-19 18:37:38 +0000";
layers = (
{
layerId = UUID0;
name = Regular;
paths = (
{
closed = 1;
nodes = (
"748 220 LINE",
"450 220 LINE",
"450 110 OFFCURVE",
"500 30 OFFCURVE",
"585 30 CURVE SMOOTH",
"650 30 OFFCURVE",
"690 59 OFFCURVE",
"725 110 CURVE",
"745 95 LINE",
"700 19 OFFCURVE",
"641 -10 OFFCURVE",
"565 -10 CURVE SMOOTH",
"500 -10 OFFCURVE",
"450 15 OFFCURVE",
"415 50 CURVE",
"380 15 OFFCURVE",
"330 -10 OFFCURVE",
"265 -10 CURVE SMOOTH",
"125 -10 OFFCURVE",
"45 100 OFFCURVE",
"45 235 CURVE SMOOTH",
"45 370 OFFCURVE",
"125 480 OFFCURVE",
"265 480 CURVE SMOOTH",
"330 480 OFFCURVE",
"380 460 OFFCURVE",
"416 421 CURVE",
"448 458 OFFCURVE",
"493 480 OFFCURVE",
"550 480 CURVE SMOOTH",
"686 480 OFFCURVE",
"750 401 OFFCURVE",
"750 260 CURVE"
);
},
{
closed = 1;
nodes = (
"316 30 OFFCURVE",
"350 65 OFFCURVE",
"375 125 CURVE",
"364 150 OFFCURVE",
"355 190 OFFCURVE",
"355 235 CURVE SMOOTH",
"355 280 OFFCURVE",
"364 320 OFFCURVE",
"375 345 CURVE",
"355 401 OFFCURVE",
"316 440 OFFCURVE",
"265 440 CURVE SMOOTH",
"190 440 OFFCURVE",
"140 350 OFFCURVE",
"140 235 CURVE SMOOTH",
"140 120 OFFCURVE",
"190 30 OFFCURVE",
"265 30 CURVE SMOOTH"
);
},
{
closed = 1;
nodes = (
"660 260 LINE",
"660 371 OFFCURVE",
"626 435 OFFCURVE",
"555 435 CURVE SMOOTH",
"495 435 OFFCURVE",
"450 360 OFFCURVE",
"450 260 CURVE"
);
}
);
width = 795;
}
);
leftKerningGroup = c;
rightKerningGroup = e;
unicode = 0153;
},
{
glyphname = Scedilla;
lastChange = "2015-07-19 18:37:38 +0000";
layers = (
{
layerId = UUID0;
name = Regular;
paths = (
{
closed = 1;
nodes = (
"490 56 OFFCURVE",
"410 -17 OFFCURVE",
"282 -17 CURVE",
"282 -40 LINE",
"292 -40 LINE SMOOTH",
"337 -40 OFFCURVE",
"372 -65 OFFCURVE",
"372 -113 CURVE SMOOTH",
"372 -160 OFFCURVE",
"337 -186 OFFCURVE",
"292 -186 CURVE SMOOTH",
"232 -186 LINE",
"232 -145 LINE",
"282 -145 LINE SMOOTH",
"309 -145 OFFCURVE",
"322 -134 OFFCURVE",
"322 -113 CURVE SMOOTH",
"322 -91 OFFCURVE",
"309 -80 OFFCURVE",
"282 -80 CURVE SMOOTH",
"237 -80 LINE",
"237 -14 LINE",
"141 -3 OFFCURVE",
"54 40 OFFCURVE",
"54 105 CURVE SMOOTH",
"54 212 LINE",
"72 212 LINE",
"95 77 OFFCURVE",
"160 23 OFFCURVE",
"273 23 CURVE SMOOTH",
"341 23 OFFCURVE",
"404 58 OFFCURVE",
"404 125 CURVE SMOOTH",
"404 184 OFFCURVE",
"367 220 OFFCURVE",
"294 263 CURVE SMOOTH",
"171 336 LINE SMOOTH",
"86 387 OFFCURVE",
"54 433 OFFCURVE",
"54 508 CURVE SMOOTH",
"54 611 OFFCURVE",
"132 678 OFFCURVE",
"248 678 CURVE SMOOTH",
"347 678 OFFCURVE",
"464 634 OFFCURVE",
"464 558 CURVE SMOOTH",
"464 451 LINE",
"446 451 LINE",
"423 586 OFFCURVE",
"361 638 OFFCURVE",
"248 638 CURVE SMOOTH",
"189 638 OFFCURVE",
"132 599 OFFCURVE",
"132 537 CURVE SMOOTH",
"132 479 OFFCURVE",
"170 449 OFFCURVE",
"243 406 CURVE SMOOTH",
"366 333 LINE SMOOTH",
"451 282 OFFCURVE",
"490 243 OFFCURVE",
"490 168 CURVE SMOOTH"
);
}
);
width = 533;
}
);
leftKerningGroup = S;
rightKerningGroup = S;
unicode = 015E;
},
{
glyphname = scedilla;
lastChange = "2015-07-19 18:37:38 +0000";
layers = (
{
layerId = UUID0;
name = Regular;
paths = (
{
closed = 1;
nodes = (
"405 36 OFFCURVE",
"332 -7 OFFCURVE",
"237 -10 CURVE",
"237 -30 LINE",
"247 -30 LINE SMOOTH",
"292 -30 OFFCURVE",
"327 -55 OFFCURVE",
"327 -103 CURVE SMOOTH",
"327 -150 OFFCURVE",
"292 -176 OFFCURVE",
"247 -176 CURVE SMOOTH",
"187 -176 LINE",
"187 -135 LINE",
"237 -135 LINE SMOOTH",
"264 -135 OFFCURVE",
"277 -124 OFFCURVE",
"277 -103 CURVE SMOOTH",
"277 -81 OFFCURVE",
"264 -70 OFFCURVE",
"237 -70 CURVE SMOOTH",
"192 -70 LINE",
"192 -9 LINE",
"135 -5 OFFCURVE",
"96 8 OFFCURVE",
"75 30 CURVE SMOOTH",
"50 55 OFFCURVE",
"50 84 OFFCURVE",
"50 135 CURVE",
"70 135 LINE",
"81 70 OFFCURVE",
"125 30 OFFCURVE",
"210 30 CURVE SMOOTH",
"286 30 OFFCURVE",
"320 60 OFFCURVE",
"320 100 CURVE SMOOTH",
"320 140 OFFCURVE",
"290 165 OFFCURVE",
"230 190 CURVE SMOOTH",
"170 215 LINE SMOOTH",
"94 246 OFFCURVE",
"50 285 OFFCURVE",
"50 350 CURVE SMOOTH",
"50 434 OFFCURVE",
"120 480 OFFCURVE",
"215 480 CURVE SMOOTH",
"291 480 OFFCURVE",
"340 465 OFFCURVE",
"365 440 CURVE SMOOTH",
"390 415 OFFCURVE",
"390 386 OFFCURVE",
"390 335 CURVE",
"370 335 LINE",
"359 400 OFFCURVE",
"315 440 OFFCURVE",
"235 440 CURVE SMOOTH",
"170 440 OFFCURVE",
"135 410 OFFCURVE",
"135 370 CURVE SMOOTH",
"135 335 OFFCURVE",
"164 306 OFFCURVE",
"215 285 CURVE SMOOTH",
"275 260 LINE SMOOTH",
"360 225 OFFCURVE",
"405 189 OFFCURVE",
"405 120 CURVE SMOOTH"
);
}
);
width = 448;
}
);
leftKerningGroup = s;
rightKerningGroup = s;
unicode = 015F;
},
{
glyphname = circumflex;
lastChange = "2015-07-19 18:37:38 +0000";
layers = (
{
layerId = UUID0;
name = Regular;
paths = (
{
closed = 1;
nodes = (
"155 740 LINE",
"70 660 LINE",
"20 660 LINE",
"100 775 LINE",
"210 775 LINE",
"290 660 LINE",
"240 660 LINE"
);
}
);
width = 310;
}
);
unicode = 02C6;
},
{
glyphname = caron;
lastChange = "2015-07-19 18:37:38 +0000";
layers = (
{
layerId = UUID0;
name = Regular;
paths = (
{
closed = 1;
nodes = (
"220 635 LINE",
"270 635 LINE",
"190 520 LINE",
"80 520 LINE",
"0 635 LINE",
"50 635 LINE",
"135 555 LINE"
);
}
);
width = 270;
}
);
unicode = 02C7;
},
{
glyphname = breve;
lastChange = "2015-07-19 18:37:38 +0000";
layers = (
{
layerId = UUID0;
name = Regular;
paths = (
{
closed = 1;
nodes = (
"186 576 OFFCURVE",
"215 591 OFFCURVE",
"240 616 CURVE",
"260 601 LINE",
"235 556 OFFCURVE",
"195 521 OFFCURVE",
"130 521 CURVE SMOOTH",
"65 521 OFFCURVE",
"25 556 OFFCURVE",
"0 601 CURVE",
"20 616 LINE",
"45 591 OFFCURVE",
"74 576 OFFCURVE",
"130 576 CURVE SMOOTH"
);
}
);
width = 260;
}
);
unicode = 02D8;
},
{
glyphname = ring;
lastChange = "2015-07-19 18:37:38 +0000";
layers = (
{
layerId = UUID0;
name = Regular;
paths = (
{
closed = 1;
nodes = (
"0 660 OFFCURVE",
"40 700 OFFCURVE",
"85 700 CURVE SMOOTH",
"130 700 OFFCURVE",
"170 660 OFFCURVE",
"170 615 CURVE SMOOTH",
"170 570 OFFCURVE",
"130 530 OFFCURVE",
"85 530 CURVE SMOOTH",
"40 530 OFFCURVE",
"0 570 OFFCURVE",
"0 615 CURVE SMOOTH"
);
},
{
closed = 1;
nodes = (
"130 646 OFFCURVE",
"110 665 OFFCURVE",
"85 665 CURVE SMOOTH",
"60 665 OFFCURVE",
"40 646 OFFCURVE",
"40 615 CURVE SMOOTH",
"40 584 OFFCURVE",
"60 565 OFFCURVE",
"85 565 CURVE SMOOTH",
"110 565 OFFCURVE",
"130 584 OFFCURVE",
"130 615 CURVE SMOOTH"
);
}
);
width = 170;
}
);
unicode = 02DA;
},
{
glyphname = tilde;
lastChange = "2015-07-19 18:37:38 +0000";
layers = (
{
layerId = UUID0;
name = Regular;
paths = (
{
closed = 1;
nodes = (
"20 680 LINE",
"20 751 OFFCURVE",
"40 775 OFFCURVE",
"80 775 CURVE SMOOTH",
"123 775 OFFCURVE",
"146 735 OFFCURVE",
"185 735 CURVE SMOOTH",
"200 735 OFFCURVE",
"215 760 OFFCURVE",
"215 775 CURVE",
"245 775 LINE",
"245 704 OFFCURVE",
"225 680 OFFCURVE",
"185 680 CURVE SMOOTH",
"143 680 OFFCURVE",
"120 720 OFFCURVE",
"80 720 CURVE SMOOTH",
"65 720 OFFCURVE",
"50 695 OFFCURVE",
"50 680 CURVE"
);
}
);
width = 265;
}
);
unicode = 02DC;
},
{
glyphname = afii10051;
lastChange = "2015-07-19 18:37:38 +0000";
layers = (
{
layerId = UUID0;
name = Regular;
paths = (
{
closed = 1;
nodes = (
"499 349 OFFCURVE",
"434 385 OFFCURVE",
"359 385 CURVE SMOOTH",
"308 385 OFFCURVE",
"250 365 OFFCURVE",
"219 345 CURVE",
"219 0 LINE",
"129 0 LINE",
"129 620 LINE",
"-1 620 LINE",
"-1 660 LINE",
"349 660 LINE",
"349 620 LINE",
"219 620 LINE",
"219 390 LINE",
"250 410 OFFCURVE",
"318 430 OFFCURVE",
"389 430 CURVE SMOOTH",
"494 430 OFFCURVE",
"589 395 OFFCURVE",
"589 200 CURVE SMOOTH",
"589 25 OFFCURVE",
"549 -40 OFFCURVE",
"404 -40 CURVE",
"404 -20 LINE",
"467 -20 OFFCURVE",
"499 53 OFFCURVE",
"499 200 CURVE SMOOTH"
);
}
);
width = 624;
}
);
leftKerningGroup = afii10051;
unicode = 0402;
},
{
glyphname = afii10052;
lastChange = "2015-07-19 18:37:38 +0000";
layers = (
{
layerId = UUID0;
name = Regular;
paths = (
{
closed = 1;
nodes = (
"106 540 LINE SMOOTH",
"106 600 OFFCURVE",
"96 640 OFFCURVE",
"36 640 CURVE SMOOTH",
"16 640 LINE",
"16 660 LINE",
"431 660 LINE SMOOTH",
"500 660 OFFCURVE",
"516 620 OFFCURVE",
"516 580 CURVE SMOOTH",
"516 505 LINE",
"496 505 LINE",
"496 585 OFFCURVE",
"451 620 OFFCURVE",
"371 620 CURVE SMOOTH",
"196 620 LINE",
"196 0 LINE",
"106 0 LINE"
);
},
{
closed = 1;
nodes = (
"286 700 LINE",
"236 700 LINE",
"306 815 LINE",
"391 815 LINE"
);
}
);
width = 537;
}
);
leftKerningGroup = afii10018;
rightKerningGroup = afii10020;
unicode = 0403;
},
{
glyphname = afii10053;
lastChange = "2015-07-19 18:37:38 +0000";
layers = (
{
layerId = UUID0;
name = Regular;
paths = (
{
closed = 1;
nodes = (
"589 450 LINE",
"564 581 OFFCURVE",
"495 640 OFFCURVE",
"384 640 CURVE SMOOTH",
"260 640 OFFCURVE",
"155 565 OFFCURVE",
"144 350 CURVE",
"475 350 LINE",
"475 310 LINE",
"144 310 LINE",
"149 165 OFFCURVE",
"219 20 OFFCURVE",
"384 20 CURVE SMOOTH",
"484 20 OFFCURVE",
"553 69 OFFCURVE",
"609 160 CURVE",
"629 145 LINE",
"565 20 OFFCURVE",
"473 -20 OFFCURVE",
"354 -20 CURVE SMOOTH",
"164 -20 OFFCURVE",
"44 131 OFFCURVE",
"44 320 CURVE SMOOTH",
"44 520 OFFCURVE",
"183 680 OFFCURVE",
"354 680 CURVE SMOOTH",
"465 680 OFFCURVE",
"548 644 OFFCURVE",
"584 600 CURVE SMOOTH",
"609 569 OFFCURVE",
"609 510 OFFCURVE",
"609 450 CURVE"
);
}
);
width = 665;
}
);
leftKerningGroup = afii10032;
rightKerningGroup = afii10035;
unicode = 0404;
},
{
glyphname = afii10058;
lastChange = "2015-07-19 18:37:38 +0000";
layers = (
{
layerId = UUID0;
name = Regular;
paths = (
{
closed = 1;
nodes = (
"839 295 OFFCURVE",
"771 345 OFFCURVE",
"659 345 CURVE SMOOTH",
"628 345 OFFCURVE",
"595 341 OFFCURVE",
"564 330 CURVE",
"564 50 LINE",
"595 39 OFFCURVE",
"628 35 OFFCURVE",
"659 35 CURVE SMOOTH",
"771 35 OFFCURVE",
"839 85 OFFCURVE",
"839 190 CURVE SMOOTH"
);
},
{
closed = 1;
nodes = (
"564 660 LINE",
"564 380 LINE",
"674 380 LINE SMOOTH",
"790 380 OFFCURVE",
"939 350 OFFCURVE",
"939 190 CURVE SMOOTH",
"939 30 OFFCURVE",
"790 0 OFFCURVE",
"674 0 CURVE SMOOTH",
"474 0 LINE",
"474 620 LINE",
"234 620 LINE",
"234 540 LINE SMOOTH",
"234 85 OFFCURVE",
"144 -10 OFFCURVE",
"44 -10 CURVE SMOOTH",
"29 -10 OFFCURVE",
"9 -6 OFFCURVE",
"-6 -1 CURVE",
"-6 24 LINE",
"82 28 OFFCURVE",
"159 103 OFFCURVE",
"159 540 CURVE SMOOTH",
"159 600 OFFCURVE",
"149 640 OFFCURVE",
"89 640 CURVE SMOOTH",
"79 640 LINE",
"79 660 LINE"
);
}
);
width = 964;
}
);
leftKerningGroup = afii10029;
rightKerningGroup = afii10044;
unicode = 0409;
},
{
glyphname = afii10059;
lastChange = "2015-07-19 18:37:38 +0000";
layers = (
{
layerId = UUID0;
name = Regular;
paths = (
{
closed = 1;
nodes = (
"576 360 LINE",
"686 360 LINE SMOOTH",
"802 360 OFFCURVE",
"951 330 OFFCURVE",
"951 180 CURVE SMOOTH",
"951 30 OFFCURVE",
"802 0 OFFCURVE",
"686 0 CURVE SMOOTH",
"486 0 LINE",
"486 320 LINE",
"196 320 LINE",
"196 0 LINE",
"106 0 LINE",
"106 540 LINE SMOOTH",
"106 600 OFFCURVE",
"96 640 OFFCURVE",
"36 640 CURVE SMOOTH",
"16 640 LINE",
"16 660 LINE",
"106 660 LINE SMOOTH",
"176 660 OFFCURVE",
"196 640 OFFCURVE",
"196 540 CURVE SMOOTH",
"196 360 LINE",
"486 360 LINE",
"486 660 LINE",
"576 660 LINE"
);
},
{
closed = 1;
nodes = (
"851 276 OFFCURVE",
"782 325 OFFCURVE",
"671 325 CURVE SMOOTH",
"640 325 OFFCURVE",
"607 321 OFFCURVE",
"576 310 CURVE",
"576 50 LINE",
"607 39 OFFCURVE",
"640 35 OFFCURVE",
"671 35 CURVE SMOOTH",
"782 35 OFFCURVE",
"851 84 OFFCURVE",
"851 180 CURVE SMOOTH"
);
}
);
width = 974;
}
);
leftKerningGroup = afii10018;
unicode = 040A;
},
{
glyphname = afii10060;
lastChange = "2015-07-19 18:37:38 +0000";
layers = (
{
layerId = UUID0;
name = Regular;
paths = (
{
closed = 1;
nodes = (
"219 0 LINE",
"129 0 LINE",
"129 620 LINE",
"-1 620 LINE",
"-1 660 LINE",
"349 660 LINE",
"349 620 LINE",
"219 620 LINE",
"219 390 LINE",
"250 410 OFFCURVE",
"318 430 OFFCURVE",
"389 430 CURVE SMOOTH",
"494 430 OFFCURVE",
"589 395 OFFCURVE",
"589 250 CURVE SMOOTH",
"589 0 LINE",
"499 0 LINE",
"499 250 LINE SMOOTH",
"499 350 OFFCURVE",
"434 385 OFFCURVE",
"359 385 CURVE SMOOTH",
"308 385 OFFCURVE",
"250 365 OFFCURVE",
"219 345 CURVE"
);
}
);
width = 633;
}
);
leftKerningGroup = afii10051;
unicode = 040B;
},
{
glyphname = afii10061;
lastChange = "2015-07-19 18:37:38 +0000";
layers = (
{
layerId = UUID0;
name = Regular;
paths = (
{
closed = 1;
nodes = (
"106 660 LINE SMOOTH",
"176 660 OFFCURVE",
"196 640 OFFCURVE",
"196 540 CURVE SMOOTH",
"196 345 LINE",
"406 555 LINE SMOOTH",
"456 605 OFFCURVE",
"496 660 OFFCURVE",
"576 660 CURVE SMOOTH",
"626 660 LINE",
"626 635 LINE",
"571 635 OFFCURVE",
"536 620 OFFCURVE",
"481 565 CURVE SMOOTH",
"286 370 LINE",
"516 130 LINE",
"573 73 OFFCURVE",
"634 27 OFFCURVE",
"686 19 CURVE",
"686 0 LINE",
"671 -5 OFFCURVE",
"652 -10 OFFCURVE",
"621 -10 CURVE SMOOTH",
"566 -10 OFFCURVE",
"501 10 OFFCURVE",
"406 110 CURVE SMOOTH",
"196 330 LINE",
"196 0 LINE",
"106 0 LINE",
"106 540 LINE SMOOTH",
"106 600 OFFCURVE",
"96 640 OFFCURVE",
"36 640 CURVE SMOOTH",
"16 640 LINE",
"16 660 LINE"
);
},
{
closed = 1;
nodes = (
"326 675 LINE",
"276 675 LINE",
"346 790 LINE",
"431 790 LINE"
);
}
);
width = 677;
}
);
leftKerningGroup = afii10018;
rightKerningGroup = afii10028;
unicode = 040C;
},
{
glyphname = afii10145;
lastChange = "2015-07-19 18:37:38 +0000";
layers = (
{
layerId = UUID0;
name = Regular;
paths = (
{
closed = 1;
nodes = (
"321 -175 LINE",
"306 0 LINE",
"106 0 LINE",
"106 540 LINE SMOOTH",
"106 600 OFFCURVE",
"96 640 OFFCURVE",
"36 640 CURVE SMOOTH",
"16 640 LINE",
"16 660 LINE",
"106 660 LINE SMOOTH",
"176 660 OFFCURVE",
"196 640 OFFCURVE",
"196 540 CURVE SMOOTH",
"196 40 LINE",
"496 40 LINE",
"496 660 LINE",
"586 660 LINE",
"586 0 LINE",
"386 0 LINE",
"371 -175 LINE"
);
}
);
width = 672;
}
);
leftKerningGroup = afii10018;
rightKerningGroup = afii10026;
unicode = 040F;
},
{
glyphname = afii10018;
lastChange = "2015-07-19 18:37:38 +0000";
layers = (
{
layerId = UUID0;
name = Regular;
paths = (
{
closed = 1;
nodes = (
"471 295 OFFCURVE",
"402 345 OFFCURVE",
"291 345 CURVE SMOOTH",
"260 345 OFFCURVE",
"227 340 OFFCURVE",
"196 331 CURVE",
"196 49 LINE",
"227 40 OFFCURVE",
"260 35 OFFCURVE",
"291 35 CURVE SMOOTH",
"402 35 OFFCURVE",
"471 85 OFFCURVE",
"471 190 CURVE SMOOTH"
);
},
{
closed = 1;
nodes = (
"437 660 LINE SMOOTH",
"506 660 OFFCURVE",
"522 620 OFFCURVE",
"522 580 CURVE SMOOTH",
"522 505 LINE",
"502 505 LINE",
"502 585 OFFCURVE",
"457 620 OFFCURVE",
"377 620 CURVE SMOOTH",
"196 620 LINE",
"196 380 LINE",
"306 380 LINE SMOOTH",
"422 380 OFFCURVE",
"571 350 OFFCURVE",
"571 190 CURVE SMOOTH",
"571 30 OFFCURVE",
"422 0 OFFCURVE",
"306 0 CURVE SMOOTH",
"106 0 LINE",
"106 540 LINE SMOOTH",
"106 600 OFFCURVE",
"96 640 OFFCURVE",
"36 640 CURVE SMOOTH",
"16 640 LINE",
"16 660 LINE"
);
}
);
width = 608;
}
);
leftKerningGroup = afii10018;
unicode = 0411;
},
{
glyphname = afii10020;
lastChange = "2015-07-19 18:37:38 +0000";
layers = (
{
layerId = UUID0;
name = Regular;
paths = (
{
closed = 1;
nodes = (
"106 540 LINE SMOOTH",
"106 600 OFFCURVE",
"96 640 OFFCURVE",
"36 640 CURVE SMOOTH",
"16 640 LINE",
"16 660 LINE",
"431 660 LINE SMOOTH",
"500 660 OFFCURVE",
"516 620 OFFCURVE",
"516 580 CURVE SMOOTH",
"516 505 LINE",
"496 505 LINE",
"496 585 OFFCURVE",
"451 620 OFFCURVE",
"371 620 CURVE SMOOTH",
"196 620 LINE",
"196 0 LINE",
"106 0 LINE"
);
}
);
width = 537;
}
);
leftKerningGroup = afii10018;
rightKerningGroup = afii10020;
unicode = 0413;
},
{
glyphname = afii10021;
lastChange = "2015-07-19 18:37:38 +0000";
layers = (
{
layerId = UUID0;
name = Regular;
paths = (
{
closed = 1;
nodes = (
"488 40 LINE",
"488 620 LINE",
"228 620 LINE",
"228 349 OFFCURVE",
"207 177 OFFCURVE",
"148 40 CURVE"
);
},
{
closed = 1;
nodes = (
"633 40 LINE SMOOTH",
"653 40 OFFCURVE",
"668 25 OFFCURVE",
"668 5 CURVE SMOOTH",
"668 -180 LINE",
"623 -180 LINE",
"607 -44 OFFCURVE",
"569 0 OFFCURVE",
"498 0 CURVE SMOOTH",
"173 0 LINE SMOOTH",
"102 0 OFFCURVE",
"64 -44 OFFCURVE",
"48 -180 CURVE",
"3 -180 LINE",
"3 5 LINE SMOOTH",
"3 25 OFFCURVE",
"18 40 OFFCURVE",
"38 40 CURVE SMOOTH",
"78 40 LINE",
"143 181 OFFCURVE",
"163 349 OFFCURVE",
"163 540 CURVE SMOOTH",
"163 600 OFFCURVE",
"153 640 OFFCURVE",
"93 640 CURVE SMOOTH",
"78 640 LINE",
"78 660 LINE",
"578 660 LINE",
"578 40 LINE"
);
}
);
width = 687;
}
);
rightKerningGroup = afii10021;
unicode = 0414;
},
{
glyphname = afii10024;
lastChange = "2015-07-19 18:37:38 +0000";
layers = (
{
layerId = UUID0;
name = Regular;
paths = (
{
closed = 1;
nodes = (
"341 370 LINE",
"186 565 LINE SMOOTH",
"141 622 OFFCURVE",
"96 635 OFFCURVE",
"51 635 CURVE",
"51 660 LINE",
"101 660 LINE SMOOTH",
"171 660 OFFCURVE",
"216 611 OFFCURVE",
"261 555 CURVE SMOOTH",
"431 345 LINE",
"431 660 LINE",
"518 660 LINE",
"518 345 LINE",
"688 555 LINE",
"731 611 OFFCURVE",
"780 660 OFFCURVE",
"848 660 CURVE SMOOTH",
"898 660 LINE",
"898 635 LINE",
"853 635 OFFCURVE",
"808 622 OFFCURVE",
"763 565 CURVE SMOOTH",
"608 370 LINE",
"798 130 LINE",
"846 71 OFFCURVE",
"912 24 OFFCURVE",
"958 19 CURVE",
"958 0 LINE",
"943 -5 OFFCURVE",
"924 -10 OFFCURVE",
"893 -10 CURVE SMOOTH",
"848 -10 OFFCURVE",
"768 7 OFFCURVE",
"688 110 CURVE SMOOTH",
"518 330 LINE",
"518 0 LINE",
"431 0 LINE",
"431 330 LINE",
"261 110 LINE SMOOTH",
"181 7 OFFCURVE",
"101 -10 OFFCURVE",
"56 -10 CURVE SMOOTH",
"25 -10 OFFCURVE",
"6 -5 OFFCURVE",
"-9 0 CURVE",
"-9 19 LINE",
"37 24 OFFCURVE",
"103 71 OFFCURVE",
"151 130 CURVE"
);
}
);
width = 949;
}
);
unicode = 0416;
},
{
glyphname = afii10025;
lastChange = "2015-07-19 18:37:38 +0000";
layers = (
{
layerId = UUID0;
name = Regular;
paths = (
{
closed = 1;
nodes = (
"165 355 LINE",
"240 355 LINE SMOOTH",
"330 355 OFFCURVE",
"410 405 OFFCURVE",
"410 500 CURVE SMOOTH",
"410 595 OFFCURVE",
"335 640 OFFCURVE",
"260 640 CURVE SMOOTH",
"164 640 OFFCURVE",
"95 580 OFFCURVE",
"70 480 CURVE",
"50 480 LINE",
"50 540 OFFCURVE",
"50 579 OFFCURVE",
"75 610 CURVE SMOOTH",
"110 653 OFFCURVE",
"196 680 OFFCURVE",
"265 680 CURVE SMOOTH",
"365 680 OFFCURVE",
"505 655 OFFCURVE",
"505 495 CURVE SMOOTH",
"505 430 OFFCURVE",
"461 371 OFFCURVE",
"365 340 CURVE",
"490 316 OFFCURVE",
"530 254 OFFCURVE",
"530 170 CURVE SMOOTH",
"530 15 OFFCURVE",
"380 -20 OFFCURVE",
"270 -20 CURVE SMOOTH",
"170 -20 OFFCURVE",
"90 10 OFFCURVE",
"30 105 CURVE",
"50 120 LINE",
"95 60 OFFCURVE",
"159 20 OFFCURVE",
"255 20 CURVE SMOOTH",
"360 20 OFFCURVE",
"430 73 OFFCURVE",
"430 165 CURVE SMOOTH",
"430 261 OFFCURVE",
"365 315 OFFCURVE",
"240 315 CURVE SMOOTH",
"165 315 LINE"
);
}
);
width = 570;
}
);
unicode = 0417;
},
{
glyphname = afii10026;
lastChange = "2015-07-19 18:37:38 +0000";
layers = (
{
layerId = UUID0;
name = Regular;
paths = (
{
closed = 1;
nodes = (
"516 570 LINE",
"196 0 LINE",
"106 0 LINE",
"106 540 LINE SMOOTH",
"106 600 OFFCURVE",
"96 640 OFFCURVE",
"36 640 CURVE SMOOTH",
"16 640 LINE",
"16 660 LINE",
"106 660 LINE SMOOTH",
"176 660 OFFCURVE",
"196 640 OFFCURVE",
"196 540 CURVE SMOOTH",
"196 90 LINE",
"516 660 LINE",
"606 660 LINE",
"606 0 LINE",
"516 0 LINE"
);
}
);
width = 692;
}
);
leftKerningGroup = afii10018;
rightKerningGroup = afii10026;
unicode = 0418;
},
{
glyphname = afii10029;
lastChange = "2015-07-19 18:37:38 +0000";
layers = (
{
layerId = UUID0;
name = Regular;
paths = (
{
closed = 1;
nodes = (
"159 600 OFFCURVE",
"149 640 OFFCURVE",
"89 640 CURVE SMOOTH",
"79 640 LINE",
"79 660 LINE",
"574 660 LINE",
"574 0 LINE",
"484 0 LINE",
"484 620 LINE",
"234 620 LINE",
"234 540 LINE SMOOTH",
"234 85 OFFCURVE",
"144 -10 OFFCURVE",
"44 -10 CURVE SMOOTH",
"29 -10 OFFCURVE",
"9 -6 OFFCURVE",
"-6 -1 CURVE",
"-6 24 LINE",
"82 28 OFFCURVE",
"159 103 OFFCURVE",
"159 540 CURVE SMOOTH"
);
}
);
width = 660;
}
);
leftKerningGroup = afii10029;
rightKerningGroup = afii10026;
unicode = 041B;
},
{
glyphname = afii10033;
lastChange = "2015-07-19 18:37:38 +0000";
layers = (
{
layerId = UUID0;
name = Regular;
paths = (
{
closed = 1;
nodes = (
"586 0 LINE",
"496 0 LINE",
"496 620 LINE",
"196 620 LINE",
"196 0 LINE",
"106 0 LINE",
"106 540 LINE SMOOTH",
"106 600 OFFCURVE",
"96 640 OFFCURVE",
"36 640 CURVE SMOOTH",
"16 640 LINE",
"16 660 LINE",
"586 660 LINE"
);
}
);
width = 672;
}
);
leftKerningGroup = afii10018;
rightKerningGroup = afii10026;
unicode = 041F;
},
{
glyphname = afii10037;
lastChange = "2015-07-19 18:37:38 +0000";
layers = (
{
layerId = UUID0;
name = Regular;
paths = (
{
closed = 1;
nodes = (
"292 120 LINE",
"107 530 LINE",
"83 586 OFFCURVE",
"61 635 OFFCURVE",
"-28 640 CURVE",
"-28 660 LINE",
"92 660 LINE SMOOTH",
"156 660 OFFCURVE",
"188 605 OFFCURVE",
"212 550 CURVE SMOOTH",
"347 250 LINE",
"527 660 LINE",
"587 660 LINE",
"341 95 LINE SMOOTH",
"313 30 OFFCURVE",
"262 -10 OFFCURVE",
"182 -10 CURVE SMOOTH",
"132 -10 LINE",
"132 20 LINE",
"191 20 OFFCURVE",
"258 35 OFFCURVE",
"282 95 CURVE SMOOTH"
);
}
);
width = 607;
}
);
leftKerningGroup = afii10037;
rightKerningGroup = afii10037;
unicode = 0423;
},
{
glyphname = afii10038;
lastChange = "2015-07-19 18:37:38 +0000";
layers = (
{
layerId = UUID0;
name = Regular;
paths = (
{
closed = 1;
nodes = (
"135 184 OFFCURVE",
"185 75 OFFCURVE",
"345 75 CURVE",
"345 555 LINE",
"185 555 OFFCURVE",
"135 446 OFFCURVE",
"135 315 CURVE SMOOTH"
);
},
{
closed = 1;
nodes = (
"645 446 OFFCURVE",
"595 555 OFFCURVE",
"435 555 CURVE",
"435 75 LINE",
"595 75 OFFCURVE",
"645 184 OFFCURVE",
"645 315 CURVE SMOOTH"
);
},
{
closed = 1;
nodes = (
"435 595 LINE",
"645 595 OFFCURVE",
"745 485 OFFCURVE",
"745 315 CURVE SMOOTH",
"745 145 OFFCURVE",
"645 35 OFFCURVE",
"435 35 CURVE",
"435 -30 LINE",
"345 -30 LINE",
"345 35 LINE",
"135 35 OFFCURVE",
"35 145 OFFCURVE",
"35 315 CURVE SMOOTH",
"35 485 OFFCURVE",
"135 595 OFFCURVE",
"345 595 CURVE",
"345 600 LINE SMOOTH",
"345 651 OFFCURVE",
"326 670 OFFCURVE",
"275 670 CURVE SMOOTH",
"255 670 LINE",
"255 690 LINE",
"345 690 LINE SMOOTH",
"414 690 OFFCURVE",
"435 669 OFFCURVE",
"435 600 CURVE SMOOTH"
);
}
);
width = 780;
}
);
unicode = 0424;
},
{
glyphname = afii10040;
lastChange = "2015-07-19 18:37:38 +0000";
layers = (
{
layerId = UUID0;
name = Regular;
paths = (
{
closed = 1;
nodes = (
"106 0 LINE",
"106 540 LINE SMOOTH",
"106 600 OFFCURVE",
"96 640 OFFCURVE",
"36 640 CURVE SMOOTH",
"16 640 LINE",
"16 660 LINE",
"106 660 LINE SMOOTH",
"176 660 OFFCURVE",
"196 640 OFFCURVE",
"196 540 CURVE SMOOTH",
"196 40 LINE",
"496 40 LINE",
"496 660 LINE",
"586 660 LINE",
"586 40 LINE",
"641 40 LINE SMOOTH",
"661 40 OFFCURVE",
"676 25 OFFCURVE",
"676 5 CURVE SMOOTH",
"676 -180 LINE",
"631 -180 LINE",
"615 -44 OFFCURVE",
"577 0 OFFCURVE",
"506 0 CURVE SMOOTH"
);
}
);
width = 695;
}
);
leftKerningGroup = afii10018;
rightKerningGroup = afii10021;
unicode = 0426;
},
{
glyphname = afii10041;
lastChange = "2015-07-19 18:37:38 +0000";
layers = (
{
layerId = UUID0;
name = Regular;
paths = (
{
closed = 1;
nodes = (
"374 290 OFFCURVE",
"429 295 OFFCURVE",
"464 310 CURVE",
"464 660 LINE",
"554 660 LINE",
"554 0 LINE",
"464 0 LINE",
"464 270 LINE",
"430 254 OFFCURVE",
"368 250 OFFCURVE",
"329 250 CURVE SMOOTH",
"194 250 OFFCURVE",
"84 280 OFFCURVE",
"84 460 CURVE SMOOTH",
"84 540 LINE SMOOTH",
"84 600 OFFCURVE",
"74 640 OFFCURVE",
"14 640 CURVE SMOOTH",
"4 640 LINE",
"4 660 LINE",
"94 660 LINE SMOOTH",
"164 660 OFFCURVE",
"184 640 OFFCURVE",
"184 540 CURVE SMOOTH",
"184 450 LINE SMOOTH",
"184 319 OFFCURVE",
"234 290 OFFCURVE",
"334 290 CURVE SMOOTH"
);
}
);
width = 640;
}
);
rightKerningGroup = afii10026;
unicode = 0427;
},
{
glyphname = afii10042;
lastChange = "2015-07-19 18:37:38 +0000";
layers = (
{
layerId = UUID0;
name = Regular;
paths = (
{
closed = 1;
nodes = (
"106 0 LINE",
"106 540 LINE SMOOTH",
"106 600 OFFCURVE",
"96 640 OFFCURVE",
"36 640 CURVE SMOOTH",
"16 640 LINE",
"16 660 LINE",
"106 660 LINE SMOOTH",
"176 660 OFFCURVE",
"196 640 OFFCURVE",
"196 540 CURVE SMOOTH",
"196 40 LINE",
"431 40 LINE",
"431 660 LINE",
"521 660 LINE",
"521 40 LINE",
"756 40 LINE",
"756 660 LINE",
"846 660 LINE",
"846 0 LINE"
);
}
);
width = 932;
}
);
leftKerningGroup = afii10018;
rightKerningGroup = afii10026;
unicode = 0428;
},
{
glyphname = afii10043;
lastChange = "2015-07-19 18:37:38 +0000";
layers = (
{
layerId = UUID0;
name = Regular;
paths = (
{
closed = 1;
nodes = (
"106 0 LINE",
"106 540 LINE SMOOTH",
"106 600 OFFCURVE",
"96 640 OFFCURVE",
"36 640 CURVE SMOOTH",
"16 640 LINE",
"16 660 LINE",
"106 660 LINE SMOOTH",
"176 660 OFFCURVE",
"196 640 OFFCURVE",
"196 540 CURVE SMOOTH",
"196 40 LINE",
"431 40 LINE",
"431 660 LINE",
"521 660 LINE",
"521 40 LINE",
"756 40 LINE",
"756 660 LINE",
"846 660 LINE",
"846 40 LINE",
"901 40 LINE SMOOTH",
"921 40 OFFCURVE",
"936 25 OFFCURVE",
"936 5 CURVE SMOOTH",
"936 -180 LINE",
"891 -180 LINE",
"875 -44 OFFCURVE",
"837 0 OFFCURVE",
"766 0 CURVE SMOOTH"
);
}
);
width = 955;
}
);
leftKerningGroup = afii10018;
rightKerningGroup = afii10021;
unicode = 0429;
},
{
glyphname = afii10044;
lastChange = "2015-07-19 18:37:38 +0000";
layers = (
{
layerId = UUID0;
name = Regular;
paths = (
{
closed = 1;
nodes = (
"579 295 OFFCURVE",
"510 345 OFFCURVE",
"399 345 CURVE SMOOTH",
"368 345 OFFCURVE",
"335 340 OFFCURVE",
"304 331 CURVE",
"304 49 LINE",
"335 40 OFFCURVE",
"368 35 OFFCURVE",
"399 35 CURVE SMOOTH",
"510 35 OFFCURVE",
"579 85 OFFCURVE",
"579 190 CURVE SMOOTH"
);
},
{
closed = 1;
nodes = (
"29 625 LINE SMOOTH",
"29 645 OFFCURVE",
"44 660 OFFCURVE",
"64 660 CURVE SMOOTH",
"304 660 LINE",
"304 380 LINE",
"414 380 LINE SMOOTH",
"530 380 OFFCURVE",
"679 350 OFFCURVE",
"679 190 CURVE SMOOTH",
"679 30 OFFCURVE",
"530 0 OFFCURVE",
"414 0 CURVE SMOOTH",
"214 0 LINE",
"214 620 LINE",
"184 620 LINE SMOOTH",
"98 620 OFFCURVE",
"64 585 OFFCURVE",
"59 470 CURVE",
"29 470 LINE"
);
}
);
width = 704;
}
);
rightKerningGroup = afii10044;
unicode = 042A;
},
{
glyphname = afii10045;
lastChange = "2015-07-19 18:37:38 +0000";
layers = (
{
layerId = UUID0;
name = Regular;
paths = (
{
closed = 1;
nodes = (
"196 380 LINE",
"306 380 LINE SMOOTH",
"406 380 OFFCURVE",
"556 350 OFFCURVE",
"556 190 CURVE SMOOTH",
"556 30 OFFCURVE",
"406 0 OFFCURVE",
"306 0 CURVE SMOOTH",
"106 0 LINE",
"106 540 LINE SMOOTH",
"106 600 OFFCURVE",
"96 640 OFFCURVE",
"36 640 CURVE SMOOTH",
"16 640 LINE",
"16 660 LINE",
"106 660 LINE SMOOTH",
"176 660 OFFCURVE",
"196 640 OFFCURVE",
"196 540 CURVE SMOOTH"
);
},
{
closed = 1;
nodes = (
"456 295 OFFCURVE",
"386 345 OFFCURVE",
"291 345 CURVE SMOOTH",
"260 345 OFFCURVE",
"227 340 OFFCURVE",
"196 331 CURVE",
"196 49 LINE",
"227 40 OFFCURVE",
"260 35 OFFCURVE",
"291 35 CURVE SMOOTH",
"386 35 OFFCURVE",
"456 85 OFFCURVE",
"456 190 CURVE SMOOTH"
);
},
{
closed = 1;
nodes = (
"636 660 LINE",
"726 660 LINE",
"726 120 LINE SMOOTH",
"726 60 OFFCURVE",
"736 20 OFFCURVE",
"796 20 CURVE SMOOTH",
"816 20 LINE",
"816 0 LINE",
"726 0 LINE SMOOTH",
"656 0 OFFCURVE",
"636 20 OFFCURVE",
"636 120 CURVE SMOOTH"
);
}
);
width = 832;
}
);
leftKerningGroup = afii10018;
rightKerningGroup = afii10031;
unicode = 042B;
},
{
glyphname = afii10046;
lastChange = "2015-07-19 18:37:38 +0000";
layers = (
{
layerId = UUID0;
name = Regular;
paths = (
{
closed = 1;
nodes = (
"471 295 OFFCURVE",
"402 345 OFFCURVE",
"291 345 CURVE SMOOTH",
"260 345 OFFCURVE",
"227 340 OFFCURVE",
"196 331 CURVE",
"196 49 LINE",
"227 40 OFFCURVE",
"260 35 OFFCURVE",
"291 35 CURVE SMOOTH",
"402 35 OFFCURVE",
"471 85 OFFCURVE",
"471 190 CURVE SMOOTH"
);
},
{
closed = 1;
nodes = (
"196 380 LINE",
"306 380 LINE SMOOTH",
"422 380 OFFCURVE",
"571 350 OFFCURVE",
"571 190 CURVE SMOOTH",
"571 30 OFFCURVE",
"422 0 OFFCURVE",
"306 0 CURVE SMOOTH",
"106 0 LINE",
"106 540 LINE SMOOTH",
"106 600 OFFCURVE",
"96 640 OFFCURVE",
"36 640 CURVE SMOOTH",
"16 640 LINE",
"16 660 LINE",
"106 660 LINE SMOOTH",
"176 660 OFFCURVE",
"196 640 OFFCURVE",
"196 540 CURVE SMOOTH"
);
}
);
width = 596;
}
);
leftKerningGroup = afii10018;
rightKerningGroup = afii10044;
unicode = 042C;
},
{
glyphname = afii10047;
lastChange = "2015-07-19 18:37:38 +0000";
layers = (
{
layerId = UUID0;
name = Regular;
paths = (
{
closed = 1;
nodes = (
"55 450 LINE",
"55 510 OFFCURVE",
"55 569 OFFCURVE",
"80 600 CURVE SMOOTH",
"116 644 OFFCURVE",
"199 680 OFFCURVE",
"310 680 CURVE SMOOTH",
"481 680 OFFCURVE",
"620 520 OFFCURVE",
"620 320 CURVE SMOOTH",
"620 131 OFFCURVE",
"500 -20 OFFCURVE",
"310 -20 CURVE SMOOTH",
"191 -20 OFFCURVE",
"99 20 OFFCURVE",
"35 145 CURVE",
"55 160 LINE",
"111 69 OFFCURVE",
"180 20 OFFCURVE",
"280 20 CURVE SMOOTH",
"445 20 OFFCURVE",
"515 165 OFFCURVE",
"520 310 CURVE",
"189 310 LINE",
"189 350 LINE",
"520 350 LINE",
"509 565 OFFCURVE",
"404 640 OFFCURVE",
"280 640 CURVE SMOOTH",
"169 640 OFFCURVE",
"100 581 OFFCURVE",
"75 450 CURVE"
);
}
);
width = 665;
}
);
rightKerningGroup = afii10032;
unicode = 042D;
},
{
glyphname = afii10048;
lastChange = "2015-07-19 18:37:38 +0000";
layers = (
{
layerId = UUID0;
name = Regular;
paths = (
{
closed = 1;
nodes = (
"705 680 OFFCURVE",
"826 541 OFFCURVE",
"826 330 CURVE SMOOTH",
"826 119 OFFCURVE",
"705 -20 OFFCURVE",
"546 -20 CURVE SMOOTH",
"388 -20 OFFCURVE",
"271 116 OFFCURVE",
"266 320 CURVE",
"196 320 LINE",
"196 0 LINE",
"106 0 LINE",
"106 540 LINE SMOOTH",
"106 600 OFFCURVE",
"96 640 OFFCURVE",
"36 640 CURVE SMOOTH",
"16 640 LINE",
"16 660 LINE",
"106 660 LINE SMOOTH",
"176 660 OFFCURVE",
"196 640 OFFCURVE",
"196 540 CURVE SMOOTH",
"196 360 LINE",
"267 360 LINE",
"280 555 OFFCURVE",
"394 680 OFFCURVE",
"546 680 CURVE SMOOTH"
);
},
{
closed = 1;
nodes = (
"446 640 OFFCURVE",
"366 530 OFFCURVE",
"366 330 CURVE SMOOTH",
"366 130 OFFCURVE",
"446 20 OFFCURVE",
"546 20 CURVE SMOOTH",
"646 20 OFFCURVE",
"726 130 OFFCURVE",
"726 330 CURVE SMOOTH",
"726 530 OFFCURVE",
"646 640 OFFCURVE",
"546 640 CURVE SMOOTH"
);
}
);
width = 873;
}
);
leftKerningGroup = afii10018;
rightKerningGroup = afii10032;
unicode = 042E;
},
{
glyphname = afii10049;
lastChange = "2015-07-19 18:37:38 +0000";
layers = (
{
layerId = UUID0;
name = Regular;
paths = (
{
closed = 1;
nodes = (
"414 270 LINE",
"317 270 LINE",
"212 80 LINE SMOOTH",
"173 9 OFFCURVE",
"133 -10 OFFCURVE",
"74 -10 CURVE SMOOTH",
"54 -10 OFFCURVE",
"29 -4 OFFCURVE",
"14 1 CURVE",
"14 20 LINE",
"65 25 OFFCURVE",
"97 55 OFFCURVE",
"124 100 CURVE SMOOTH",
"229 280 LINE",
"164 296 OFFCURVE",
"84 340 OFFCURVE",
"84 460 CURVE SMOOTH",
"84 640 OFFCURVE",
"249 660 OFFCURVE",
"334 660 CURVE SMOOTH",
"584 660 LINE",
"584 640 LINE",
"574 640 LINE SMOOTH",
"514 640 OFFCURVE",
"504 600 OFFCURVE",
"504 540 CURVE SMOOTH",
"504 0 LINE",
"414 0 LINE"
);
},
{
closed = 1;
nodes = (
"364 305 OFFCURVE",
"394 310 OFFCURVE",
"414 315 CURVE",
"414 615 LINE",
"394 620 OFFCURVE",
"364 625 OFFCURVE",
"339 625 CURVE SMOOTH",
"284 625 OFFCURVE",
"184 585 OFFCURVE",
"184 465 CURVE SMOOTH",
"184 345 OFFCURVE",
"284 305 OFFCURVE",
"339 305 CURVE SMOOTH"
);
}
);
width = 608;
}
);
unicode = 042F;
},
{
glyphname = afii10066;
lastChange = "2015-07-19 18:37:38 +0000";
layers = (
{
layerId = UUID0;
name = Regular;
paths = (
{
closed = 1;
nodes = (
"210 400 OFFCURVE",
"155 355 OFFCURVE",
"155 215 CURVE SMOOTH",
"155 70 OFFCURVE",
"210 30 OFFCURVE",
"270 30 CURVE SMOOTH",
"330 30 OFFCURVE",
"385 70 OFFCURVE",
"385 215 CURVE SMOOTH",
"385 355 OFFCURVE",
"330 400 OFFCURVE",
"270 400 CURVE SMOOTH"
);
},
{
closed = 1;
nodes = (
"245 530 LINE",
"159 508 OFFCURVE",
"116 466 OFFCURVE",
"105 300 CURVE",
"110 300 LINE",
"135 400 OFFCURVE",
"190 440 OFFCURVE",
"290 440 CURVE SMOOTH",
"390 440 OFFCURVE",
"480 370 OFFCURVE",
"480 215 CURVE SMOOTH",
"480 60 OFFCURVE",
"390 -10 OFFCURVE",
"270 -10 CURVE SMOOTH",
"150 -10 OFFCURVE",
"60 59 OFFCURVE",
"60 230 CURVE SMOOTH",
"60 270 LINE SMOOTH",
"60 515 OFFCURVE",
"100 576 OFFCURVE",
"205 600 CURVE SMOOTH",
"355 635 LINE SMOOTH",
"400 646 OFFCURVE",
"425 655 OFFCURVE",
"430 680 CURVE",
"450 680 LINE",
"450 615 LINE SMOOTH",
"450 590 OFFCURVE",
"440 575 OFFCURVE",
"420 570 CURVE SMOOTH"
);
}
);
width = 528;
}
);
unicode = 0431;
},
{
glyphname = afii10067;
lastChange = "2015-07-19 18:37:38 +0000";
layers = (
{
layerId = UUID0;
name = Regular;
paths = (
{
closed = 1;
nodes = (
"172 225 LINE",
"172 45 LINE",
"187 40 OFFCURVE",
"217 35 OFFCURVE",
"237 35 CURVE SMOOTH",
"317 35 OFFCURVE",
"362 65 OFFCURVE",
"362 130 CURVE SMOOTH",
"362 193 OFFCURVE",
"317 225 OFFCURVE",
"227 225 CURVE SMOOTH"
);
},
{
closed = 1;
nodes = (
"172 265 LINE",
"227 265 LINE SMOOTH",
"298 265 OFFCURVE",
"342 294 OFFCURVE",
"342 350 CURVE SMOOTH",
"342 406 OFFCURVE",
"297 435 OFFCURVE",
"237 435 CURVE SMOOTH",
"217 435 OFFCURVE",
"187 430 OFFCURVE",
"172 425 CURVE"
);
},
{
closed = 1;
nodes = (
"247 470 LINE SMOOTH",
"347 470 OFFCURVE",
"437 441 OFFCURVE",
"437 350 CURVE SMOOTH",
"437 294 OFFCURVE",
"408 260 OFFCURVE",
"337 245 CURVE",
"413 230 OFFCURVE",
"457 190 OFFCURVE",
"457 130 CURVE SMOOTH",
"457 29 OFFCURVE",
"367 0 OFFCURVE",
"247 0 CURVE SMOOTH",
"82 0 LINE",
"82 350 LINE SMOOTH",
"82 410 OFFCURVE",
"72 450 OFFCURVE",
"12 450 CURVE SMOOTH",
"2 450 LINE",
"2 470 LINE"
);
}
);
width = 501;
}
);
leftKerningGroup = afii10067;
unicode = 0432;
},
{
glyphname = afii10068;
lastChange = "2015-07-19 18:37:38 +0000";
layers = (
{
layerId = UUID0;
name = Regular;
paths = (
{
closed = 1;
nodes = (
"82 350 LINE SMOOTH",
"82 410 OFFCURVE",
"72 450 OFFCURVE",
"12 450 CURVE SMOOTH",
"2 450 LINE",
"2 470 LINE",
"332 470 LINE SMOOTH",
"392 470 OFFCURVE",
"407 430 OFFCURVE",
"407 390 CURVE SMOOTH",
"407 330 LINE",
"387 330 LINE",
"387 395 OFFCURVE",
"342 430 OFFCURVE",
"282 430 CURVE SMOOTH",
"172 430 LINE",
"172 0 LINE",
"82 0 LINE"
);
}
);
width = 435;
}
);
leftKerningGroup = afii10067;
rightKerningGroup = afii10068;
unicode = 0433;
},
{
glyphname = afii10069;
lastChange = "2015-07-19 18:37:38 +0000";
layers = (
{
layerId = UUID0;
name = Regular;
paths = (
{
closed = 1;
nodes = (
"141 410 OFFCURVE",
"131 450 OFFCURVE",
"71 450 CURVE",
"71 470 LINE",
"471 470 LINE",
"471 40 LINE",
"511 40 LINE SMOOTH",
"531 40 OFFCURVE",
"546 25 OFFCURVE",
"546 5 CURVE SMOOTH",
"546 -155 LINE",
"506 -155 LINE",
"495 -44 OFFCURVE",
"466 0 OFFCURVE",
"401 0 CURVE SMOOTH",
"161 0 LINE SMOOTH",
"96 0 OFFCURVE",
"67 -44 OFFCURVE",
"56 -155 CURVE",
"16 -155 LINE",
"16 5 LINE SMOOTH",
"16 25 OFFCURVE",
"31 40 OFFCURVE",
"51 40 CURVE SMOOTH",
"81 40 LINE",
"126 139 OFFCURVE",
"141 260 OFFCURVE",
"141 350 CURVE SMOOTH"
);
},
{
closed = 1;
nodes = (
"381 40 LINE",
"381 430 LINE",
"206 430 LINE",
"206 259 OFFCURVE",
"191 140 OFFCURVE",
"151 40 CURVE"
);
}
);
width = 570;
}
);
rightKerningGroup = afii10069;
unicode = 0434;
},
{
glyphname = afii10072;
lastChange = "2015-07-19 18:37:38 +0000";
layers = (
{
layerId = UUID0;
name = Regular;
paths = (
{
closed = 1;
nodes = (
"298 470 LINE",
"388 470 LINE",
"388 230 LINE",
"493 405 LINE SMOOTH",
"518 446 OFFCURVE",
"558 470 OFFCURVE",
"623 470 CURVE SMOOTH",
"648 470 LINE",
"648 445 LINE",
"608 445 OFFCURVE",
"572 431 OFFCURVE",
"553 400 CURVE SMOOTH",
"458 245 LINE",
"563 100 LINE SMOOTH",
"598 51 OFFCURVE",
"633 26 OFFCURVE",
"678 19 CURVE",
"678 0 LINE",
"667 -5 OFFCURVE",
"648 -10 OFFCURVE",
"628 -10 CURVE SMOOTH",
"577 -10 OFFCURVE",
"533 14 OFFCURVE",
"493 70 CURVE SMOOTH",
"388 215 LINE",
"388 0 LINE",
"298 0 LINE",
"298 215 LINE",
"193 70 LINE SMOOTH",
"153 14 OFFCURVE",
"109 -10 OFFCURVE",
"58 -10 CURVE SMOOTH",
"38 -10 OFFCURVE",
"19 -5 OFFCURVE",
"8 0 CURVE",
"8 19 LINE",
"53 26 OFFCURVE",
"88 51 OFFCURVE",
"123 100 CURVE SMOOTH",
"228 245 LINE",
"133 400 LINE SMOOTH",
"114 431 OFFCURVE",
"78 445 OFFCURVE",
"38 445 CURVE",
"38 470 LINE",
"63 470 LINE SMOOTH",
"128 470 OFFCURVE",
"168 446 OFFCURVE",
"193 405 CURVE SMOOTH",
"298 230 LINE"
);
}
);
width = 686;
}
);
unicode = 0436;
},
{
glyphname = afii10073;
lastChange = "2015-07-19 18:37:38 +0000";
layers = (
{
layerId = UUID0;
name = Regular;
paths = (
{
closed = 1;
nodes = (
"131 260 LINE",
"176 260 LINE SMOOTH",
"256 260 OFFCURVE",
"301 290 OFFCURVE",
"301 350 CURVE SMOOTH",
"301 410 OFFCURVE",
"257 440 OFFCURVE",
"201 440 CURVE SMOOTH",
"129 440 OFFCURVE",
"75 400 OFFCURVE",
"71 335 CURVE",
"51 335 LINE",
"51 391 OFFCURVE",
"51 420 OFFCURVE",
"76 445 CURVE SMOOTH",
"101 470 OFFCURVE",
"151 480 OFFCURVE",
"216 480 CURVE SMOOTH",
"306 480 OFFCURVE",
"396 449 OFFCURVE",
"396 350 CURVE SMOOTH",
"396 290 OFFCURVE",
"356 255 OFFCURVE",
"296 240 CURVE",
"368 225 OFFCURVE",
"411 185 OFFCURVE",
"411 125 CURVE SMOOTH",
"411 21 OFFCURVE",
"320 -10 OFFCURVE",
"211 -10 CURVE SMOOTH",
"121 -10 OFFCURVE",
"71 25 OFFCURVE",
"36 70 CURVE",
"56 85 LINE",
"81 60 OFFCURVE",
"117 30 OFFCURVE",
"191 30 CURVE SMOOTH",
"271 30 OFFCURVE",
"316 60 OFFCURVE",
"316 125 CURVE SMOOTH",
"316 188 OFFCURVE",
"269 220 OFFCURVE",
"176 220 CURVE SMOOTH",
"131 220 LINE"
);
}
);
width = 455;
}
);
unicode = 0437;
},
{
glyphname = afii10074;
lastChange = "2015-07-19 18:37:38 +0000";
layers = (
{
layerId = UUID0;
name = Regular;
paths = (
{
closed = 1;
nodes = (
"386 380 LINE",
"176 0 LINE",
"86 0 LINE",
"86 350 LINE SMOOTH",
"86 410 OFFCURVE",
"76 450 OFFCURVE",
"16 450 CURVE SMOOTH",
"1 450 LINE",
"1 470 LINE",
"86 470 LINE SMOOTH",
"156 470 OFFCURVE",
"176 450 OFFCURVE",
"176 350 CURVE SMOOTH",
"176 90 LINE",
"386 470 LINE",
"476 470 LINE",
"476 0 LINE",
"386 0 LINE"
);
}
);
width = 548;
}
);
leftKerningGroup = afii10067;
rightKerningGroup = afii10074;
unicode = 0438;
},
{
glyphname = afii10076;
lastChange = "2015-07-19 18:37:38 +0000";
layers = (
{
layerId = UUID0;
name = Regular;
paths = (
{
closed = 1;
nodes = (
"179 230 LINE",
"304 405 LINE SMOOTH",
"333 445 OFFCURVE",
"369 470 OFFCURVE",
"434 470 CURVE SMOOTH",
"459 470 LINE",
"459 445 LINE",
"428 445 OFFCURVE",
"394 435 OFFCURVE",
"369 400 CURVE SMOOTH",
"259 245 LINE",
"374 100 LINE SMOOTH",
"409 55 OFFCURVE",
"444 26 OFFCURVE",
"489 19 CURVE",
"489 0 LINE",
"478 -5 OFFCURVE",
"459 -10 OFFCURVE",
"439 -10 CURVE SMOOTH",
"388 -10 OFFCURVE",
"339 14 OFFCURVE",
"294 70 CURVE SMOOTH",
"179 215 LINE",
"179 0 LINE",
"89 0 LINE",
"89 350 LINE SMOOTH",
"89 410 OFFCURVE",
"79 450 OFFCURVE",
"19 450 CURVE SMOOTH",
"-1 450 LINE",
"-1 470 LINE",
"89 470 LINE SMOOTH",
"159 470 OFFCURVE",
"179 450 OFFCURVE",
"179 350 CURVE SMOOTH"
);
}
);
width = 497;
}
);
leftKerningGroup = afii10067;
rightKerningGroup = afii10076;
unicode = 043A;
},
{
glyphname = afii10077;
lastChange = "2015-07-19 18:37:38 +0000";
layers = (
{
layerId = UUID0;
name = Regular;
paths = (
{
closed = 1;
nodes = (
"208 350 LINE SMOOTH",
"208 50 OFFCURVE",
"133 -10 OFFCURVE",
"58 -10 CURVE SMOOTH",
"47 -10 OFFCURVE",
"20 -5 OFFCURVE",
"9 -1 CURVE",
"9 24 LINE",
"74 24 OFFCURVE",
"139 75 OFFCURVE",
"139 350 CURVE SMOOTH",
"139 410 OFFCURVE",
"129 450 OFFCURVE",
"68 450 CURVE",
"68 470 LINE",
"474 470 LINE",
"474 0 LINE",
"384 0 LINE",
"384 430 LINE",
"208 430 LINE"
);
}
);
width = 546;
}
);
leftKerningGroup = afii10077;
rightKerningGroup = afii10074;
unicode = 043B;
},
{
glyphname = afii10078;
lastChange = "2015-07-19 18:37:38 +0000";
layers = (
{
layerId = UUID0;
name = Regular;
paths = (
{
closed = 1;
nodes = (
"302 0 LINE",
"282 0 LINE",
"112 375 LINE",
"112 0 LINE",
"72 0 LINE",
"72 470 LINE",
"167 470 LINE",
"317 140 LINE",
"467 470 LINE",
"557 470 LINE",
"557 150 LINE SMOOTH",
"557 75 OFFCURVE",
"587 0 OFFCURVE",
"632 0 CURVE",
"632 -20 LINE",
"507 -20 OFFCURVE",
"467 46 OFFCURVE",
"467 150 CURVE SMOOTH",
"467 365 LINE"
);
}
);
width = 649;
}
);
unicode = 043C;
},
{
glyphname = afii10079;
lastChange = "2015-07-19 18:37:38 +0000";
layers = (
{
layerId = UUID0;
name = Regular;
paths = (
{
closed = 1;
nodes = (
"376 215 LINE",
"176 215 LINE",
"176 0 LINE",
"86 0 LINE",
"86 350 LINE SMOOTH",
"86 410 OFFCURVE",
"76 450 OFFCURVE",
"16 450 CURVE SMOOTH",
"1 450 LINE",
"1 470 LINE",
"86 470 LINE SMOOTH",
"156 470 OFFCURVE",
"176 450 OFFCURVE",
"176 350 CURVE SMOOTH",
"176 255 LINE",
"376 255 LINE",
"376 470 LINE",
"466 470 LINE",
"466 120 LINE SMOOTH",
"466 60 OFFCURVE",
"476 20 OFFCURVE",
"536 20 CURVE SMOOTH",
"551 20 LINE",
"551 0 LINE",
"466 0 LINE SMOOTH",
"396 0 OFFCURVE",
"376 20 OFFCURVE",
"376 120 CURVE SMOOTH"
);
}
);
width = 553;
}
);
leftKerningGroup = afii10067;
rightKerningGroup = afii10079;
unicode = 043D;
},
{
glyphname = afii10081;
lastChange = "2015-07-19 18:37:38 +0000";
layers = (
{
layerId = UUID0;
name = Regular;
paths = (
{
closed = 1;
nodes = (
"462 0 LINE",
"372 0 LINE",
"372 430 LINE",
"172 430 LINE",
"172 0 LINE",
"82 0 LINE",
"82 350 LINE SMOOTH",
"82 410 OFFCURVE",
"72 450 OFFCURVE",
"12 450 CURVE SMOOTH",
"2 450 LINE",
"2 470 LINE",
"462 470 LINE"
);
}
);
width = 534;
}
);
leftKerningGroup = afii10067;
rightKerningGroup = afii10074;
unicode = 043F;
},
{
glyphname = afii10084;
lastChange = "2015-07-19 18:37:38 +0000";
layers = (
{
layerId = UUID0;
name = Regular;
paths = (
{
closed = 1;
nodes = (
"154 430 LINE SMOOTH",
"94 430 OFFCURVE",
"49 395 OFFCURVE",
"49 330 CURVE",
"29 330 LINE",
"29 390 LINE SMOOTH",
"29 430 OFFCURVE",
"44 470 OFFCURVE",
"104 470 CURVE SMOOTH",
"459 470 LINE",
"459 430 LINE",
"294 430 LINE",
"294 0 LINE",
"204 0 LINE",
"204 430 LINE"
);
}
);
width = 474;
}
);
unicode = 0442;
},
{
glyphname = afii10086;
lastChange = "2015-07-19 18:37:38 +0000";
layers = (
{
layerId = UUID0;
name = Regular;
paths = (
{
closed = 1;
nodes = (
"375 25 LINE",
"476 36 OFFCURVE",
"521 114 OFFCURVE",
"521 235 CURVE SMOOTH",
"521 356 OFFCURVE",
"476 434 OFFCURVE",
"375 445 CURVE"
);
},
{
closed = 1;
nodes = (
"286 540 LINE SMOOTH",
"286 600 OFFCURVE",
"276 640 OFFCURVE",
"216 640 CURVE SMOOTH",
"201 640 LINE",
"201 660 LINE",
"286 660 LINE SMOOTH",
"356 660 OFFCURVE",
"376 640 OFFCURVE",
"376 540 CURVE SMOOTH",
"376 480 LINE",
"536 475 OFFCURVE",
"616 370 OFFCURVE",
"616 235 CURVE SMOOTH",
"616 100 OFFCURVE",
"536 -5 OFFCURVE",
"376 -10 CURVE",
"376 -190 LINE",
"286 -190 LINE",
"286 -10 LINE",
"126 -5 OFFCURVE",
"46 100 OFFCURVE",
"46 235 CURVE SMOOTH",
"46 370 OFFCURVE",
"126 475 OFFCURVE",
"286 480 CURVE"
);
},
{
closed = 1;
nodes = (
"287 445 LINE",
"186 434 OFFCURVE",
"141 356 OFFCURVE",
"141 235 CURVE SMOOTH",
"141 114 OFFCURVE",
"186 36 OFFCURVE",
"287 25 CURVE"
);
}
);
width = 662;
}
);
leftKerningGroup = afii10070;
rightKerningGroup = afii10080;
unicode = 0444;
},
{
glyphname = afii10088;
lastChange = "2015-07-19 18:37:38 +0000";
layers = (
{
layerId = UUID0;
name = Regular;
paths = (
{
closed = 1;
nodes = (
"86 0 LINE",
"86 350 LINE SMOOTH",
"86 410 OFFCURVE",
"76 450 OFFCURVE",
"16 450 CURVE SMOOTH",
"1 450 LINE",
"1 470 LINE",
"86 470 LINE SMOOTH",
"156 470 OFFCURVE",
"176 450 OFFCURVE",
"176 350 CURVE SMOOTH",
"176 40 LINE",
"376 40 LINE",
"376 470 LINE",
"466 470 LINE",
"466 40 LINE",
"506 40 LINE SMOOTH",
"526 40 OFFCURVE",
"541 25 OFFCURVE",
"541 5 CURVE SMOOTH",
"541 -155 LINE",
"501 -155 LINE",
"490 -44 OFFCURVE",
"461 0 OFFCURVE",
"396 0 CURVE SMOOTH"
);
}
);
width = 565;
}
);
leftKerningGroup = afii10067;
rightKerningGroup = afii10069;
unicode = 0446;
},
{
glyphname = afii10089;
lastChange = "2015-07-19 18:37:38 +0000";
layers = (
{
layerId = UUID0;
name = Regular;
paths = (
{
closed = 1;
nodes = (
"316 215 OFFCURVE",
"351 225 OFFCURVE",
"371 233 CURVE",
"371 470 LINE",
"461 470 LINE",
"461 0 LINE",
"371 0 LINE",
"371 193 LINE",
"351 185 OFFCURVE",
"316 175 OFFCURVE",
"271 175 CURVE SMOOTH",
"186 175 OFFCURVE",
"91 200 OFFCURVE",
"91 320 CURVE SMOOTH",
"91 350 LINE SMOOTH",
"91 410 OFFCURVE",
"81 450 OFFCURVE",
"21 450 CURVE SMOOTH",
"11 450 LINE",
"11 470 LINE",
"96 470 LINE SMOOTH",
"166 470 OFFCURVE",
"186 450 OFFCURVE",
"186 350 CURVE SMOOTH",
"186 310 LINE SMOOTH",
"186 240 OFFCURVE",
"231 215 OFFCURVE",
"276 215 CURVE SMOOTH"
);
}
);
width = 533;
}
);
rightKerningGroup = afii10074;
unicode = 0447;
},
{
glyphname = afii10090;
lastChange = "2015-07-19 18:37:38 +0000";
layers = (
{
layerId = UUID0;
name = Regular;
paths = (
{
closed = 1;
nodes = (
"86 0 LINE",
"86 350 LINE SMOOTH",
"86 410 OFFCURVE",
"76 450 OFFCURVE",
"16 450 CURVE SMOOTH",
"1 450 LINE",
"1 470 LINE",
"86 470 LINE SMOOTH",
"156 470 OFFCURVE",
"176 450 OFFCURVE",
"176 350 CURVE SMOOTH",
"176 40 LINE",
"331 40 LINE",
"331 470 LINE",
"421 470 LINE",
"421 40 LINE",
"576 40 LINE",
"576 470 LINE",
"666 470 LINE",
"666 0 LINE"
);
}
);
width = 738;
}
);
leftKerningGroup = afii10067;
rightKerningGroup = afii10074;
unicode = 0448;
},
{
glyphname = afii10091;
lastChange = "2015-07-19 18:37:38 +0000";
layers = (
{
layerId = UUID0;
name = Regular;
paths = (
{
closed = 1;
nodes = (
"86 0 LINE",
"86 350 LINE SMOOTH",
"86 410 OFFCURVE",
"76 450 OFFCURVE",
"16 450 CURVE SMOOTH",
"1 450 LINE",
"1 470 LINE",
"86 470 LINE SMOOTH",
"156 470 OFFCURVE",
"176 450 OFFCURVE",
"176 350 CURVE SMOOTH",
"176 40 LINE",
"331 40 LINE",
"331 470 LINE",
"421 470 LINE",
"421 40 LINE",
"576 40 LINE",
"576 470 LINE",
"666 470 LINE",
"666 40 LINE",
"706 40 LINE SMOOTH",
"726 40 OFFCURVE",
"741 25 OFFCURVE",
"741 5 CURVE SMOOTH",
"741 -155 LINE",
"701 -155 LINE",
"690 -44 OFFCURVE",
"661 0 OFFCURVE",
"596 0 CURVE SMOOTH"
);
}
);
width = 765;
}
);
leftKerningGroup = afii10067;
rightKerningGroup = afii10069;
unicode = 0449;
},
{
glyphname = afii10092;
lastChange = "2015-07-19 18:37:38 +0000";
layers = (
{
layerId = UUID0;
name = Regular;
paths = (
{
closed = 1;
nodes = (
"275 45 LINE",
"290 40 OFFCURVE",
"320 35 OFFCURVE",
"340 35 CURVE SMOOTH",
"416 35 OFFCURVE",
"460 64 OFFCURVE",
"460 140 CURVE SMOOTH",
"460 216 OFFCURVE",
"416 245 OFFCURVE",
"340 245 CURVE SMOOTH",
"320 245 OFFCURVE",
"290 240 OFFCURVE",
"275 235 CURVE"
);
},
{
closed = 1;
nodes = (
"35 435 LINE SMOOTH",
"35 455 OFFCURVE",
"50 470 OFFCURVE",
"70 470 CURVE SMOOTH",
"275 470 LINE",
"275 280 LINE",
"350 280 LINE SMOOTH",
"465 280 OFFCURVE",
"555 249 OFFCURVE",
"555 140 CURVE SMOOTH",
"555 31 OFFCURVE",
"465 0 OFFCURVE",
"350 0 CURVE SMOOTH",
"185 0 LINE",
"185 430 LINE",
"175 430 LINE SMOOTH",
"104 430 OFFCURVE",
"65 391 OFFCURVE",
"60 300 CURVE",
"35 300 LINE"
);
}
);
width = 584;
}
);
rightKerningGroup = afii10092;
unicode = 044A;
},
{
glyphname = afii10093;
lastChange = "2015-07-19 18:37:38 +0000";
layers = (
{
layerId = UUID0;
name = Regular;
paths = (
{
closed = 1;
nodes = (
"176 45 LINE",
"191 40 OFFCURVE",
"221 35 OFFCURVE",
"241 35 CURVE SMOOTH",
"306 35 OFFCURVE",
"351 64 OFFCURVE",
"351 140 CURVE SMOOTH",
"351 216 OFFCURVE",
"306 245 OFFCURVE",
"241 245 CURVE SMOOTH",
"221 245 OFFCURVE",
"191 240 OFFCURVE",
"176 235 CURVE"
);
},
{
closed = 1;
nodes = (
"176 280 LINE",
"251 280 LINE SMOOTH",
"356 280 OFFCURVE",
"446 249 OFFCURVE",
"446 140 CURVE SMOOTH",
"446 31 OFFCURVE",
"356 0 OFFCURVE",
"251 0 CURVE SMOOTH",
"86 0 LINE",
"86 350 LINE SMOOTH",
"86 410 OFFCURVE",
"76 450 OFFCURVE",
"16 450 CURVE SMOOTH",
"1 450 LINE",
"1 470 LINE",
"86 470 LINE SMOOTH",
"156 470 OFFCURVE",
"176 450 OFFCURVE",
"176 350 CURVE SMOOTH"
);
},
{
closed = 1;
nodes = (
"511 470 LINE",
"601 470 LINE",
"601 120 LINE SMOOTH",
"601 60 OFFCURVE",
"611 20 OFFCURVE",
"671 20 CURVE SMOOTH",
"686 20 LINE",
"686 0 LINE",
"601 0 LINE SMOOTH",
"531 0 OFFCURVE",
"511 20 OFFCURVE",
"511 120 CURVE SMOOTH"
);
}
);
width = 688;
}
);
leftKerningGroup = afii10067;
rightKerningGroup = afii10079;
unicode = 044B;
},
{
glyphname = afii10094;
lastChange = "2015-07-19 18:37:38 +0000";
layers = (
{
layerId = UUID0;
name = Regular;
paths = (
{
closed = 1;
nodes = (
"176 45 LINE",
"191 40 OFFCURVE",
"221 35 OFFCURVE",
"241 35 CURVE SMOOTH",
"317 35 OFFCURVE",
"361 64 OFFCURVE",
"361 140 CURVE SMOOTH",
"361 216 OFFCURVE",
"317 245 OFFCURVE",
"241 245 CURVE SMOOTH",
"221 245 OFFCURVE",
"191 240 OFFCURVE",
"176 235 CURVE"
);
},
{
closed = 1;
nodes = (
"176 280 LINE",
"251 280 LINE SMOOTH",
"366 280 OFFCURVE",
"456 249 OFFCURVE",
"456 140 CURVE SMOOTH",
"456 31 OFFCURVE",
"366 0 OFFCURVE",
"251 0 CURVE SMOOTH",
"86 0 LINE",
"86 350 LINE SMOOTH",
"86 410 OFFCURVE",
"76 450 OFFCURVE",
"16 450 CURVE SMOOTH",
"1 450 LINE",
"1 470 LINE",
"86 470 LINE SMOOTH",
"156 470 OFFCURVE",
"176 450 OFFCURVE",
"176 350 CURVE SMOOTH"
);
}
);
width = 485;
}
);
leftKerningGroup = afii10067;
rightKerningGroup = afii10092;
unicode = 044C;
},
{
glyphname = afii10095;
lastChange = "2015-07-19 18:37:38 +0000";
layers = (
{
layerId = UUID0;
name = Regular;
paths = (
{
closed = 1;
nodes = (
"373 480 OFFCURVE",
"444 370 OFFCURVE",
"444 235 CURVE SMOOTH",
"444 100 OFFCURVE",
"373 -10 OFFCURVE",
"224 -10 CURVE SMOOTH",
"144 -10 OFFCURVE",
"84 19 OFFCURVE",
"39 95 CURVE",
"59 110 LINE",
"94 59 OFFCURVE",
"133 30 OFFCURVE",
"204 30 CURVE SMOOTH",
"296 30 OFFCURVE",
"344 106 OFFCURVE",
"349 210 CURVE",
"139 210 LINE",
"139 250 LINE",
"349 250 LINE",
"344 355 OFFCURVE",
"299 440 OFFCURVE",
"204 440 CURVE SMOOTH",
"133 440 OFFCURVE",
"79 400 OFFCURVE",
"74 315 CURVE",
"54 315 LINE",
"54 390 OFFCURVE",
"54 420 OFFCURVE",
"79 445 CURVE SMOOTH",
"104 470 OFFCURVE",
"153 480 OFFCURVE",
"224 480 CURVE SMOOTH"
);
}
);
width = 489;
}
);
rightKerningGroup = afii10080;
unicode = 044D;
},
{
glyphname = afii10096;
lastChange = "2015-07-19 18:37:38 +0000";
layers = (
{
layerId = UUID0;
name = Regular;
paths = (
{
closed = 1;
nodes = (
"566 480 OFFCURVE",
"646 380 OFFCURVE",
"646 235 CURVE SMOOTH",
"646 90 OFFCURVE",
"566 -10 OFFCURVE",
"441 -10 CURVE SMOOTH",
"322 -10 OFFCURVE",
"241 79 OFFCURVE",
"236 215 CURVE",
"176 215 LINE",
"176 0 LINE",
"86 0 LINE",
"86 350 LINE SMOOTH",
"86 410 OFFCURVE",
"76 450 OFFCURVE",
"16 450 CURVE SMOOTH",
"1 450 LINE",
"1 470 LINE",
"86 470 LINE SMOOTH",
"156 470 OFFCURVE",
"176 450 OFFCURVE",
"176 350 CURVE SMOOTH",
"176 255 LINE",
"236 255 LINE",
"241 391 OFFCURVE",
"322 480 OFFCURVE",
"441 480 CURVE SMOOTH"
);
},
{
closed = 1;
nodes = (
"376 440 OFFCURVE",
"331 371 OFFCURVE",
"331 235 CURVE SMOOTH",
"331 99 OFFCURVE",
"376 30 OFFCURVE",
"441 30 CURVE SMOOTH",
"506 30 OFFCURVE",
"551 99 OFFCURVE",
"551 235 CURVE SMOOTH",
"551 371 OFFCURVE",
"506 440 OFFCURVE",
"441 440 CURVE SMOOTH"
);
}
);
width = 691;
}
);
leftKerningGroup = afii10067;
rightKerningGroup = afii10080;
unicode = 044E;
},
{
glyphname = afii10097;
lastChange = "2015-07-19 18:37:38 +0000";
layers = (
{
layerId = UUID0;
name = Regular;
paths = (
{
closed = 1;
nodes = (
"422 0 LINE",
"332 0 LINE",
"332 200 LINE",
"254 200 LINE",
"194 80 LINE SMOOTH",
"163 20 OFFCURVE",
"129 -10 OFFCURVE",
"72 -10 CURVE SMOOTH",
"52 -10 OFFCURVE",
"32 -5 OFFCURVE",
"17 0 CURVE",
"17 20 LINE",
"63 25 OFFCURVE",
"90 65 OFFCURVE",
"112 100 CURVE",
"172 205 LINE",
"112 215 OFFCURVE",
"57 260 OFFCURVE",
"57 335 CURVE SMOOTH",
"57 439 OFFCURVE",
"148 470 OFFCURVE",
"257 470 CURVE SMOOTH",
"492 470 LINE",
"492 450 LINE",
"432 450 OFFCURVE",
"422 410 OFFCURVE",
"422 350 CURVE SMOOTH"
);
},
{
closed = 1;
nodes = (
"332 425 LINE",
"317 430 OFFCURVE",
"287 435 OFFCURVE",
"267 435 CURVE SMOOTH",
"196 435 OFFCURVE",
"152 406 OFFCURVE",
"152 335 CURVE SMOOTH",
"152 264 OFFCURVE",
"196 235 OFFCURVE",
"267 235 CURVE SMOOTH",
"287 235 OFFCURVE",
"317 240 OFFCURVE",
"332 245 CURVE"
);
}
);
width = 510;
}
);
unicode = 044F;
},
{
glyphname = afii10099;
lastChange = "2015-07-19 18:37:38 +0000";
layers = (
{
layerId = UUID0;
name = Regular;
paths = (
{
closed = 1;
nodes = (
"2 500 LINE",
"2 540 LINE",
"72 540 LINE",
"72 600 LINE",
"122 660 LINE",
"162 660 LINE",
"162 540 LINE",
"282 540 LINE",
"282 500 LINE",
"162 500 LINE",
"162 380 LINE",
"187 405 OFFCURVE",
"232 430 OFFCURVE",
"292 430 CURVE SMOOTH",
"377 430 OFFCURVE",
"462 395 OFFCURVE",
"462 250 CURVE SMOOTH",
"462 75 LINE SMOOTH",
"462 -75 OFFCURVE",
"422 -140 OFFCURVE",
"277 -140 CURVE",
"277 -120 LINE",
"342 -120 OFFCURVE",
"372 -46 OFFCURVE",
"372 75 CURVE SMOOTH",
"372 250 LINE SMOOTH",
"372 350 OFFCURVE",
"317 385 OFFCURVE",
"262 385 CURVE SMOOTH",
"222 385 OFFCURVE",
"187 360 OFFCURVE",
"162 332 CURVE",
"162 0 LINE",
"72 0 LINE",
"72 500 LINE"
);
}
);
width = 530;
}
);
leftKerningGroup = afii10108;
unicode = 0452;
},
{
glyphname = afii10101;
lastChange = "2015-07-19 18:37:38 +0000";
layers = (
{
layerId = UUID0;
name = Regular;
paths = (
{
closed = 1;
nodes = (
"336 480 OFFCURVE",
"385 470 OFFCURVE",
"410 445 CURVE SMOOTH",
"435 420 OFFCURVE",
"435 390 OFFCURVE",
"435 315 CURVE",
"415 315 LINE",
"410 400 OFFCURVE",
"356 440 OFFCURVE",
"285 440 CURVE SMOOTH",
"190 440 OFFCURVE",
"145 355 OFFCURVE",
"140 250 CURVE",
"350 250 LINE",
"350 210 LINE",
"140 210 LINE",
"145 106 OFFCURVE",
"193 30 OFFCURVE",
"285 30 CURVE SMOOTH",
"356 30 OFFCURVE",
"395 59 OFFCURVE",
"430 110 CURVE",
"450 95 LINE",
"405 19 OFFCURVE",
"345 -10 OFFCURVE",
"265 -10 CURVE SMOOTH",
"116 -10 OFFCURVE",
"45 100 OFFCURVE",
"45 235 CURVE SMOOTH",
"45 370 OFFCURVE",
"116 480 OFFCURVE",
"265 480 CURVE SMOOTH"
);
}
);
width = 489;
}
);
leftKerningGroup = afii10070;
unicode = 0454;
},
{
glyphname = afii10106;
lastChange = "2015-07-19 18:37:38 +0000";
layers = (
{
layerId = UUID0;
name = Regular;
paths = (
{
closed = 1;
nodes = (
"463 45 LINE",
"478 40 OFFCURVE",
"508 35 OFFCURVE",
"528 35 CURVE SMOOTH",
"604 35 OFFCURVE",
"648 64 OFFCURVE",
"648 140 CURVE SMOOTH",
"648 216 OFFCURVE",
"604 245 OFFCURVE",
"528 245 CURVE SMOOTH",
"508 245 OFFCURVE",
"478 240 OFFCURVE",
"463 235 CURVE"
);
},
{
closed = 1;
nodes = (
"463 470 LINE",
"463 280 LINE",
"538 280 LINE SMOOTH",
"653 280 OFFCURVE",
"743 249 OFFCURVE",
"743 140 CURVE SMOOTH",
"743 31 OFFCURVE",
"653 0 OFFCURVE",
"538 0 CURVE SMOOTH",
"373 0 LINE",
"373 430 LINE",
"208 430 LINE",
"208 350 LINE SMOOTH",
"208 50 OFFCURVE",
"133 -10 OFFCURVE",
"58 -10 CURVE SMOOTH",
"47 -10 OFFCURVE",
"20 -5 OFFCURVE",
"9 -1 CURVE",
"9 24 LINE",
"74 24 OFFCURVE",
"139 75 OFFCURVE",
"139 350 CURVE SMOOTH",
"139 410 OFFCURVE",
"129 450 OFFCURVE",
"68 450 CURVE",
"68 470 LINE"
);
}
);
width = 772;
}
);
leftKerningGroup = afii10077;
rightKerningGroup = afii10092;
unicode = 0459;
},
{
glyphname = afii10107;
lastChange = "2015-07-19 18:37:38 +0000";
layers = (
{
layerId = UUID0;
name = Regular;
paths = (
{
closed = 1;
nodes = (
"456 260 LINE",
"531 260 LINE SMOOTH",
"646 260 OFFCURVE",
"736 229 OFFCURVE",
"736 130 CURVE SMOOTH",
"736 29 OFFCURVE",
"646 0 OFFCURVE",
"531 0 CURVE SMOOTH",
"366 0 LINE",
"366 220 LINE",
"176 220 LINE",
"176 0 LINE",
"86 0 LINE",
"86 350 LINE SMOOTH",
"86 410 OFFCURVE",
"76 450 OFFCURVE",
"16 450 CURVE SMOOTH",
"1 450 LINE",
"1 470 LINE",
"86 470 LINE SMOOTH",
"156 470 OFFCURVE",
"176 450 OFFCURVE",
"176 350 CURVE SMOOTH",
"176 260 LINE",
"366 260 LINE",
"366 470 LINE",
"456 470 LINE"
);
},
{
closed = 1;
nodes = (
"456 45 LINE",
"471 40 OFFCURVE",
"501 35 OFFCURVE",
"521 35 CURVE SMOOTH",
"597 35 OFFCURVE",
"641 65 OFFCURVE",
"641 130 CURVE SMOOTH",
"641 195 OFFCURVE",
"597 225 OFFCURVE",
"521 225 CURVE SMOOTH",
"501 225 OFFCURVE",
"471 220 OFFCURVE",
"456 215 CURVE"
);
}
);
width = 763;
}
);
leftKerningGroup = afii10067;
unicode = 045A;
},
{
glyphname = afii10108;
lastChange = "2015-07-19 18:37:38 +0000";
layers = (
{
layerId = UUID0;
name = Regular;
paths = (
{
closed = 1;
nodes = (
"162 500 LINE",
"162 380 LINE",
"187 405 OFFCURVE",
"232 430 OFFCURVE",
"292 430 CURVE SMOOTH",
"377 430 OFFCURVE",
"462 395 OFFCURVE",
"462 250 CURVE SMOOTH",
"462 0 LINE",
"372 0 LINE",
"372 250 LINE SMOOTH",
"372 350 OFFCURVE",
"317 385 OFFCURVE",
"262 385 CURVE SMOOTH",
"222 385 OFFCURVE",
"187 360 OFFCURVE",
"162 332 CURVE",
"162 0 LINE",
"72 0 LINE",
"72 500 LINE",
"2 500 LINE",
"2 540 LINE",
"72 540 LINE",
"72 600 LINE",
"122 660 LINE",
"162 660 LINE",
"162 540 LINE",
"282 540 LINE",
"282 500 LINE"
);
}
);
width = 530;
}
);
leftKerningGroup = afii10108;
unicode = 045B;
},
{
glyphname = afii10193;
lastChange = "2015-07-19 18:37:38 +0000";
layers = (
{
layerId = UUID0;
name = Regular;
paths = (
{
closed = 1;
nodes = (
"86 0 LINE",
"86 350 LINE SMOOTH",
"86 410 OFFCURVE",
"76 450 OFFCURVE",
"16 450 CURVE SMOOTH",
"1 450 LINE",
"1 470 LINE",
"86 470 LINE SMOOTH",
"156 470 OFFCURVE",
"176 450 OFFCURVE",
"176 350 CURVE SMOOTH",
"176 40 LINE",
"376 40 LINE",
"376 470 LINE",
"466 470 LINE",
"466 0 LINE",
"311 0 LINE",
"296 -150 LINE",
"256 -150 LINE",
"241 0 LINE"
);
}
);
width = 538;
}
);
leftKerningGroup = afii10067;
rightKerningGroup = afii10074;
unicode = 045F;
},
{
glyphname = afii10050;
lastChange = "2015-07-19 18:37:38 +0000";
layers = (
{
layerId = UUID0;
name = Regular;
paths = (
{
closed = 1;
nodes = (
"196 620 LINE",
"196 0 LINE",
"106 0 LINE",
"106 540 LINE SMOOTH",
"106 600 OFFCURVE",
"96 640 OFFCURVE",
"36 640 CURVE SMOOTH",
"16 640 LINE",
"16 660 LINE",
"371 660 LINE SMOOTH",
"451 660 OFFCURVE",
"496 695 OFFCURVE",
"496 775 CURVE",
"516 775 LINE",
"516 665 LINE SMOOTH",
"516 640 OFFCURVE",
"496 620 OFFCURVE",
"471 620 CURVE SMOOTH"
);
}
);
width = 535;
}
);
leftKerningGroup = afii10018;
unicode = 0490;
},
{
glyphname = afii10098;
lastChange = "2015-07-19 18:37:38 +0000";
layers = (
{
layerId = UUID0;
name = Regular;
paths = (
{
closed = 1;
nodes = (
"172 430 LINE",
"172 0 LINE",
"82 0 LINE",
"82 350 LINE SMOOTH",
"82 410 OFFCURVE",
"72 450 OFFCURVE",
"12 450 CURVE SMOOTH",
"2 450 LINE",
"2 470 LINE",
"282 470 LINE SMOOTH",
"342 470 OFFCURVE",
"387 505 OFFCURVE",
"387 570 CURVE",
"407 570 LINE",
"407 470 LINE SMOOTH",
"407 443 OFFCURVE",
"394 430 OFFCURVE",
"367 430 CURVE SMOOTH"
);
}
);
width = 432;
}
);
leftKerningGroup = afii10067;
unicode = 0491;
},
{
glyphname = endash;
lastChange = "2015-07-19 18:37:38 +0000";
layers = (
{
layerId = UUID0;
name = Regular;
paths = (
{
closed = 1;
nodes = (
"540 230 LINE",
"70 230 LINE",
"70 290 LINE",
"540 290 LINE"
);
}
);
width = 610;
}
);
leftKerningGroup = emdash;
rightKerningGroup = emdash;
unicode = 2013;
},
{
glyphname = emdash;
lastChange = "2015-07-19 18:37:38 +0000";
layers = (
{
layerId = UUID0;
name = Regular;
paths = (
{
closed = 1;
nodes = (
"806 230 LINE",
"66 230 LINE",
"66 290 LINE",
"806 290 LINE"
);
}
);
width = 872;
}
);
leftKerningGroup = emdash;
rightKerningGroup = emdash;
unicode = 2014;
},
{
glyphname = quoteleft;
lastChange = "2015-07-19 18:37:38 +0000";
layers = (
{
layerId = UUID0;
name = Regular;
paths = (
{
closed = 1;
nodes = (
"171 665 LINE",
"120 630 OFFCURVE",
"91 590 OFFCURVE",
"91 530 CURVE",
"121 540 LINE",
"152 540 OFFCURVE",
"176 516 OFFCURVE",
"176 485 CURVE SMOOTH",
"176 450 OFFCURVE",
"151 425 OFFCURVE",
"116 425 CURVE SMOOTH",
"76 425 OFFCURVE",
"51 450 OFFCURVE",
"51 495 CURVE SMOOTH",
"51 580 OFFCURVE",
"90 640 OFFCURVE",
"161 680 CURVE"
);
}
);
width = 226;
}
);
leftKerningGroup = quotedblleft;
rightKerningGroup = quotedblleft;
unicode = 2018;
},
{
glyphname = quoteright;
lastChange = "2015-07-19 18:37:38 +0000";
layers = (
{
layerId = UUID0;
name = Regular;
paths = (
{
closed = 1;
nodes = (
"62 440 LINE",
"113 475 OFFCURVE",
"142 515 OFFCURVE",
"142 575 CURVE",
"112 565 LINE",
"81 565 OFFCURVE",
"57 589 OFFCURVE",
"57 620 CURVE SMOOTH",
"57 655 OFFCURVE",
"82 680 OFFCURVE",
"117 680 CURVE SMOOTH",
"157 680 OFFCURVE",
"182 655 OFFCURVE",
"182 610 CURVE SMOOTH",
"182 525 OFFCURVE",
"143 465 OFFCURVE",
"72 425 CURVE"
);
}
);
width = 228;
}
);
leftKerningGroup = quotedblright;
rightKerningGroup = quotedblright;
unicode = 2019;
},
{
glyphname = quotesinglbase;
lastChange = "2015-07-19 18:37:38 +0000";
layers = (
{
layerId = UUID0;
name = Regular;
paths = (
{
closed = 1;
nodes = (
"61 -140 LINE",
"112 -105 OFFCURVE",
"141 -65 OFFCURVE",
"141 -5 CURVE",
"111 -15 LINE",
"80 -15 OFFCURVE",
"56 9 OFFCURVE",
"56 40 CURVE SMOOTH",
"56 75 OFFCURVE",
"81 100 OFFCURVE",
"116 100 CURVE SMOOTH",
"156 100 OFFCURVE",
"181 75 OFFCURVE",
"181 30 CURVE SMOOTH",
"181 -55 OFFCURVE",
"142 -115 OFFCURVE",
"71 -155 CURVE"
);
}
);
width = 237;
}
);
leftKerningGroup = quotedblbase;
rightKerningGroup = quotedblbase;
unicode = 201A;
},
{
glyphname = quotedblleft;
lastChange = "2015-07-19 18:37:38 +0000";
layers = (
{
layerId = UUID0;
name = Regular;
paths = (
{
closed = 1;
nodes = (
"351 665 LINE",
"300 630 OFFCURVE",
"271 590 OFFCURVE",
"271 530 CURVE",
"301 540 LINE",
"332 540 OFFCURVE",
"356 516 OFFCURVE",
"356 485 CURVE SMOOTH",
"356 450 OFFCURVE",
"331 425 OFFCURVE",
"296 425 CURVE SMOOTH",
"256 425 OFFCURVE",
"231 450 OFFCURVE",
"231 495 CURVE SMOOTH",
"231 580 OFFCURVE",
"270 640 OFFCURVE",
"341 680 CURVE"
);
},
{
closed = 1;
nodes = (
"171 665 LINE",
"120 630 OFFCURVE",
"91 590 OFFCURVE",
"91 530 CURVE",
"121 540 LINE",
"152 540 OFFCURVE",
"176 516 OFFCURVE",
"176 485 CURVE SMOOTH",
"176 450 OFFCURVE",
"151 425 OFFCURVE",
"116 425 CURVE SMOOTH",
"76 425 OFFCURVE",
"51 450 OFFCURVE",
"51 495 CURVE SMOOTH",
"51 580 OFFCURVE",
"90 640 OFFCURVE",
"161 680 CURVE"
);
}
);
width = 406;
}
);
leftKerningGroup = quotedblleft;
rightKerningGroup = quotedblleft;
unicode = 201C;
},
{
glyphname = quotedblright;
lastChange = "2015-07-19 18:37:38 +0000";
layers = (
{
layerId = UUID0;
name = Regular;
paths = (
{
closed = 1;
nodes = (
"62 440 LINE",
"113 475 OFFCURVE",
"142 515 OFFCURVE",
"142 575 CURVE",
"112 565 LINE",
"81 565 OFFCURVE",
"57 589 OFFCURVE",
"57 620 CURVE SMOOTH",
"57 655 OFFCURVE",
"82 680 OFFCURVE",
"117 680 CURVE SMOOTH",
"157 680 OFFCURVE",
"182 655 OFFCURVE",
"182 610 CURVE SMOOTH",
"182 525 OFFCURVE",
"143 465 OFFCURVE",
"72 425 CURVE"
);
},
{
closed = 1;
nodes = (
"242 440 LINE",
"293 475 OFFCURVE",
"322 515 OFFCURVE",
"322 575 CURVE",
"292 565 LINE",
"261 565 OFFCURVE",
"237 589 OFFCURVE",
"237 620 CURVE SMOOTH",
"237 655 OFFCURVE",
"262 680 OFFCURVE",
"297 680 CURVE SMOOTH",
"337 680 OFFCURVE",
"362 655 OFFCURVE",
"362 610 CURVE SMOOTH",
"362 525 OFFCURVE",
"323 465 OFFCURVE",
"252 425 CURVE"
);
}
);
width = 408;
}
);
leftKerningGroup = quotedblright;
rightKerningGroup = quotedblright;
unicode = 201D;
},
{
glyphname = quotedblbase;
lastChange = "2015-07-19 18:37:38 +0000";
layers = (
{
layerId = UUID0;
name = Regular;
paths = (
{
closed = 1;
nodes = (
"61 -140 LINE",
"112 -105 OFFCURVE",
"141 -65 OFFCURVE",
"141 -5 CURVE",
"111 -15 LINE",
"80 -15 OFFCURVE",
"56 9 OFFCURVE",
"56 40 CURVE SMOOTH",
"56 75 OFFCURVE",
"81 100 OFFCURVE",
"116 100 CURVE SMOOTH",
"156 100 OFFCURVE",
"181 75 OFFCURVE",
"181 30 CURVE SMOOTH",
"181 -55 OFFCURVE",
"142 -115 OFFCURVE",
"71 -155 CURVE"
);
},
{
closed = 1;
nodes = (
"241 -140 LINE",
"292 -105 OFFCURVE",
"321 -65 OFFCURVE",
"321 -5 CURVE",
"291 -15 LINE",
"260 -15 OFFCURVE",
"236 9 OFFCURVE",
"236 40 CURVE SMOOTH",
"236 75 OFFCURVE",
"261 100 OFFCURVE",
"296 100 CURVE SMOOTH",
"336 100 OFFCURVE",
"361 75 OFFCURVE",
"361 30 CURVE SMOOTH",
"361 -55 OFFCURVE",
"322 -115 OFFCURVE",
"251 -155 CURVE"
);
}
);
width = 417;
}
);
leftKerningGroup = quotedblbase;
rightKerningGroup = quotedblbase;
unicode = 201E;
},
{
glyphname = dagger;
lastChange = "2015-07-19 18:37:38 +0000";
layers = (
{
layerId = UUID0;
name = Regular;
paths = (
{
closed = 1;
nodes = (
"216 470 LINE",
"216 680 LINE",
"306 680 LINE",
"306 470 LINE",
"496 470 LINE",
"496 410 LINE",
"306 410 LINE",
"306 -190 LINE",
"216 -190 LINE",
"216 410 LINE",
"27 410 LINE",
"27 470 LINE"
);
}
);
width = 523;
}
);
unicode = 2020;
},
{
glyphname = daggerdbl;
lastChange = "2015-07-19 18:37:38 +0000";
layers = (
{
layerId = UUID0;
name = Regular;
paths = (
{
closed = 1;
nodes = (
"232 470 LINE",
"232 680 LINE",
"322 680 LINE",
"322 470 LINE",
"512 470 LINE",
"512 410 LINE",
"322 410 LINE",
"322 80 LINE",
"512 80 LINE",
"512 20 LINE",
"322 20 LINE",
"322 -190 LINE",
"232 -190 LINE",
"232 20 LINE",
"43 20 LINE",
"43 80 LINE",
"232 80 LINE",
"232 410 LINE",
"43 410 LINE",
"43 470 LINE"
);
}
);
width = 555;
}
);
unicode = 2021;
},
{
glyphname = bullet;
lastChange = "2015-07-19 18:37:38 +0000";
layers = (
{
layerId = UUID0;
name = Regular;
paths = (
{
closed = 1;
nodes = (
"241 450 OFFCURVE",
"290 401 OFFCURVE",
"290 330 CURVE SMOOTH",
"290 259 OFFCURVE",
"241 210 OFFCURVE",
"170 210 CURVE SMOOTH",
"99 210 OFFCURVE",
"50 259 OFFCURVE",
"50 330 CURVE SMOOTH",
"50 401 OFFCURVE",
"99 450 OFFCURVE",
"170 450 CURVE SMOOTH"
);
}
);
width = 340;
}
);
unicode = 2022;
},
{
glyphname = ellipsis;
lastChange = "2015-07-19 18:37:38 +0000";
layers = (
{
layerId = UUID0;
name = Regular;
paths = (
{
closed = 1;
nodes = (
"141 95 OFFCURVE",
"164 70 OFFCURVE",
"164 41 CURVE SMOOTH",
"164 10 OFFCURVE",
"139 -14 OFFCURVE",
"110 -14 CURVE SMOOTH",
"81 -14 OFFCURVE",
"56 10 OFFCURVE",
"56 41 CURVE SMOOTH",
"56 70 OFFCURVE",
"81 95 OFFCURVE",
"110 95 CURVE SMOOTH"
);
},
{
closed = 1;
nodes = (
"351 95 OFFCURVE",
"374 70 OFFCURVE",
"374 41 CURVE SMOOTH",
"374 10 OFFCURVE",
"349 -14 OFFCURVE",
"320 -14 CURVE SMOOTH",
"291 -14 OFFCURVE",
"266 10 OFFCURVE",
"266 41 CURVE SMOOTH",
"266 70 OFFCURVE",
"291 95 OFFCURVE",
"320 95 CURVE SMOOTH"
);
},
{
closed = 1;
nodes = (
"561 95 OFFCURVE",
"584 70 OFFCURVE",
"584 41 CURVE SMOOTH",
"584 10 OFFCURVE",
"559 -14 OFFCURVE",
"530 -14 CURVE SMOOTH",
"501 -14 OFFCURVE",
"476 10 OFFCURVE",
"476 41 CURVE SMOOTH",
"476 70 OFFCURVE",
"501 95 OFFCURVE",
"530 95 CURVE SMOOTH"
);
}
);
width = 640;
}
);
leftKerningGroup = quotedblbase;
unicode = 2026;
},
{
glyphname = perthousand;
lastChange = "2015-07-19 18:37:38 +0000";
layers = (
{
layerId = UUID0;
name = Regular;
paths = (
{
closed = 1;
nodes = (
"77 0 LINE",
"532 660 LINE",
"607 660 LINE",
"152 0 LINE"
);
},
{
closed = 1;
nodes = (
"587 197 OFFCURVE",
"559 230 OFFCURVE",
"502 230 CURVE SMOOTH",
"445 230 OFFCURVE",
"417 197 OFFCURVE",
"417 130 CURVE SMOOTH",
"417 63 OFFCURVE",
"445 30 OFFCURVE",
"502 30 CURVE SMOOTH",
"559 30 OFFCURVE",
"587 63 OFFCURVE",
"587 130 CURVE SMOOTH"
);
},
{
closed = 1;
nodes = (
"647 45 OFFCURVE",
"593 -5 OFFCURVE",
"502 -5 CURVE SMOOTH",
"411 -5 OFFCURVE",
"357 45 OFFCURVE",
"357 130 CURVE SMOOTH",
"357 215 OFFCURVE",
"411 265 OFFCURVE",
"502 265 CURVE SMOOTH",
"593 265 OFFCURVE",
"647 215 OFFCURVE",
"647 130 CURVE SMOOTH"
);
},
{
closed = 1;
nodes = (
"267 597 OFFCURVE",
"239 630 OFFCURVE",
"182 630 CURVE SMOOTH",
"125 630 OFFCURVE",
"97 597 OFFCURVE",
"97 530 CURVE SMOOTH",
"97 463 OFFCURVE",
"125 430 OFFCURVE",
"182 430 CURVE SMOOTH",
"239 430 OFFCURVE",
"267 463 OFFCURVE",
"267 530 CURVE SMOOTH"
);
},
{
closed = 1;
nodes = (
"327 445 OFFCURVE",
"273 395 OFFCURVE",
"182 395 CURVE SMOOTH",
"91 395 OFFCURVE",
"37 445 OFFCURVE",
"37 530 CURVE SMOOTH",
"37 615 OFFCURVE",
"91 665 OFFCURVE",
"182 665 CURVE SMOOTH",
"273 665 OFFCURVE",
"327 615 OFFCURVE",
"327 530 CURVE SMOOTH"
);
},
{
closed = 1;
nodes = (
"917 197 OFFCURVE",
"889 230 OFFCURVE",
"832 230 CURVE SMOOTH",
"775 230 OFFCURVE",
"747 197 OFFCURVE",
"747 130 CURVE SMOOTH",
"747 63 OFFCURVE",
"775 30 OFFCURVE",
"832 30 CURVE SMOOTH",
"889 30 OFFCURVE",
"917 63 OFFCURVE",
"917 130 CURVE SMOOTH"
);
},
{
closed = 1;
nodes = (
"977 45 OFFCURVE",
"923 -5 OFFCURVE",
"832 -5 CURVE SMOOTH",
"741 -5 OFFCURVE",
"687 45 OFFCURVE",
"687 130 CURVE SMOOTH",
"687 215 OFFCURVE",
"741 265 OFFCURVE",
"832 265 CURVE SMOOTH",
"923 265 OFFCURVE",
"977 215 OFFCURVE",
"977 130 CURVE SMOOTH"
);
}
);
width = 1006;
}
);
unicode = 2030;
},
{
glyphname = guilsinglleft;
lastChange = "2015-07-19 18:37:38 +0000";
layers = (
{
layerId = UUID0;
name = Regular;
paths = (
{
closed = 1;
nodes = (
"34 225 LINE",
"209 420 LINE",
"249 420 LINE",
"139 225 LINE",
"249 30 LINE",
"209 30 LINE"
);
}
);
width = 302;
}
);
leftKerningGroup = guilsinglleft;
unicode = 2039;
},
{
glyphname = guilsinglright;
lastChange = "2015-07-19 18:37:38 +0000";
layers = (
{
layerId = UUID0;
name = Regular;
paths = (
{
closed = 1;
nodes = (
"93 30 LINE",
"53 30 LINE",
"163 225 LINE",
"53 420 LINE",
"93 420 LINE",
"268 225 LINE"
);
}
);
width = 302;
}
);
leftKerningGroup = guilsinglright;
rightKerningGroup = guilsinglright;
unicode = 203A;
},
{
glyphname = Euro;
lastChange = "2015-07-19 18:37:38 +0000";
layers = (
{
layerId = UUID0;
name = Regular;
paths = (
{
closed = 1;
nodes = (
"378 255 LINE",
"202 255 LINE",
"221 129 OFFCURVE",
"291 20 OFFCURVE",
"438 20 CURVE SMOOTH",
"538 20 OFFCURVE",
"607 69 OFFCURVE",
"663 160 CURVE",
"683 145 LINE",
"619 20 OFFCURVE",
"527 -20 OFFCURVE",
"408 -20 CURVE SMOOTH",
"240 -20 OFFCURVE",
"127 97 OFFCURVE",
"103 255 CURVE",
"28 255 LINE",
"38 295 LINE",
"98 295 LINE",
"98 355 LINE",
"43 355 LINE",
"53 395 LINE",
"105 395 LINE",
"134 558 OFFCURVE",
"260 680 OFFCURVE",
"408 680 CURVE SMOOTH",
"519 680 OFFCURVE",
"602 644 OFFCURVE",
"638 600 CURVE SMOOTH",
"663 569 OFFCURVE",
"663 510 OFFCURVE",
"663 450 CURVE",
"643 450 LINE",
"618 581 OFFCURVE",
"549 640 OFFCURVE",
"438 640 CURVE SMOOTH",
"322 640 OFFCURVE",
"223 577 OFFCURVE",
"202 395 CURVE",
"403 395 LINE",
"393 355 LINE",
"198 355 LINE",
"198 295 LINE",
"388 295 LINE"
);
}
);
width = 728;
}
);
unicode = 20AC;
},
{
glyphname = afii61352;
lastChange = "2015-07-19 18:37:38 +0000";
layers = (
{
layerId = UUID0;
name = Regular;
paths = (
{
closed = 1;
nodes = (
"924 310 LINE",
"684 310 LINE",
"684 350 LINE",
"924 350 LINE"
);
},
{
closed = 1;
nodes = (
"114 540 LINE SMOOTH",
"114 600 OFFCURVE",
"93 640 OFFCURVE",
"24 640 CURVE SMOOTH",
"14 640 LINE",
"14 660 LINE",
"79 660 LINE SMOOTH",
"144 660 OFFCURVE",
"183 637 OFFCURVE",
"214 600 CURVE",
"564 165 LINE",
"564 660 LINE",
"604 660 LINE",
"604 -10 LINE",
"584 -10 LINE",
"154 525 LINE",
"154 0 LINE",
"114 0 LINE"
);
},
{
closed = 1;
nodes = (
"889 602 OFFCURVE",
"861 635 OFFCURVE",
"804 635 CURVE SMOOTH",
"747 635 OFFCURVE",
"719 602 OFFCURVE",
"719 535 CURVE SMOOTH",
"719 468 OFFCURVE",
"747 435 OFFCURVE",
"804 435 CURVE SMOOTH",
"861 435 OFFCURVE",
"889 468 OFFCURVE",
"889 535 CURVE SMOOTH"
);
},
{
closed = 1;
nodes = (
"949 450 OFFCURVE",
"896 400 OFFCURVE",
"804 400 CURVE SMOOTH",
"712 400 OFFCURVE",
"659 450 OFFCURVE",
"659 535 CURVE SMOOTH",
"659 620 OFFCURVE",
"712 670 OFFCURVE",
"804 670 CURVE SMOOTH",
"896 670 OFFCURVE",
"949 620 OFFCURVE",
"949 535 CURVE SMOOTH"
);
}
);
width = 981;
}
);
unicode = 2116;
},
{
glyphname = trademark;
lastChange = "2015-07-19 18:37:38 +0000";
layers = (
{
layerId = UUID0;
name = Regular;
paths = (
{
closed = 1;
nodes = (
"146 630 LINE SMOOTH",
"101 630 OFFCURVE",
"68 604 OFFCURVE",
"68 555 CURVE",
"53 555 LINE",
"53 600 LINE SMOOTH",
"53 631 OFFCURVE",
"64 660 OFFCURVE",
"109 660 CURVE SMOOTH",
"382 660 LINE",
"382 630 LINE",
"251 630 LINE",
"251 307 LINE",
"184 307 LINE",
"184 630 LINE"
);
},
{
closed = 1;
nodes = (
"588 307 LINE",
"573 307 LINE",
"446 589 LINE",
"446 307 LINE",
"416 307 LINE",
"416 660 LINE",
"487 660 LINE",
"599 412 LINE",
"711 660 LINE",
"778 660 LINE",
"778 420 LINE SMOOTH",
"778 363 OFFCURVE",
"801 307 OFFCURVE",
"838 307 CURVE",
"838 292 LINE",
"741 292 OFFCURVE",
"711 341 OFFCURVE",
"711 420 CURVE SMOOTH",
"711 582 LINE"
);
}
);
width = 885;
}
);
unicode = 2122;
},
{
glyphname = Breve;
lastChange = "2015-07-19 18:37:38 +0000";
layers = (
{
layerId = UUID0;
name = Regular;
paths = (
{
closed = 1;
nodes = (
"186 760 OFFCURVE",
"220 780 OFFCURVE",
"240 805 CURVE",
"260 790 LINE",
"235 734 OFFCURVE",
"195 700 OFFCURVE",
"130 700 CURVE SMOOTH",
"65 700 OFFCURVE",
"25 734 OFFCURVE",
"0 790 CURVE",
"20 805 LINE",
"40 780 OFFCURVE",
"74 760 OFFCURVE",
"130 760 CURVE SMOOTH"
);
}
);
width = 260;
}
);
unicode = F406;
},
{
glyphname = dieresis.alt1;
lastChange = "2015-07-19 18:37:38 +0000";
layers = (
{
layerId = UUID0;
name = Regular;
paths = (
{
closed = 1;
nodes = (
"260 555 OFFCURVE",
"240 535 OFFCURVE",
"215 535 CURVE SMOOTH",
"190 535 OFFCURVE",
"170 555 OFFCURVE",
"170 580 CURVE SMOOTH",
"170 605 OFFCURVE",
"190 625 OFFCURVE",
"215 625 CURVE SMOOTH",
"240 625 OFFCURVE",
"260 605 OFFCURVE",
"260 580 CURVE SMOOTH"
);
},
{
closed = 1;
nodes = (
"90 555 OFFCURVE",
"70 535 OFFCURVE",
"45 535 CURVE SMOOTH",
"20 535 OFFCURVE",
"0 555 OFFCURVE",
"0 580 CURVE SMOOTH",
"0 605 OFFCURVE",
"20 625 OFFCURVE",
"45 625 CURVE SMOOTH",
"70 625 OFFCURVE",
"90 605 OFFCURVE",
"90 580 CURVE SMOOTH"
);
}
);
width = 260;
}
);
},
{
glyphname = acute.alt1;
lastChange = "2015-07-19 18:37:38 +0000";
layers = (
{
layerId = UUID0;
name = Regular;
paths = (
{
closed = 1;
nodes = (
"40 525 LINE",
"0 525 LINE",
"40 655 LINE",
"135 655 LINE"
);
}
);
width = 135;
}
);
},
{
glyphname = grave.alt1;
lastChange = "2015-07-19 18:37:38 +0000";
layers = (
{
layerId = UUID0;
name = Regular;
paths = (
{
closed = 1;
nodes = (
"0 655 LINE",
"95 655 LINE",
"135 525 LINE",
"95 525 LINE"
);
}
);
width = 135;
}
);
},
{
glyphname = circumflex.alt1;
lastChange = "2015-07-19 18:37:38 +0000";
layers = (
{
layerId = UUID0;
name = Regular;
paths = (
{
closed = 1;
nodes = (
"135 610 LINE",
"50 530 LINE",
"0 530 LINE",
"80 645 LINE",
"190 645 LINE",
"270 530 LINE",
"220 530 LINE"
);
}
);
width = 270;
}
);
},
{
color = (0,243,255,1);
glyphname = dieresis.alt2;
lastChange = "2015-07-19 18:37:38 +0000";
layers = (
{
layerId = UUID0;
name = Regular;
paths = (
{
closed = 1;
nodes = (
"260 735 OFFCURVE",
"240 715 OFFCURVE",
"215 715 CURVE SMOOTH",
"190 715 OFFCURVE",
"170 735 OFFCURVE",
"170 760 CURVE SMOOTH",
"170 785 OFFCURVE",
"190 805 OFFCURVE",
"215 805 CURVE SMOOTH",
"240 805 OFFCURVE",
"260 785 OFFCURVE",
"260 760 CURVE SMOOTH"
);
},
{
closed = 1;
nodes = (
"90 735 OFFCURVE",
"70 715 OFFCURVE",
"45 715 CURVE SMOOTH",
"20 715 OFFCURVE",
"0 735 OFFCURVE",
"0 760 CURVE SMOOTH",
"0 785 OFFCURVE",
"20 805 OFFCURVE",
"45 805 CURVE SMOOTH",
"70 805 OFFCURVE",
"90 785 OFFCURVE",
"90 760 CURVE SMOOTH"
);
}
);
width = 260;
}
);
},
{
glyphname = "hamza-ar";
lastChange = "2015-07-19 23:05:41 +0000";
layers = (
{
anchors = (
{
name = bottom;
position = "{236, -30}";
},
{
name = top;
position = "{236, 480}";
}
);
layerId = UUID0;
name = Regular;
paths = (
{
closed = 1;
nodes = (
"83 8 OFFCURVE",
"402 39 OFFCURVE",
"402 39 CURVE",
"422 39 OFFCURVE",
"438 104 OFFCURVE",
"382 104 CURVE SMOOTH",
"382 104 OFFCURVE",
"158 50 OFFCURVE",
"158 234 CURVE SMOOTH",
"158 337 OFFCURVE",
"228 347 OFFCURVE",
"228 347 CURVE SMOOTH",
"228 347 OFFCURVE",
"302 335 OFFCURVE",
"300 269 CURVE",
"318 253 OFFCURVE",
"376 260 OFFCURVE",
"376 320 CURVE SMOOTH",
"376 344 OFFCURVE",
"367 393 OFFCURVE",
"265 393 CURVE SMOOTH",
"141 393 OFFCURVE",
"68 320 OFFCURVE",
"68 224 CURVE SMOOTH",
"68 130 OFFCURVE",
"139 65 OFFCURVE",
"139 65 CURVE",
"92 84 OFFCURVE",
"21 46 OFFCURVE",
"63 -13 CURVE"
);
}
);
width = 471;
}
);
unicode = 0621;
},
{
glyphname = "alef-ar";
lastChange = "2015-07-19 23:42:15 +0000";
layers = (
{
anchors = (
{
name = bottom;
position = "{149, -30}";
},
{
name = top;
position = "{116, 700}";
}
);
layerId = UUID0;
name = Regular;
paths = (
{
closed = 1;
nodes = (
"195 636 OFFCURVE",
"154 660 OFFCURVE",
"116 660 CURVE SMOOTH",
"86 660 OFFCURVE",
"57 645 OFFCURVE",
"50 635 CURVE",
"50 635 OFFCURVE",
"105 597 OFFCURVE",
"105 512 CURVE SMOOTH",
"105 64 LINE SMOOTH",
"105 29 OFFCURVE",
"106 0 OFFCURVE",
"149 0 CURVE SMOOTH",
"192 0 OFFCURVE",
"195 29 OFFCURVE",
"195 64 CURVE SMOOTH",
"195 549 LINE SMOOTH"
);
}
);
width = 245;
}
);
unicode = 0627;
},
{
glyphname = "alef-ar.fina";
lastChange = "2015-07-19 23:42:21 +0000";
layers = (
{
anchors = (
{
name = bottom;
position = "{158, -30}";
},
{
name = entry;
position = "{315, 30}";
},
{
name = top;
position = "{116, 700}";
}
);
layerId = UUID0;
name = Regular;
paths = (
{
closed = 1;
nodes = (
"284 60 LINE SMOOTH",
"223 60 OFFCURVE",
"195 122 OFFCURVE",
"195 178 CURVE SMOOTH",
"195 549 LINE SMOOTH",
"195 636 OFFCURVE",
"154 660 OFFCURVE",
"116 660 CURVE SMOOTH",
"86 660 OFFCURVE",
"57 645 OFFCURVE",
"50 635 CURVE",
"50 635 OFFCURVE",
"105 597 OFFCURVE",
"105 512 CURVE SMOOTH",
"105 194 LINE SMOOTH",
"106 58 OFFCURVE",
"177 0 OFFCURVE",
"258 0 CURVE SMOOTH",
"335 0 LINE",
"335 60 LINE"
);
}
);
width = 315;
}
);
unicode = FE8E;
},
{
glyphname = "alef-ar.short";
lastChange = "2015-07-19 23:42:57 +0000";
layers = (
{
anchors = (
{
name = bottom;
position = "{149, -60}";
},
{
name = top;
position = "{116, 620}";
}
);
layerId = UUID0;
name = Regular;
paths = (
{
closed = 1;
nodes = (
"195 575 OFFCURVE",
"154 599 OFFCURVE",
"116 599 CURVE SMOOTH",
"86 599 OFFCURVE",
"57 584 OFFCURVE",
"50 574 CURVE",
"50 574 OFFCURVE",
"105 536 OFFCURVE",
"105 451 CURVE SMOOTH",
"105 64 LINE SMOOTH",
"105 29 OFFCURVE",
"106 0 OFFCURVE",
"149 0 CURVE SMOOTH",
"192 0 OFFCURVE",
"195 29 OFFCURVE",
"195 64 CURVE SMOOTH",
"195 488 LINE SMOOTH"
);
}
);
width = 245;
}
);
},
{
glyphname = "alef-ar.fina.short";
lastChange = "2015-07-19 23:43:02 +0000";
layers = (
{
anchors = (
{
name = bottom;
position = "{158, -60}";
},
{
name = entry;
position = "{315, 30}";
},
{
name = top;
position = "{116, 620}";
}
);
layerId = UUID0;
name = Regular;
paths = (
{
closed = 1;
nodes = (
"284 60 LINE SMOOTH",
"223 60 OFFCURVE",
"195 123 OFFCURVE",
"195 178 CURVE SMOOTH",
"195 488 LINE SMOOTH",
"195 575 OFFCURVE",
"154 599 OFFCURVE",
"116 599 CURVE SMOOTH",
"86 599 OFFCURVE",
"57 584 OFFCURVE",
"50 574 CURVE",
"50 574 OFFCURVE",
"105 536 OFFCURVE",
"105 451 CURVE SMOOTH",
"105 195 LINE SMOOTH",
"105 58 OFFCURVE",
"177 0 OFFCURVE",
"257 0 CURVE SMOOTH",
"335 0 LINE",
"335 60 LINE"
);
}
);
width = 315;
}
);
},
{
glyphname = "dotlessbeh-ar";
lastChange = "2015-07-20 00:49:57 +0000";
layers = (
{
anchors = (
{
name = bottom;
position = "{350, -60}";
},
{
name = top;
position = "{350, 480}";
}
);
layerId = UUID0;
name = Regular;
paths = (
{
closed = 1;
nodes = (
"472 0 LINE SMOOTH",
"638 0 OFFCURVE",
"679 151 OFFCURVE",
"679 270 CURVE SMOOTH",
"679 368 OFFCURVE",
"651 480 OFFCURVE",
"559 480 CURVE SMOOTH",
"530 480 OFFCURVE",
"514 469 OFFCURVE",
"504 460 CURVE",
"583 393 OFFCURVE",
"589 300 OFFCURVE",
"589 240 CURVE SMOOTH",
"589 206 OFFCURVE",
"587 60 OFFCURVE",
"479 60 CURVE SMOOTH",
"236 60 LINE SMOOTH",
"170 60 OFFCURVE",
"155 134 OFFCURVE",
"155 170 CURVE SMOOTH",
"155 383 LINE SMOOTH",
"155 416 OFFCURVE",
"135 427 OFFCURVE",
"110 427 CURVE SMOOTH",
"85 427 OFFCURVE",
"65 416 OFFCURVE",
"65 384 CURVE SMOOTH",
"65 132 LINE SMOOTH",
"65 90 OFFCURVE",
"121 0 OFFCURVE",
"217 0 CURVE SMOOTH"
);
}
);
width = 744;
}
);
unicode = 066E;
},
{
glyphname = "dotlessbeh-ar.fina";
lastChange = "2015-07-20 02:42:59 +0000";
layers = (
{
anchors = (
{
name = bottom;
position = "{340, -60}";
},
{
name = entry;
position = "{799, 30}";
},
{
name = top;
position = "{340, 480}";
}
);
layerId = UUID0;
name = Regular;
paths = (
{
closed = 1;
nodes = (
"664 115 OFFCURVE",
"679 198 OFFCURVE",
"679 270 CURVE SMOOTH",
"679 368 OFFCURVE",
"651 480 OFFCURVE",
"559 480 CURVE SMOOTH",
"530 480 OFFCURVE",
"514 469 OFFCURVE",
"504 460 CURVE",
"583 393 OFFCURVE",
"589 300 OFFCURVE",
"589 240 CURVE SMOOTH",
"589 206 OFFCURVE",
"587 60 OFFCURVE",
"479 60 CURVE SMOOTH",
"236 60 LINE SMOOTH",
"170 60 OFFCURVE",
"155 134 OFFCURVE",
"155 170 CURVE SMOOTH",
"155 383 LINE SMOOTH",
"155 416 OFFCURVE",
"135 427 OFFCURVE",
"110 427 CURVE SMOOTH",
"85 427 OFFCURVE",
"65 416 OFFCURVE",
"65 384 CURVE SMOOTH",
"65 132 LINE SMOOTH",
"65 90 OFFCURVE",
"121 0 OFFCURVE",
"217 0 CURVE SMOOTH",
"472 0 LINE SMOOTH",
"514 0 OFFCURVE",
"548 10 OFFCURVE",
"575 26 CURVE",
"597 10 OFFCURVE",
"623 0 OFFCURVE",
"669 0 CURVE SMOOTH",
"819 0 LINE",
"819 60 LINE",
"616 60 LINE"
);
}
);
width = 799;
}
);
},
{
glyphname = "dotlessbeh-ar.medi";
lastChange = "2015-07-20 02:02:55 +0000";
layers = (
{
anchors = (
{
name = bottom;
position = "{159, -60}";
},
{
name = entry;
position = "{329, 30}";
},
{
name = exit;
position = "{0, 30}";
},
{
name = top;
position = "{159, 525}";
}
);
layerId = UUID0;
name = Regular;
paths = (
{
closed = 1;
nodes = (
"205 60 OFFCURVE",
"204 108 OFFCURVE",
"204 142 CURVE SMOOTH",
"204 435 LINE SMOOTH",
"204 469 OFFCURVE",
"184 480 OFFCURVE",
"159 480 CURVE SMOOTH",
"133 480 OFFCURVE",
"114 469 OFFCURVE",
"114 434 CURVE SMOOTH",
"114 175 LINE SMOOTH",
"114 138 OFFCURVE",
"99 60 OFFCURVE",
"30 60 CURVE SMOOTH",
"-20 60 LINE",
"-20 0 LINE",
"57 0 LINE",
"88 2 OFFCURVE",
"115 10 OFFCURVE",
"140 26 CURVE",
"162 10 OFFCURVE",
"188 0 OFFCURVE",
"234 0 CURVE SMOOTH",
"349 0 LINE",
"349 60 LINE",
"230 60 LINE SMOOTH"
);
}
);
width = 329;
}
);
},
{
glyphname = "dotlessbeh-ar.init";
lastChange = "2015-07-20 02:03:11 +0000";
layers = (
{
anchors = (
{
name = bottom;
position = "{91, -60}";
},
{
name = exit;
position = "{0, 30}";
},
{
name = top;
position = "{91, 525}";
}
);
layerId = UUID0;
name = Regular;
paths = (
{
closed = 1;
nodes = (
"62 480 OFFCURVE",
"46 469 OFFCURVE",
"36 460 CURVE",
"115 393 OFFCURVE",
"121 300 OFFCURVE",
"121 240 CURVE SMOOTH",
"121 206 OFFCURVE",
"119 60 OFFCURVE",
"11 60 CURVE SMOOTH",
"-20 60 LINE",
"-20 0 LINE",
"4 0 LINE SMOOTH",
"170 0 OFFCURVE",
"211 151 OFFCURVE",
"211 270 CURVE SMOOTH",
"211 368 OFFCURVE",
"183 480 OFFCURVE",
"91 480 CURVE SMOOTH"
);
}
);
width = 276;
}
);
},
{
glyphname = "hah-ar";
lastChange = "2015-07-20 02:02:47 +0000";
layers = (
{
anchors = (
{
name = bottom;
position = "{294, -280}";
},
{
name = center;
position = "{294, -110}";
},
{
name = top;
position = "{294, 525}";
}
);
layerId = UUID0;
name = Regular;
paths = (
{
closed = 1;
nodes = (
"189 -266 OFFCURVE",
"216 -257 OFFCURVE",
"225 -249 CURVE",
"157 -192 OFFCURVE",
"139 -100 OFFCURVE",
"139 0 CURVE",
"328 0 LINE SMOOTH",
"468 0 OFFCURVE",
"538 91 OFFCURVE",
"538 234 CURVE SMOOTH",
"538 390 OFFCURVE",
"454 480 OFFCURVE",
"247 480 CURVE SMOOTH",
"210 480 OFFCURVE",
"177 476 OFFCURVE",
"158 476 CURVE SMOOTH",
"122 476 OFFCURVE",
"101 491 OFFCURVE",
"89 500 CURVE",
"89 500 OFFCURVE",
"79 419 OFFCURVE",
"160 419 CURVE SMOOTH",
"169 419 OFFCURVE",
"196 420 OFFCURVE",
"218 420 CURVE SMOOTH",
"397 420 OFFCURVE",
"448 353 OFFCURVE",
"448 231 CURVE SMOOTH",
"448 51 OFFCURVE",
"336 60 OFFCURVE",
"264 60 CURVE SMOOTH",
"167 60 LINE SMOOTH",
"92 60 OFFCURVE",
"50 21 OFFCURVE",
"50 -58 CURVE SMOOTH",
"50 -115 OFFCURVE",
"72 -266 OFFCURVE",
"166 -266 CURVE SMOOTH"
);
}
);
width = 588;
}
);
unicode = 062D;
},
{
glyphname = "hah-ar.fina";
lastChange = "2015-07-20 02:02:38 +0000";
layers = (
{
anchors = (
{
name = bottom;
position = "{294, -280}";
},
{
name = center;
position = "{294, -110}";
},
{
name = entry;
position = "{563, 30}";
},
{
name = top;
position = "{294, 525}";
}
);
layerId = UUID0;
name = Regular;
paths = (
{
closed = 1;
nodes = (
"520 101 OFFCURVE",
"538 161 OFFCURVE",
"538 234 CURVE SMOOTH",
"538 390 OFFCURVE",
"454 480 OFFCURVE",
"247 480 CURVE SMOOTH",
"210 480 OFFCURVE",
"177 476 OFFCURVE",
"158 476 CURVE SMOOTH",
"122 476 OFFCURVE",
"101 491 OFFCURVE",
"89 500 CURVE",
"89 500 OFFCURVE",
"79 419 OFFCURVE",
"160 419 CURVE SMOOTH",
"169 419 OFFCURVE",
"196 420 OFFCURVE",
"218 420 CURVE SMOOTH",
"397 420 OFFCURVE",
"448 353 OFFCURVE",
"448 231 CURVE SMOOTH",
"448 51 OFFCURVE",
"336 60 OFFCURVE",
"264 60 CURVE SMOOTH",
"167 60 LINE SMOOTH",
"92 60 OFFCURVE",
"50 21 OFFCURVE",
"50 -58 CURVE SMOOTH",
"50 -115 OFFCURVE",
"72 -266 OFFCURVE",
"166 -266 CURVE SMOOTH",
"189 -266 OFFCURVE",
"216 -257 OFFCURVE",
"225 -249 CURVE",
"157 -192 OFFCURVE",
"139 -100 OFFCURVE",
"139 0 CURVE",
"328 0 LINE SMOOTH",
"372 0 OFFCURVE",
"409 9 OFFCURVE",
"440 26 CURVE",
"462 10 OFFCURVE",
"488 0 OFFCURVE",
"534 0 CURVE SMOOTH",
"593 0 LINE",
"593 60 LINE",
"482 60 LINE"
);
}
);
width = 563;
}
);
unicode = FEA2;
},
{
glyphname = "hah-ar.medi";
lastChange = "2015-07-20 02:46:56 +0000";
layers = (
{
anchors = (
{
name = bottom;
position = "{267, -60}";
},
{
name = entry;
position = "{530, 30}";
},
{
name = exit;
position = "{0, 30}";
},
{
name = top;
position = "{267, 525}";
}
);
layerId = UUID0;
name = Regular;
paths = (
{
closed = 1;
nodes = (
"465 101 OFFCURVE",
"484 160 OFFCURVE",
"484 234 CURVE SMOOTH",
"484 390 OFFCURVE",
"400 480 OFFCURVE",
"193 480 CURVE SMOOTH",
"156 480 OFFCURVE",
"123 476 OFFCURVE",
"104 476 CURVE SMOOTH",
"68 476 OFFCURVE",
"47 491 OFFCURVE",
"35 500 CURVE",
"35 500 OFFCURVE",
"25 419 OFFCURVE",
"106 419 CURVE SMOOTH",
"115 419 OFFCURVE",
"142 420 OFFCURVE",
"164 420 CURVE SMOOTH",
"343 420 OFFCURVE",
"394 353 OFFCURVE",
"394 231 CURVE SMOOTH",
"394 51 OFFCURVE",
"282 60 OFFCURVE",
"210 60 CURVE SMOOTH",
"-20 60 LINE",
"-20 0 LINE",
"274 0 LINE SMOOTH",
"318 0 OFFCURVE",
"355 9 OFFCURVE",
"386 26 CURVE",
"408 10 OFFCURVE",
"434 0 OFFCURVE",
"480 0 CURVE SMOOTH",
"550 0 LINE",
"550 60 LINE",
"429 60 LINE"
);
}
);
width = 530;
}
);
unicode = FEA4;
},
{
glyphname = "hah-ar.init";
lastChange = "2015-07-20 02:47:03 +0000";
layers = (
{
anchors = (
{
name = bottom;
position = "{267, -60}";
},
{
name = exit;
position = "{0, 30}";
},
{
name = top;
position = "{267, 525}";
}
);
layerId = UUID0;
name = Regular;
paths = (
{
closed = 1;
nodes = (
"156 480 OFFCURVE",
"123 476 OFFCURVE",
"104 476 CURVE SMOOTH",
"68 476 OFFCURVE",
"47 491 OFFCURVE",
"35 500 CURVE",
"35 500 OFFCURVE",
"25 419 OFFCURVE",
"106 419 CURVE SMOOTH",
"115 419 OFFCURVE",
"142 420 OFFCURVE",
"164 420 CURVE SMOOTH",
"343 420 OFFCURVE",
"394 353 OFFCURVE",
"394 231 CURVE SMOOTH",
"394 51 OFFCURVE",
"282 60 OFFCURVE",
"210 60 CURVE SMOOTH",
"-20 60 LINE",
"-20 0 LINE",
"274 0 LINE SMOOTH",
"414 0 OFFCURVE",
"484 91 OFFCURVE",
"484 234 CURVE SMOOTH",
"484 390 OFFCURVE",
"400 480 OFFCURVE",
"193 480 CURVE SMOOTH"
);
}
);
width = 534;
}
);
unicode = FEA3;
},
{
glyphname = "dal-ar";
lastChange = "2015-07-20 22:44:24 +0000";
layers = (
{
anchors = (
{
name = bottom;
position = "{242, -60}";
},
{
name = top;
position = "{242, 525}";
}
);
layerId = UUID0;
name = Regular;
paths = (
{
closed = 1;
nodes = (
"223 0 LINE SMOOTH",
"379 0 OFFCURVE",
"434 165 OFFCURVE",
"434 259 CURVE SMOOTH",
"434 358 OFFCURVE",
"373 480 OFFCURVE",
"224 480 CURVE SMOOTH",
"131 480 OFFCURVE",
"65 433 OFFCURVE",
"65 369 CURVE SMOOTH",
"65 299 OFFCURVE",
"144 307 OFFCURVE",
"144 307 CURVE",
"144 377 OFFCURVE",
"176 405 OFFCURVE",
"223 420 CURVE",
"292 420 OFFCURVE",
"344 363 OFFCURVE",
"344 260 CURVE SMOOTH",
"344 155 OFFCURVE",
"289 60 OFFCURVE",
"141 60 CURVE SMOOTH",
"88 60 LINE SMOOTH",
"58 60 OFFCURVE",
"50 44 OFFCURVE",
"50 28 CURVE SMOOTH",
"50 14 OFFCURVE",
"56 0 OFFCURVE",
"77 0 CURVE SMOOTH"
);
}
);
width = 484;
}
);
unicode = 062F;
},
{
glyphname = "dal-ar.fina";
lastChange = "2015-07-20 02:43:28 +0000";
layers = (
{
anchors = (
{
name = bottom;
position = "{242, -75}";
},
{
name = entry;
position = "{535, 30}";
},
{
name = top;
position = "{242, 525}";
}
);
layerId = UUID0;
name = Regular;
paths = (
{
closed = 1;
nodes = (
"413 117 OFFCURVE",
"434 201 OFFCURVE",
"434 259 CURVE SMOOTH",
"434 358 OFFCURVE",
"373 480 OFFCURVE",
"224 480 CURVE SMOOTH",
"131 480 OFFCURVE",
"65 433 OFFCURVE",
"65 369 CURVE SMOOTH",
"65 299 OFFCURVE",
"144 307 OFFCURVE",
"144 307 CURVE",
"144 377 OFFCURVE",
"176 405 OFFCURVE",
"223 420 CURVE",
"292 420 OFFCURVE",
"344 363 OFFCURVE",
"344 260 CURVE SMOOTH",
"344 155 OFFCURVE",
"289 60 OFFCURVE",
"141 60 CURVE SMOOTH",
"88 60 LINE SMOOTH",
"58 60 OFFCURVE",
"50 44 OFFCURVE",
"50 28 CURVE SMOOTH",
"50 14 OFFCURVE",
"56 0 OFFCURVE",
"77 0 CURVE SMOOTH",
"223 0 LINE SMOOTH",
"261 0 OFFCURVE",
"293 10 OFFCURVE",
"319 26 CURVE",
"341 10 OFFCURVE",
"367 0 OFFCURVE",
"413 0 CURVE SMOOTH",
"555 0 LINE",
"555 60 LINE",
"361 60 LINE"
);
}
);
width = 535;
}
);
unicode = FEAA;
},
{
glyphname = "reh-ar";
lastChange = "2015-07-23 01:08:03 +0000";
layers = (
{
anchors = (
{
name = bottom;
position = "{160, -280}";
},
{
name = top;
position = "{175, 525}";
}
);
layerId = UUID0;
name = Regular;
paths = (
{
closed = 1;
nodes = (
"220 439 LINE",
"220 470 OFFCURVE",
"198 480 OFFCURVE",
"175 480 CURVE SMOOTH",
"152 480 OFFCURVE",
"130 471 OFFCURVE",
"130 438 CURVE SMOOTH",
"131 -85 LINE SMOOTH",
"131 -123 OFFCURVE",
"102 -185 OFFCURVE",
"17 -185 CURVE SMOOTH",
"2 -185 OFFCURVE",
"-23 -183 OFFCURVE",
"-45 -177 CURVE",
"-41 -183 OFFCURVE",
"-8 -229 OFFCURVE",
"72 -229 CURVE SMOOTH",
"194 -229 OFFCURVE",
"220 -121 OFFCURVE",
"220 -73 CURVE"
);
}
);
width = 265;
}
);
unicode = 0631;
},
{
glyphname = "reh-ar.fina";
lastChange = "2015-07-20 02:24:38 +0000";
layers = (
{
anchors = (
{
name = bottom;
position = "{160, -280}";
},
{
name = entry;
position = "{319, 30}";
},
{
name = top;
position = "{175, 525}";
}
);
layerId = UUID0;
name = Regular;
paths = (
{
closed = 1;
nodes = (
"220 60 LINE",
"220 439 LINE SMOOTH",
"220 471 OFFCURVE",
"198 480 OFFCURVE",
"175 480 CURVE SMOOTH",
"152 480 OFFCURVE",
"130 471 OFFCURVE",
"130 438 CURVE SMOOTH",
"130 -85 LINE SMOOTH",
"130 -123 OFFCURVE",
"102 -185 OFFCURVE",
"17 -185 CURVE SMOOTH",
"2 -185 OFFCURVE",
"-23 -183 OFFCURVE",
"-45 -177 CURVE",
"-41 -183 OFFCURVE",
"-8 -229 OFFCURVE",
"72 -229 CURVE SMOOTH",
"194 -229 OFFCURVE",
"220 -121 OFFCURVE",
"220 -73 CURVE SMOOTH",
"220 23 LINE",
"241 9 OFFCURVE",
"263 0 OFFCURVE",
"306 0 CURVE SMOOTH",
"339 0 LINE",
"339 60 LINE"
);
}
);
width = 319;
}
);
unicode = FEAE;
},
{
glyphname = "seen-ar";
lastChange = "2015-07-20 02:53:50 +0000";
layers = (
{
anchors = (
{
name = bottom;
position = "{857, -60}";
},
{
name = top;
position = "{857, 525}";
}
);
layerId = UUID0;
name = Regular;
paths = (
{
closed = 1;
nodes = (
"1084 480 OFFCURVE",
"1068 469 OFFCURVE",
"1058 460 CURVE",
"1137 393 OFFCURVE",
"1143 300 OFFCURVE",
"1143 240 CURVE SMOOTH",
"1143 206 OFFCURVE",
"1141 60 OFFCURVE",
"1033 60 CURVE SMOOTH",
"972 60 LINE SMOOTH",
"908 60 OFFCURVE",
"899 143 OFFCURVE",
"899 191 CURVE SMOOTH",
"899 402 LINE SMOOTH",
"899 433 OFFCURVE",
"886 449 OFFCURVE",
"857 449 CURVE SMOOTH",
"826 449 OFFCURVE",
"809 431 OFFCURVE",
"809 402 CURVE SMOOTH",
"808 191 LINE SMOOTH",
"808 147 OFFCURVE",
"790 60 OFFCURVE",
"717 60 CURVE SMOOTH",
"617 60 LINE SMOOTH",
"575 60 OFFCURVE",
"575 105 OFFCURVE",
"575 167 CURVE SMOOTH",
"575 379 LINE SMOOTH",
"575 414 OFFCURVE",
"557 425 OFFCURVE",
"531 425 CURVE SMOOTH",
"505 425 OFFCURVE",
"486 414 OFFCURVE",
"486 379 CURVE SMOOTH",
"486 -30 LINE SMOOTH",
"486 -91 OFFCURVE",
"483 -194 OFFCURVE",
"400 -194 CURVE SMOOTH",
"275 -194 LINE SMOOTH",
"182 -194 OFFCURVE",
"152 -96 OFFCURVE",
"152 0 CURVE SMOOTH",
"152 88 OFFCURVE",
"177 182 OFFCURVE",
"248 248 CURVE",
"238 257 OFFCURVE",
"214 268 OFFCURVE",
"190 268 CURVE SMOOTH",
"132 268 OFFCURVE",
"65 205 OFFCURVE",
"65 37 CURVE SMOOTH",
"65 -133 OFFCURVE",
"133 -254 OFFCURVE",
"282 -254 CURVE SMOOTH",
"427 -254 LINE SMOOTH",
"540 -254 OFFCURVE",
"577 -142 OFFCURVE",
"577 -25 CURVE SMOOTH",
"577 33 LINE",
"604 12 OFFCURVE",
"627 0 OFFCURVE",
"670 0 CURVE SMOOTH",
"670 0 OFFCURVE",
"702 0 OFFCURVE",
"702 0 CURVE SMOOTH",
"745 0 OFFCURVE",
"786 30 OFFCURVE",
"809 58 CURVE",
"852 14 OFFCURVE",
"891 0 OFFCURVE",
"964 0 CURVE SMOOTH",
"1026 0 LINE SMOOTH",
"1192 0 OFFCURVE",
"1233 151 OFFCURVE",
"1233 270 CURVE SMOOTH",
"1233 368 OFFCURVE",
"1205 480 OFFCURVE",
"1113 480 CURVE SMOOTH"
);
}
);
width = 1298;
}
);
unicode = 0633;
},
